<svg width="447" height="130" viewBox="0 0 447 130" fill="none" xmlns="http://www.w3.org/2000/svg">
<g filter="url(#filter0_d_227_36)">
<rect x="28" y="28" width="391" height="74" rx="30" fill="white" shape-rendering="crispEdges"/>
<path opacity="0.8" d="M67.8 79C67.5067 79 67.2667 78.9067 67.08 78.72C66.8933 78.5333 66.8 78.2933 66.8 78V52C66.8 51.7067 66.8933 51.4667 67.08 51.28C67.2667 51.0933 67.5067 51 67.8 51H86.48C86.7733 51 87.0133 51.0933 87.2 51.28C87.3867 51.4667 87.48 51.7067 87.48 52V55.76C87.48 56.0533 87.3867 56.2933 87.2 56.48C87.0133 56.6667 86.7733 56.76 86.48 56.76H73.72V62.16H85.6C85.8933 62.16 86.1333 62.2667 86.32 62.48C86.5067 62.6667 86.6 62.9067 86.6 63.2V66.68C86.6 66.9467 86.5067 67.1867 86.32 67.4C86.1333 67.5867 85.8933 67.68 85.6 67.68H73.72V73.24H86.8C87.0933 73.24 87.3333 73.3333 87.52 73.52C87.7067 73.7067 87.8 73.9467 87.8 74.24V78C87.8 78.2933 87.7067 78.5333 87.52 78.72C87.3333 78.9067 87.0933 79 86.8 79H67.8ZM90.8669 79C90.6269 79 90.4135 78.92 90.2269 78.76C90.0669 78.5733 89.9869 78.3733 89.9869 78.16C89.9869 78.08 90.0002 78 90.0269 77.92C90.0535 77.84 90.0935 77.76 90.1469 77.68L98.8669 64.72L90.7869 52.32C90.7069 52.16 90.6669 52 90.6669 51.84C90.6669 51.6267 90.7469 51.44 90.9069 51.28C91.0669 51.0933 91.2669 51 91.5069 51H97.3069C97.7069 51 98.0135 51.1067 98.2269 51.32C98.4402 51.5067 98.5869 51.68 98.6669 51.84L103.467 59.12L108.307 51.84C108.414 51.68 108.574 51.5067 108.787 51.32C109 51.1067 109.307 51 109.707 51H115.187C115.427 51 115.627 51.0933 115.787 51.28C115.974 51.44 116.067 51.6267 116.067 51.84C116.067 52.0267 116.014 52.1867 115.907 52.32L107.787 64.68L116.587 77.68C116.64 77.76 116.667 77.84 116.667 77.92C116.694 78 116.707 78.08 116.707 78.16C116.707 78.3733 116.627 78.5733 116.467 78.76C116.307 78.92 116.107 79 115.867 79H109.907C109.507 79 109.187 78.9067 108.947 78.72C108.734 78.5067 108.587 78.3333 108.507 78.2L103.187 70.52L97.9869 78.2C97.9069 78.3333 97.7602 78.5067 97.5469 78.72C97.3335 78.9067 97.0269 79 96.6269 79H90.8669ZM120.964 79C120.671 79 120.431 78.9067 120.244 78.72C120.057 78.5333 119.964 78.2933 119.964 78V52C119.964 51.7067 120.057 51.4667 120.244 51.28C120.431 51.0933 120.671 51 120.964 51H132.164C134.377 51 136.297 51.3467 137.924 52.04C139.577 52.7067 140.857 53.72 141.764 55.08C142.697 56.44 143.164 58.16 143.164 60.24C143.164 62.2933 142.697 63.9867 141.764 65.32C140.857 66.6533 139.577 67.64 137.924 68.28C136.297 68.92 134.377 69.24 132.164 69.24H127.404V78C127.404 78.2933 127.297 78.5333 127.084 78.72C126.897 78.9067 126.657 79 126.364 79H120.964ZM127.284 63.72H131.964C133.111 63.72 134.017 63.4267 134.684 62.84C135.377 62.2533 135.724 61.36 135.724 60.16C135.724 59.1467 135.431 58.2933 134.844 57.6C134.257 56.9067 133.297 56.56 131.964 56.56H127.284V63.72ZM147.995 79C147.702 79 147.462 78.9067 147.275 78.72C147.089 78.5333 146.995 78.2933 146.995 78V52C146.995 51.7067 147.089 51.4667 147.275 51.28C147.462 51.0933 147.702 51 147.995 51H153.275C153.542 51 153.769 51.0933 153.955 51.28C154.169 51.4667 154.275 51.7067 154.275 52V72.96H166.355C166.649 72.96 166.889 73.0667 167.075 73.28C167.289 73.4667 167.395 73.7067 167.395 74V78C167.395 78.2933 167.289 78.5333 167.075 78.72C166.889 78.9067 166.649 79 166.355 79H147.995ZM181.99 79.4C179.537 79.4 177.403 79 175.59 78.2C173.777 77.4 172.363 76.2 171.35 74.6C170.337 72.9733 169.777 70.9467 169.67 68.52C169.643 67.3733 169.63 66.2267 169.63 65.08C169.63 63.9333 169.643 62.7733 169.67 61.6C169.777 59.2 170.337 57.1867 171.35 55.56C172.39 53.9067 173.817 52.6667 175.63 51.84C177.443 51.0133 179.563 50.6 181.99 50.6C184.39 50.6 186.497 51.0133 188.31 51.84C190.15 52.6667 191.59 53.9067 192.63 55.56C193.67 57.1867 194.23 59.2 194.31 61.6C194.363 62.7733 194.39 63.9333 194.39 65.08C194.39 66.2267 194.363 67.3733 194.31 68.52C194.203 70.9467 193.643 72.9733 192.63 74.6C191.617 76.2 190.203 77.4 188.39 78.2C186.577 79 184.443 79.4 181.99 79.4ZM181.99 73.64C183.403 73.64 184.55 73.2133 185.43 72.36C186.337 71.5067 186.817 70.1467 186.87 68.28C186.923 67.1067 186.95 66 186.95 64.96C186.95 63.92 186.923 62.84 186.87 61.72C186.817 60.4667 186.577 59.4533 186.15 58.68C185.75 57.88 185.19 57.2933 184.47 56.92C183.75 56.5467 182.923 56.36 181.99 56.36C181.083 56.36 180.27 56.5467 179.55 56.92C178.83 57.2933 178.257 57.88 177.83 58.68C177.403 59.4533 177.163 60.4667 177.11 61.72C177.083 62.84 177.07 63.92 177.07 64.96C177.07 66 177.083 67.1067 177.11 68.28C177.19 70.1467 177.67 71.5067 178.55 72.36C179.43 73.2133 180.577 73.64 181.99 73.64ZM200.027 79C199.733 79 199.493 78.9067 199.307 78.72C199.12 78.5333 199.027 78.2933 199.027 78V52C199.027 51.7067 199.12 51.4667 199.307 51.28C199.493 51.0933 199.733 51 200.027 51H210.907C214.347 51 217.053 51.8 219.027 53.4C221.027 54.9733 222.027 57.2133 222.027 60.12C222.027 62.0133 221.56 63.6133 220.627 64.92C219.72 66.2267 218.52 67.2133 217.027 67.88L222.547 77.72C222.627 77.88 222.667 78.0267 222.667 78.16C222.667 78.3733 222.573 78.5733 222.387 78.76C222.227 78.92 222.027 79 221.787 79H216.507C216 79 215.627 78.88 215.387 78.64C215.147 78.3733 214.973 78.1333 214.867 77.92L210.307 69.12H206.187V78C206.187 78.2933 206.093 78.5333 205.907 78.72C205.72 78.9067 205.48 79 205.187 79H200.027ZM206.187 63.48H210.827C212.08 63.48 213.013 63.1733 213.627 62.56C214.267 61.9467 214.587 61.1067 214.587 60.04C214.587 59 214.28 58.16 213.667 57.52C213.08 56.88 212.133 56.56 210.827 56.56H206.187V63.48ZM227.683 79C227.389 79 227.149 78.9067 226.963 78.72C226.776 78.5333 226.683 78.2933 226.683 78V52C226.683 51.7067 226.776 51.4667 226.963 51.28C227.149 51.0933 227.389 51 227.683 51H246.363C246.656 51 246.896 51.0933 247.083 51.28C247.269 51.4667 247.363 51.7067 247.363 52V55.76C247.363 56.0533 247.269 56.2933 247.083 56.48C246.896 56.6667 246.656 56.76 246.363 56.76H233.603V62.16H245.483C245.776 62.16 246.016 62.2667 246.203 62.48C246.389 62.6667 246.483 62.9067 246.483 63.2V66.68C246.483 66.9467 246.389 67.1867 246.203 67.4C246.016 67.5867 245.776 67.68 245.483 67.68H233.603V73.24H246.683C246.976 73.24 247.216 73.3333 247.403 73.52C247.589 73.7067 247.683 73.9467 247.683 74.24V78C247.683 78.2933 247.589 78.5333 247.403 78.72C247.216 78.9067 246.976 79 246.683 79H227.683ZM270.261 79C269.994 79 269.754 78.9067 269.541 78.72C269.354 78.5333 269.261 78.2933 269.261 78V52C269.261 51.7067 269.354 51.4667 269.541 51.28C269.754 51.0933 269.994 51 270.261 51H274.581C275.008 51 275.328 51.12 275.541 51.36C275.781 51.5733 275.928 51.7467 275.981 51.88L283.021 64.52L290.061 51.88C290.141 51.7467 290.274 51.5733 290.461 51.36C290.674 51.12 291.008 51 291.461 51H295.741C296.034 51 296.274 51.0933 296.461 51.28C296.674 51.4667 296.781 51.7067 296.781 52V78C296.781 78.2933 296.674 78.5333 296.461 78.72C296.274 78.9067 296.034 79 295.741 79H290.981C290.688 79 290.434 78.9067 290.221 78.72C290.034 78.5333 289.941 78.2933 289.941 78V63L285.421 71.36C285.314 71.6 285.154 71.8133 284.941 72C284.728 72.1867 284.434 72.28 284.061 72.28H281.981C281.608 72.28 281.314 72.1867 281.101 72C280.888 71.8133 280.714 71.6 280.581 71.36L276.061 63V78C276.061 78.2933 275.968 78.5333 275.781 78.72C275.594 78.9067 275.354 79 275.061 79H270.261ZM313.787 79.4C311.334 79.4 309.2 79 307.387 78.2C305.574 77.4 304.16 76.2 303.147 74.6C302.134 72.9733 301.574 70.9467 301.467 68.52C301.44 67.3733 301.427 66.2267 301.427 65.08C301.427 63.9333 301.44 62.7733 301.467 61.6C301.574 59.2 302.134 57.1867 303.147 55.56C304.187 53.9067 305.614 52.6667 307.427 51.84C309.24 51.0133 311.36 50.6 313.787 50.6C316.187 50.6 318.294 51.0133 320.107 51.84C321.947 52.6667 323.387 53.9067 324.427 55.56C325.467 57.1867 326.027 59.2 326.107 61.6C326.16 62.7733 326.187 63.9333 326.187 65.08C326.187 66.2267 326.16 67.3733 326.107 68.52C326 70.9467 325.44 72.9733 324.427 74.6C323.414 76.2 322 77.4 320.187 78.2C318.374 79 316.24 79.4 313.787 79.4ZM313.787 73.64C315.2 73.64 316.347 73.2133 317.227 72.36C318.134 71.5067 318.614 70.1467 318.667 68.28C318.72 67.1067 318.747 66 318.747 64.96C318.747 63.92 318.72 62.84 318.667 61.72C318.614 60.4667 318.374 59.4533 317.947 58.68C317.547 57.88 316.987 57.2933 316.267 56.92C315.547 56.5467 314.72 56.36 313.787 56.36C312.88 56.36 312.067 56.5467 311.347 56.92C310.627 57.2933 310.054 57.88 309.627 58.68C309.2 59.4533 308.96 60.4667 308.907 61.72C308.88 62.84 308.867 63.92 308.867 64.96C308.867 66 308.88 67.1067 308.907 68.28C308.987 70.1467 309.467 71.5067 310.347 72.36C311.227 73.2133 312.374 73.64 313.787 73.64ZM331.823 79C331.53 79 331.29 78.9067 331.103 78.72C330.917 78.5333 330.823 78.2933 330.823 78V52C330.823 51.7067 330.917 51.4667 331.103 51.28C331.29 51.0933 331.53 51 331.823 51H342.703C346.143 51 348.85 51.8 350.823 53.4C352.823 54.9733 353.823 57.2133 353.823 60.12C353.823 62.0133 353.357 63.6133 352.423 64.92C351.517 66.2267 350.317 67.2133 348.823 67.88L354.343 77.72C354.423 77.88 354.463 78.0267 354.463 78.16C354.463 78.3733 354.37 78.5733 354.183 78.76C354.023 78.92 353.823 79 353.583 79H348.303C347.797 79 347.423 78.88 347.183 78.64C346.943 78.3733 346.77 78.1333 346.663 77.92L342.103 69.12H337.983V78C337.983 78.2933 337.89 78.5333 337.703 78.72C337.517 78.9067 337.277 79 336.983 79H331.823ZM337.983 63.48H342.623C343.877 63.48 344.81 63.1733 345.423 62.56C346.063 61.9467 346.383 61.1067 346.383 60.04C346.383 59 346.077 58.16 345.463 57.52C344.877 56.88 343.93 56.56 342.623 56.56H337.983V63.48ZM359.48 79C359.186 79 358.946 78.9067 358.76 78.72C358.573 78.5333 358.48 78.2933 358.48 78V52C358.48 51.7067 358.573 51.4667 358.76 51.28C358.946 51.0933 359.186 51 359.48 51H378.16C378.453 51 378.693 51.0933 378.88 51.28C379.066 51.4667 379.16 51.7067 379.16 52V55.76C379.16 56.0533 379.066 56.2933 378.88 56.48C378.693 56.6667 378.453 56.76 378.16 56.76H365.4V62.16H377.28C377.573 62.16 377.813 62.2667 378 62.48C378.186 62.6667 378.28 62.9067 378.28 63.2V66.68C378.28 66.9467 378.186 67.1867 378 67.4C377.813 67.5867 377.573 67.68 377.28 67.68H365.4V73.24H378.48C378.773 73.24 379.013 73.3333 379.2 73.52C379.386 73.7067 379.48 73.9467 379.48 74.24V78C379.48 78.2933 379.386 78.5333 379.2 78.72C379.013 78.9067 378.773 79 378.48 79H359.48Z" fill="black"/>
<path opacity="0.8" d="M67.8 79C67.5067 79 67.2667 78.9067 67.08 78.72C66.8933 78.5333 66.8 78.2933 66.8 78V52C66.8 51.7067 66.8933 51.4667 67.08 51.28C67.2667 51.0933 67.5067 51 67.8 51H86.48C86.7733 51 87.0133 51.0933 87.2 51.28C87.3867 51.4667 87.48 51.7067 87.48 52V55.76C87.48 56.0533 87.3867 56.2933 87.2 56.48C87.0133 56.6667 86.7733 56.76 86.48 56.76H73.72V62.16H85.6C85.8933 62.16 86.1333 62.2667 86.32 62.48C86.5067 62.6667 86.6 62.9067 86.6 63.2V66.68C86.6 66.9467 86.5067 67.1867 86.32 67.4C86.1333 67.5867 85.8933 67.68 85.6 67.68H73.72V73.24H86.8C87.0933 73.24 87.3333 73.3333 87.52 73.52C87.7067 73.7067 87.8 73.9467 87.8 74.24V78C87.8 78.2933 87.7067 78.5333 87.52 78.72C87.3333 78.9067 87.0933 79 86.8 79H67.8ZM90.8669 79C90.6269 79 90.4135 78.92 90.2269 78.76C90.0669 78.5733 89.9869 78.3733 89.9869 78.16C89.9869 78.08 90.0002 78 90.0269 77.92C90.0535 77.84 90.0935 77.76 90.1469 77.68L98.8669 64.72L90.7869 52.32C90.7069 52.16 90.6669 52 90.6669 51.84C90.6669 51.6267 90.7469 51.44 90.9069 51.28C91.0669 51.0933 91.2669 51 91.5069 51H97.3069C97.7069 51 98.0135 51.1067 98.2269 51.32C98.4402 51.5067 98.5869 51.68 98.6669 51.84L103.467 59.12L108.307 51.84C108.414 51.68 108.574 51.5067 108.787 51.32C109 51.1067 109.307 51 109.707 51H115.187C115.427 51 115.627 51.0933 115.787 51.28C115.974 51.44 116.067 51.6267 116.067 51.84C116.067 52.0267 116.014 52.1867 115.907 52.32L107.787 64.68L116.587 77.68C116.64 77.76 116.667 77.84 116.667 77.92C116.694 78 116.707 78.08 116.707 78.16C116.707 78.3733 116.627 78.5733 116.467 78.76C116.307 78.92 116.107 79 115.867 79H109.907C109.507 79 109.187 78.9067 108.947 78.72C108.734 78.5067 108.587 78.3333 108.507 78.2L103.187 70.52L97.9869 78.2C97.9069 78.3333 97.7602 78.5067 97.5469 78.72C97.3335 78.9067 97.0269 79 96.6269 79H90.8669ZM120.964 79C120.671 79 120.431 78.9067 120.244 78.72C120.057 78.5333 119.964 78.2933 119.964 78V52C119.964 51.7067 120.057 51.4667 120.244 51.28C120.431 51.0933 120.671 51 120.964 51H132.164C134.377 51 136.297 51.3467 137.924 52.04C139.577 52.7067 140.857 53.72 141.764 55.08C142.697 56.44 143.164 58.16 143.164 60.24C143.164 62.2933 142.697 63.9867 141.764 65.32C140.857 66.6533 139.577 67.64 137.924 68.28C136.297 68.92 134.377 69.24 132.164 69.24H127.404V78C127.404 78.2933 127.297 78.5333 127.084 78.72C126.897 78.9067 126.657 79 126.364 79H120.964ZM127.284 63.72H131.964C133.111 63.72 134.017 63.4267 134.684 62.84C135.377 62.2533 135.724 61.36 135.724 60.16C135.724 59.1467 135.431 58.2933 134.844 57.6C134.257 56.9067 133.297 56.56 131.964 56.56H127.284V63.72ZM147.995 79C147.702 79 147.462 78.9067 147.275 78.72C147.089 78.5333 146.995 78.2933 146.995 78V52C146.995 51.7067 147.089 51.4667 147.275 51.28C147.462 51.0933 147.702 51 147.995 51H153.275C153.542 51 153.769 51.0933 153.955 51.28C154.169 51.4667 154.275 51.7067 154.275 52V72.96H166.355C166.649 72.96 166.889 73.0667 167.075 73.28C167.289 73.4667 167.395 73.7067 167.395 74V78C167.395 78.2933 167.289 78.5333 167.075 78.72C166.889 78.9067 166.649 79 166.355 79H147.995ZM181.99 79.4C179.537 79.4 177.403 79 175.59 78.2C173.777 77.4 172.363 76.2 171.35 74.6C170.337 72.9733 169.777 70.9467 169.67 68.52C169.643 67.3733 169.63 66.2267 169.63 65.08C169.63 63.9333 169.643 62.7733 169.67 61.6C169.777 59.2 170.337 57.1867 171.35 55.56C172.39 53.9067 173.817 52.6667 175.63 51.84C177.443 51.0133 179.563 50.6 181.99 50.6C184.39 50.6 186.497 51.0133 188.31 51.84C190.15 52.6667 191.59 53.9067 192.63 55.56C193.67 57.1867 194.23 59.2 194.31 61.6C194.363 62.7733 194.39 63.9333 194.39 65.08C194.39 66.2267 194.363 67.3733 194.31 68.52C194.203 70.9467 193.643 72.9733 192.63 74.6C191.617 76.2 190.203 77.4 188.39 78.2C186.577 79 184.443 79.4 181.99 79.4ZM181.99 73.64C183.403 73.64 184.55 73.2133 185.43 72.36C186.337 71.5067 186.817 70.1467 186.87 68.28C186.923 67.1067 186.95 66 186.95 64.96C186.95 63.92 186.923 62.84 186.87 61.72C186.817 60.4667 186.577 59.4533 186.15 58.68C185.75 57.88 185.19 57.2933 184.47 56.92C183.75 56.5467 182.923 56.36 181.99 56.36C181.083 56.36 180.27 56.5467 179.55 56.92C178.83 57.2933 178.257 57.88 177.83 58.68C177.403 59.4533 177.163 60.4667 177.11 61.72C177.083 62.84 177.07 63.92 177.07 64.96C177.07 66 177.083 67.1067 177.11 68.28C177.19 70.1467 177.67 71.5067 178.55 72.36C179.43 73.2133 180.577 73.64 181.99 73.64ZM200.027 79C199.733 79 199.493 78.9067 199.307 78.72C199.12 78.5333 199.027 78.2933 199.027 78V52C199.027 51.7067 199.12 51.4667 199.307 51.28C199.493 51.0933 199.733 51 200.027 51H210.907C214.347 51 217.053 51.8 219.027 53.4C221.027 54.9733 222.027 57.2133 222.027 60.12C222.027 62.0133 221.56 63.6133 220.627 64.92C219.72 66.2267 218.52 67.2133 217.027 67.88L222.547 77.72C222.627 77.88 222.667 78.0267 222.667 78.16C222.667 78.3733 222.573 78.5733 222.387 78.76C222.227 78.92 222.027 79 221.787 79H216.507C216 79 215.627 78.88 215.387 78.64C215.147 78.3733 214.973 78.1333 214.867 77.92L210.307 69.12H206.187V78C206.187 78.2933 206.093 78.5333 205.907 78.72C205.72 78.9067 205.48 79 205.187 79H200.027ZM206.187 63.48H210.827C212.08 63.48 213.013 63.1733 213.627 62.56C214.267 61.9467 214.587 61.1067 214.587 60.04C214.587 59 214.28 58.16 213.667 57.52C213.08 56.88 212.133 56.56 210.827 56.56H206.187V63.48ZM227.683 79C227.389 79 227.149 78.9067 226.963 78.72C226.776 78.5333 226.683 78.2933 226.683 78V52C226.683 51.7067 226.776 51.4667 226.963 51.28C227.149 51.0933 227.389 51 227.683 51H246.363C246.656 51 246.896 51.0933 247.083 51.28C247.269 51.4667 247.363 51.7067 247.363 52V55.76C247.363 56.0533 247.269 56.2933 247.083 56.48C246.896 56.6667 246.656 56.76 246.363 56.76H233.603V62.16H245.483C245.776 62.16 246.016 62.2667 246.203 62.48C246.389 62.6667 246.483 62.9067 246.483 63.2V66.68C246.483 66.9467 246.389 67.1867 246.203 67.4C246.016 67.5867 245.776 67.68 245.483 67.68H233.603V73.24H246.683C246.976 73.24 247.216 73.3333 247.403 73.52C247.589 73.7067 247.683 73.9467 247.683 74.24V78C247.683 78.2933 247.589 78.5333 247.403 78.72C247.216 78.9067 246.976 79 246.683 79H227.683ZM270.261 79C269.994 79 269.754 78.9067 269.541 78.72C269.354 78.5333 269.261 78.2933 269.261 78V52C269.261 51.7067 269.354 51.4667 269.541 51.28C269.754 51.0933 269.994 51 270.261 51H274.581C275.008 51 275.328 51.12 275.541 51.36C275.781 51.5733 275.928 51.7467 275.981 51.88L283.021 64.52L290.061 51.88C290.141 51.7467 290.274 51.5733 290.461 51.36C290.674 51.12 291.008 51 291.461 51H295.741C296.034 51 296.274 51.0933 296.461 51.28C296.674 51.4667 296.781 51.7067 296.781 52V78C296.781 78.2933 296.674 78.5333 296.461 78.72C296.274 78.9067 296.034 79 295.741 79H290.981C290.688 79 290.434 78.9067 290.221 78.72C290.034 78.5333 289.941 78.2933 289.941 78V63L285.421 71.36C285.314 71.6 285.154 71.8133 284.941 72C284.728 72.1867 284.434 72.28 284.061 72.28H281.981C281.608 72.28 281.314 72.1867 281.101 72C280.888 71.8133 280.714 71.6 280.581 71.36L276.061 63V78C276.061 78.2933 275.968 78.5333 275.781 78.72C275.594 78.9067 275.354 79 275.061 79H270.261ZM313.787 79.4C311.334 79.4 309.2 79 307.387 78.2C305.574 77.4 304.16 76.2 303.147 74.6C302.134 72.9733 301.574 70.9467 301.467 68.52C301.44 67.3733 301.427 66.2267 301.427 65.08C301.427 63.9333 301.44 62.7733 301.467 61.6C301.574 59.2 302.134 57.1867 303.147 55.56C304.187 53.9067 305.614 52.6667 307.427 51.84C309.24 51.0133 311.36 50.6 313.787 50.6C316.187 50.6 318.294 51.0133 320.107 51.84C321.947 52.6667 323.387 53.9067 324.427 55.56C325.467 57.1867 326.027 59.2 326.107 61.6C326.16 62.7733 326.187 63.9333 326.187 65.08C326.187 66.2267 326.16 67.3733 326.107 68.52C326 70.9467 325.44 72.9733 324.427 74.6C323.414 76.2 322 77.4 320.187 78.2C318.374 79 316.24 79.4 313.787 79.4ZM313.787 73.64C315.2 73.64 316.347 73.2133 317.227 72.36C318.134 71.5067 318.614 70.1467 318.667 68.28C318.72 67.1067 318.747 66 318.747 64.96C318.747 63.92 318.72 62.84 318.667 61.72C318.614 60.4667 318.374 59.4533 317.947 58.68C317.547 57.88 316.987 57.2933 316.267 56.92C315.547 56.5467 314.72 56.36 313.787 56.36C312.88 56.36 312.067 56.5467 311.347 56.92C310.627 57.2933 310.054 57.88 309.627 58.68C309.2 59.4533 308.96 60.4667 308.907 61.72C308.88 62.84 308.867 63.92 308.867 64.96C308.867 66 308.88 67.1067 308.907 68.28C308.987 70.1467 309.467 71.5067 310.347 72.36C311.227 73.2133 312.374 73.64 313.787 73.64ZM331.823 79C331.53 79 331.29 78.9067 331.103 78.72C330.917 78.5333 330.823 78.2933 330.823 78V52C330.823 51.7067 330.917 51.4667 331.103 51.28C331.29 51.0933 331.53 51 331.823 51H342.703C346.143 51 348.85 51.8 350.823 53.4C352.823 54.9733 353.823 57.2133 353.823 60.12C353.823 62.0133 353.357 63.6133 352.423 64.92C351.517 66.2267 350.317 67.2133 348.823 67.88L354.343 77.72C354.423 77.88 354.463 78.0267 354.463 78.16C354.463 78.3733 354.37 78.5733 354.183 78.76C354.023 78.92 353.823 79 353.583 79H348.303C347.797 79 347.423 78.88 347.183 78.64C346.943 78.3733 346.77 78.1333 346.663 77.92L342.103 69.12H337.983V78C337.983 78.2933 337.89 78.5333 337.703 78.72C337.517 78.9067 337.277 79 336.983 79H331.823ZM337.983 63.48H342.623C343.877 63.48 344.81 63.1733 345.423 62.56C346.063 61.9467 346.383 61.1067 346.383 60.04C346.383 59 346.077 58.16 345.463 57.52C344.877 56.88 343.93 56.56 342.623 56.56H337.983V63.48ZM359.48 79C359.186 79 358.946 78.9067 358.76 78.72C358.573 78.5333 358.48 78.2933 358.48 78V52C358.48 51.7067 358.573 51.4667 358.76 51.28C358.946 51.0933 359.186 51 359.48 51H378.16C378.453 51 378.693 51.0933 378.88 51.28C379.066 51.4667 379.16 51.7067 379.16 52V55.76C379.16 56.0533 379.066 56.2933 378.88 56.48C378.693 56.6667 378.453 56.76 378.16 56.76H365.4V62.16H377.28C377.573 62.16 377.813 62.2667 378 62.48C378.186 62.6667 378.28 62.9067 378.28 63.2V66.68C378.28 66.9467 378.186 67.1867 378 67.4C377.813 67.5867 377.573 67.68 377.28 67.68H365.4V73.24H378.48C378.773 73.24 379.013 73.3333 379.2 73.52C379.386 73.7067 379.48 73.9467 379.48 74.24V78C379.48 78.2933 379.386 78.5333 379.2 78.72C379.013 78.9067 378.773 79 378.48 79H359.48Z" fill="black"/>
<rect x="26.5" y="26.5" width="394" height="77" rx="31.5" stroke="#444444" stroke-width="3" shape-rendering="crispEdges"/>
</g>
<defs>
<filter id="filter0_d_227_36" x="0" y="0" width="447" height="130" filterUnits="userSpaceOnUse" color-interpolation-filters="sRGB">
<feFlood flood-opacity="0" result="BackgroundImageFix"/>
<feColorMatrix in="SourceAlpha" type="matrix" values="0 0 0 0 0 0 0 0 0 0 0 0 0 0 0 0 0 0 127 0" result="hardAlpha"/>
<feOffset/>
<feGaussianBlur stdDeviation="12.5"/>
<feComposite in2="hardAlpha" operator="out"/>
<feColorMatrix type="matrix" values="0 0 0 0 1 0 0 0 0 0.9125 0 0 0 0 0.9125 0 0 0 0.8 0"/>
<feBlend mode="normal" in2="BackgroundImageFix" result="effect1_dropShadow_227_36"/>
<feBlend mode="normal" in="SourceGraphic" in2="effect1_dropShadow_227_36" result="shape"/>
</filter>
</defs>
</svg>
