<svg width="1440" height="4977" viewBox="0 0 1440 4977" fill="none" xmlns="http://www.w3.org/2000/svg">
<g clip-path="url(#clip0_230_57)">
<rect width="1440" height="4977" fill="#0D0808"/>
<g filter="url(#filter0_f_230_57)">
<path d="M54.1869 3983.8C149.282 3977.55 211.347 3942.45 271.716 3860.78C394.011 3695.33 -320.514 3642.77 -221.004 3824.53C-158.261 3939.14 -67.2795 3991.8 54.1869 3983.8Z" fill="white" fill-opacity="0.18"/>
</g>
<g filter="url(#filter1_f_230_57)">
<path d="M1374.65 765.089C1375.07 764.791 1375.52 764.499 1375.99 764.215C1389.43 756.134 1387.06 757.823 1374.65 765.089C1340.8 788.911 1457.84 858.53 1397.21 859.326C1362.94 859.777 1313.81 841.097 1267.36 822.897C1172.31 869.527 1065.48 907.227 1138.88 796.863C1152.21 776.814 1207.55 799.457 1267.36 822.897C1312.82 800.598 1355.58 776.257 1374.65 765.089Z" fill="white" fill-opacity="0.18"/>
</g>
<g filter="url(#filter2_d_230_57)">
<rect x="1214" y="817" width="104" height="28" rx="14" stroke="white" stroke-width="6" shape-rendering="crispEdges"/>
</g>
<g filter="url(#filter3_d_230_57)">
<path d="M1233 830H1299C1299.55 830 1300 830.448 1300 831C1300 831.552 1299.55 832 1299 832H1233C1232.45 832 1232 831.552 1232 831C1232 830.448 1232.45 830 1233 830Z" stroke="white" stroke-width="6" shape-rendering="crispEdges"/>
</g>
<g filter="url(#filter4_d_230_57)">
<rect x="109" y="1524" width="146.167" height="28" rx="14" stroke="white" stroke-width="6" shape-rendering="crispEdges"/>
</g>
<g filter="url(#filter5_d_230_57)">
<path d="M165.9 1537H260.267C260.819 1537 261.267 1537.45 261.267 1538C261.267 1538.55 260.819 1539 260.267 1539H165.9C165.348 1539 164.9 1538.55 164.9 1538C164.9 1537.45 165.348 1537 165.9 1537Z" stroke="white" stroke-width="6" shape-rendering="crispEdges"/>
</g>
<g filter="url(#filter6_d_230_57)">
<rect x="90" y="865" width="222" height="33" rx="16.5" stroke="white" stroke-width="6" shape-rendering="crispEdges"/>
</g>
<g filter="url(#filter7_d_230_57)">
<path d="M127.588 880H271.794C272.671 880 273.382 880.711 273.382 881.588C273.382 882.465 272.671 883.176 271.794 883.176H127.588C126.711 883.176 126 882.465 126 881.588C126 880.711 126.711 880 127.588 880Z" stroke="white" stroke-width="6" shape-rendering="crispEdges"/>
</g>
<g filter="url(#filter8_d_230_57)">
<rect x="1284" y="1445.01" width="170.098" height="33" rx="16.5" transform="rotate(-90 1284 1445.01)" stroke="white" stroke-width="6" shape-rendering="crispEdges"/>
</g>
<g filter="url(#filter9_d_230_57)">
<path d="M1299 1410.88V1301.59C1299 1300.71 1299.71 1300 1300.59 1300C1301.47 1300 1302.18 1300.71 1302.18 1301.59V1410.88C1302.18 1411.75 1301.47 1412.47 1300.59 1412.47C1299.71 1412.47 1299 1411.75 1299 1410.88Z" stroke="white" stroke-width="6" shape-rendering="crispEdges"/>
</g>
<g filter="url(#filter10_f_230_57)">
<path d="M1230.09 1272.19C1229.79 1271.86 1229.5 1271.51 1229.22 1271.15C1221.13 1260.77 1222.82 1262.6 1230.09 1272.19C1253.91 1298.33 1323.53 1207.94 1324.33 1254.76C1324.78 1281.23 1306.1 1319.18 1287.9 1355.05C1334.53 1428.46 1372.23 1510.97 1261.86 1454.28C1241.81 1443.99 1264.46 1401.24 1287.9 1355.05C1265.6 1319.94 1241.26 1286.91 1230.09 1272.19Z" fill="white" fill-opacity="0.18"/>
</g>
<g filter="url(#filter11_f_230_57)">
<path d="M126.322 909.786C110.003 909.919 117.747 906.555 135.977 901.5C81.4219 887.678 -101.733 860.508 50.379 850.757C87.3937 848.384 114.253 855.531 242.045 858.965C315.402 860.936 186.082 887.606 135.977 901.5C155.03 906.327 158.398 909.526 126.322 909.786Z" fill="#FF0000" fill-opacity="0.6"/>
<path d="M126.322 909.786C110.003 909.919 117.747 906.555 135.977 901.5C81.4219 887.678 -101.733 860.508 50.379 850.757C87.3937 848.384 114.253 855.531 242.045 858.965C315.402 860.936 186.082 887.606 135.977 901.5C155.03 906.327 158.398 909.526 126.322 909.786Z" fill="#FF0000" fill-opacity="0.6"/>
<path d="M126.322 909.786C110.003 909.919 117.747 906.555 135.977 901.5C81.4219 887.678 -101.733 860.508 50.379 850.757C87.3937 848.384 114.253 855.531 242.045 858.965C315.402 860.936 186.082 887.606 135.977 901.5C155.03 906.327 158.398 909.526 126.322 909.786Z" fill="#FF0000" fill-opacity="0.6"/>
<path d="M126.322 909.786C110.003 909.919 117.747 906.555 135.977 901.5C81.4219 887.678 -101.733 860.508 50.379 850.757C87.3937 848.384 114.253 855.531 242.045 858.965C315.402 860.936 186.082 887.606 135.977 901.5C155.03 906.327 158.398 909.526 126.322 909.786Z" fill="#FF0000" fill-opacity="0.6"/>
<path d="M126.322 909.786C110.003 909.919 117.747 906.555 135.977 901.5C81.4219 887.678 -101.733 860.508 50.379 850.757C87.3937 848.384 114.253 855.531 242.045 858.965C315.402 860.936 186.082 887.606 135.977 901.5C155.03 906.327 158.398 909.526 126.322 909.786Z" fill="#FF0000" fill-opacity="0.6"/>
<path d="M126.322 909.786C110.003 909.919 117.747 906.555 135.977 901.5C81.4219 887.678 -101.733 860.508 50.379 850.757C87.3937 848.384 114.253 855.531 242.045 858.965C315.402 860.936 186.082 887.606 135.977 901.5C155.03 906.327 158.398 909.526 126.322 909.786Z" fill="#FF0000" fill-opacity="0.6"/>
<path d="M126.322 909.786C110.003 909.919 117.747 906.555 135.977 901.5C81.4219 887.678 -101.733 860.508 50.379 850.757C87.3937 848.384 114.253 855.531 242.045 858.965C315.402 860.936 186.082 887.606 135.977 901.5C155.03 906.327 158.398 909.526 126.322 909.786Z" fill="#FF0000" fill-opacity="0.6"/>
<path d="M126.322 909.786C110.003 909.919 117.747 906.555 135.977 901.5C81.4219 887.678 -101.733 860.508 50.379 850.757C87.3937 848.384 114.253 855.531 242.045 858.965C315.402 860.936 186.082 887.606 135.977 901.5C155.03 906.327 158.398 909.526 126.322 909.786Z" fill="#FF0000" fill-opacity="0.6"/>
<path d="M126.322 909.786C110.003 909.919 117.747 906.555 135.977 901.5C81.4219 887.678 -101.733 860.508 50.379 850.757C87.3937 848.384 114.253 855.531 242.045 858.965C315.402 860.936 186.082 887.606 135.977 901.5C155.03 906.327 158.398 909.526 126.322 909.786Z" fill="#FF0000" fill-opacity="0.6"/>
</g>
<g filter="url(#filter12_f_230_57)">
<path d="M1093.28 2768.44C1155.97 2764.31 1196.88 2741.18 1236.67 2687.34C1317.28 2578.28 846.291 2543.64 911.884 2663.45C953.243 2739 1013.22 2773.71 1093.28 2768.44Z" fill="white" fill-opacity="0.2"/>
</g>
<g filter="url(#filter13_f_230_57)">
<path d="M697.57 407.616C841.443 411.47 1047.19 399.529 1029.49 417.809C999.414 448.884 419.396 465.496 418.697 398.307C418.632 392.094 513.799 402.693 697.57 407.616Z" fill="white" fill-opacity="0.15"/>
</g>
<g filter="url(#filter14_f_230_57)">
<path d="M1195.32 872.721C1178.99 873.212 1186.8 867.741 1205.13 859.406C1150.78 838.414 968.001 798.456 1120.36 780.363C1157.43 775.96 1184.18 786.838 1311.98 790.086C1385.34 791.95 1255.5 836.497 1205.13 859.406C1224.11 866.737 1227.42 871.755 1195.32 872.721Z" fill="#0047FF" fill-opacity="0.6"/>
</g>
<g filter="url(#filter15_f_230_57)">
<path d="M205.324 1608C188.99 1608.65 196.823 1602.23 215.193 1592.42C160.943 1568.2 -21.6678 1522.49 130.8 1500.64C167.901 1495.32 194.601 1507.88 322.401 1511.04C395.763 1512.86 265.682 1565.45 215.193 1592.42C234.139 1600.88 237.43 1606.72 205.324 1608Z" fill="#0047FF" fill-opacity="0.6"/>
</g>
<g filter="url(#filter16_dd_230_57)">
<path d="M614.719 510.492H603.188V533.273H614.719V510.492ZM618.445 491.508H635.18L635.355 491.473C636.387 491.473 637.266 491.109 637.992 490.383C638.719 489.656 639.082 488.777 639.082 487.746C639.082 486.715 638.719 485.836 637.992 485.109C637.266 484.383 636.387 484.02 635.355 484.02L618.445 483.984V491.508ZM651.457 471.645C655.887 476.098 658.102 481.453 658.102 487.711C658.102 493.734 656.027 498.938 651.879 503.32C647.73 507.68 642.668 510.035 636.691 510.387C636.48 510.457 636.27 510.492 636.059 510.492H618.445V535.137C618.445 535.652 618.258 536.098 617.883 536.473C617.531 536.824 617.098 537 616.582 537H601.324C600.809 537 600.363 536.824 599.988 536.473C599.637 536.098 599.461 535.652 599.461 535.137V508.629C599.461 508.113 599.637 507.68 599.988 507.328C600.363 506.953 600.809 506.766 601.324 506.766H634.898C635.086 506.719 635.25 506.695 635.391 506.695C640.641 506.695 645.117 504.844 648.82 501.141C652.547 497.414 654.41 492.938 654.41 487.711C654.41 482.461 652.547 477.984 648.82 474.281C645.117 470.578 640.641 468.727 635.391 468.727H603.188V491.508H614.719V482.121C614.719 481.605 614.906 481.172 615.281 480.82C615.633 480.445 616.066 480.258 616.582 480.258L635.355 480.293C637.418 480.293 639.176 481.02 640.629 482.473C642.082 483.949 642.809 485.707 642.809 487.746C642.809 489.738 642.117 491.449 640.734 492.879C639.375 494.309 637.711 495.082 635.742 495.199C635.602 495.223 635.473 495.234 635.355 495.234H601.324C600.809 495.234 600.363 495.047 599.988 494.672C599.637 494.32 599.461 493.887 599.461 493.371V466.863C599.461 466.348 599.637 465.902 599.988 465.527C600.363 465.176 600.809 465 601.324 465H635.391C641.648 465 647.004 467.215 651.457 471.645ZM705.422 535.559C705.305 535.066 705.387 534.598 705.668 534.152C705.926 533.707 706.312 533.438 706.828 533.344C714.281 531.609 720.375 527.777 725.109 521.848C729.844 515.918 732.211 509.109 732.211 501.422C732.211 492.398 729.012 484.688 722.613 478.289C716.215 471.891 708.504 468.691 699.48 468.691C690.457 468.691 682.746 471.891 676.348 478.289C669.949 484.688 666.75 492.398 666.75 501.422C666.75 508.688 668.883 515.203 673.148 520.969C677.414 526.711 682.98 530.625 689.848 532.711V520.02C686.379 518.238 683.625 515.672 681.586 512.32C679.547 508.969 678.527 505.336 678.527 501.422C678.527 495.656 680.578 490.734 684.68 486.656C688.758 482.555 693.691 480.504 699.48 480.504C705.246 480.504 710.168 482.555 714.246 486.656C718.348 490.734 720.398 495.656 720.398 501.422C720.398 505.547 719.273 509.344 717.023 512.812C714.773 516.281 711.762 518.859 707.988 520.547C707.52 520.758 707.039 520.77 706.547 520.582C706.078 520.395 705.738 520.066 705.527 519.598C705.316 519.129 705.305 518.66 705.492 518.191C705.68 517.723 706.008 517.383 706.477 517.172C709.57 515.789 712.043 513.668 713.895 510.809C715.746 507.949 716.672 504.82 716.672 501.422C716.672 496.688 714.996 492.633 711.645 489.258C708.27 485.906 704.215 484.23 699.48 484.23C694.723 484.23 690.656 485.906 687.281 489.258C683.93 492.633 682.254 496.688 682.254 501.422C682.254 504.82 683.18 507.949 685.031 510.809C686.883 513.668 689.355 515.789 692.449 517.172C693.199 517.5 693.574 518.062 693.574 518.859V535.137C693.574 535.746 693.34 536.227 692.871 536.578C692.402 536.953 691.875 537.082 691.289 536.965C683.109 535.09 676.371 530.871 671.074 524.309C665.707 517.629 663.023 510 663.023 501.422C663.023 491.391 666.586 482.812 673.711 475.688C680.836 468.562 689.426 465 699.48 465C709.512 465 718.09 468.562 725.215 475.688C732.34 482.812 735.902 491.391 735.902 501.422C735.902 510 733.219 517.629 727.852 524.309C722.555 530.871 715.816 535.09 707.637 536.965C707.496 536.988 707.355 537 707.215 537C706.23 537 705.633 536.52 705.422 535.559ZM799.641 532.992L782.66 510.844C782.566 510.75 782.496 510.633 782.449 510.492H768L785.086 532.992H799.641ZM750.492 533.273H762.023V510.492H750.492V533.273ZM765.75 491.508H782.484L782.66 491.473C783.691 491.473 784.57 491.109 785.297 490.383C786.023 489.656 786.387 488.777 786.387 487.746C786.387 486.715 786.023 485.836 785.297 485.109C784.57 484.383 783.691 484.02 782.66 484.02L765.75 483.984V491.508ZM804.879 533.73C805.348 534.34 805.406 534.996 805.055 535.699C804.727 536.379 804.176 536.719 803.402 536.719H784.137C783.527 536.719 783.035 536.473 782.66 535.98L765.75 513.691V535.137C765.75 535.652 765.562 536.098 765.188 536.473C764.836 536.824 764.402 537 763.887 537H748.629C748.113 537 747.668 536.824 747.293 536.473C746.941 536.098 746.766 535.652 746.766 535.137V508.629C746.766 508.113 746.941 507.68 747.293 507.328C747.668 506.953 748.113 506.766 748.629 506.766H782.203C782.391 506.719 782.555 506.695 782.695 506.695C787.945 506.695 792.422 504.844 796.125 501.141C799.852 497.414 801.715 492.938 801.715 487.711C801.715 482.461 799.852 477.984 796.125 474.281C792.422 470.578 787.945 468.727 782.695 468.727C782.719 468.727 782.719 468.727 782.695 468.727C782.672 468.727 782.66 468.727 782.66 468.727H750.492V491.508H762.023V482.121C762.023 481.605 762.211 481.172 762.586 480.82C762.938 480.445 763.371 480.258 763.887 480.258L782.66 480.293C784.723 480.293 786.48 481.02 787.934 482.473C789.387 483.949 790.113 485.707 790.113 487.746C790.113 489.738 789.422 491.449 788.039 492.879C786.68 494.309 785.016 495.082 783.047 495.199C782.906 495.223 782.777 495.234 782.66 495.234H748.629C748.113 495.234 747.668 495.047 747.293 494.672C746.941 494.32 746.766 493.887 746.766 493.371V466.863C746.766 466.348 746.941 465.902 747.293 465.527C747.668 465.176 748.113 465 748.629 465H782.66C782.66 465 782.672 465 782.695 465C782.719 465 782.719 465 782.695 465C788.953 465 794.309 467.215 798.762 471.645C803.191 476.098 805.406 481.453 805.406 487.711C805.406 493.242 803.625 498.117 800.062 502.336C796.523 506.531 792.082 509.109 786.738 510.07L804.879 533.73ZM888.023 468.727H863.449V480.328H888.023V468.727ZM819.82 480.328H844.395V468.727H819.82V480.328ZM889.887 465C890.402 465 890.836 465.176 891.188 465.527C891.562 465.902 891.75 466.348 891.75 466.863V482.191C891.75 482.684 891.562 483.117 891.188 483.492C890.836 483.844 890.402 484.02 889.887 484.02H863.449V535.137C863.449 535.652 863.262 536.098 862.887 536.473C862.535 536.824 862.102 537 861.586 537H846.258C845.742 537 845.309 536.824 844.957 536.473C844.582 536.098 844.395 535.652 844.395 535.137V484.02H817.957C817.441 484.02 816.996 483.844 816.621 483.492C816.27 483.117 816.094 482.684 816.094 482.191V466.863C816.094 466.348 816.27 465.902 816.621 465.527C816.996 465.176 817.441 465 817.957 465H846.258C846.773 465 847.207 465.176 847.559 465.527C847.934 465.902 848.121 466.348 848.121 466.863V533.273H859.723V466.863C859.723 466.348 859.91 465.902 860.285 465.527C860.637 465.176 861.07 465 861.586 465H889.887ZM958.02 468.727H906.797V491.508H918.328V482.121C918.328 481.605 918.516 481.172 918.891 480.82C919.242 480.445 919.676 480.258 920.191 480.258H958.02V468.727ZM918.328 510.492H906.797V533.273H918.328V510.492ZM959.848 465C960.363 465 960.809 465.176 961.184 465.527C961.535 465.902 961.711 466.348 961.711 466.863V482.121C961.711 482.637 961.535 483.082 961.184 483.457C960.809 483.809 960.363 483.984 959.848 483.984H922.055V491.508H944.73C945.246 491.508 945.691 491.684 946.066 492.035C946.418 492.41 946.594 492.855 946.594 493.371V508.629C946.594 509.145 946.418 509.59 946.066 509.965C945.691 510.316 945.246 510.492 944.73 510.492H922.055V535.137C922.055 535.652 921.867 536.098 921.492 536.473C921.141 536.824 920.707 537 920.191 537H904.934C904.418 537 903.973 536.824 903.598 536.473C903.246 536.098 903.07 535.652 903.07 535.137V508.629C903.07 508.113 903.246 507.68 903.598 507.328C903.973 506.953 904.418 506.766 904.934 506.766H942.867V495.234H904.934C904.418 495.234 903.973 495.047 903.598 494.672C903.246 494.32 903.07 493.887 903.07 493.371V466.863C903.07 466.348 903.246 465.902 903.598 465.527C903.973 465.176 904.418 465 904.934 465H959.848ZM1009.03 535.559C1008.91 535.066 1009 534.598 1009.28 534.152C1009.54 533.707 1009.92 533.438 1010.44 533.344C1017.89 531.609 1023.98 527.777 1028.72 521.848C1033.45 515.918 1035.82 509.109 1035.82 501.422C1035.82 492.398 1032.62 484.688 1026.22 478.289C1019.82 471.891 1012.11 468.691 1003.09 468.691C994.066 468.691 986.355 471.891 979.957 478.289C973.559 484.688 970.359 492.398 970.359 501.422C970.359 508.688 972.492 515.203 976.758 520.969C981.023 526.711 986.59 530.625 993.457 532.711V520.02C989.988 518.238 987.234 515.672 985.195 512.32C983.156 508.969 982.137 505.336 982.137 501.422C982.137 495.656 984.188 490.734 988.289 486.656C992.367 482.555 997.301 480.504 1003.09 480.504C1008.86 480.504 1013.78 482.555 1017.86 486.656C1021.96 490.734 1024.01 495.656 1024.01 501.422C1024.01 505.547 1022.88 509.344 1020.63 512.812C1018.38 516.281 1015.37 518.859 1011.6 520.547C1011.13 520.758 1010.65 520.77 1010.16 520.582C1009.69 520.395 1009.35 520.066 1009.14 519.598C1008.93 519.129 1008.91 518.66 1009.1 518.191C1009.29 517.723 1009.62 517.383 1010.09 517.172C1013.18 515.789 1015.65 513.668 1017.5 510.809C1019.36 507.949 1020.28 504.82 1020.28 501.422C1020.28 496.688 1018.61 492.633 1015.25 489.258C1011.88 485.906 1007.82 484.23 1003.09 484.23C998.332 484.23 994.266 485.906 990.891 489.258C987.539 492.633 985.863 496.688 985.863 501.422C985.863 504.82 986.789 507.949 988.641 510.809C990.492 513.668 992.965 515.789 996.059 517.172C996.809 517.5 997.184 518.062 997.184 518.859V535.137C997.184 535.746 996.949 536.227 996.48 536.578C996.012 536.953 995.484 537.082 994.898 536.965C986.719 535.09 979.98 530.871 974.684 524.309C969.316 517.629 966.633 510 966.633 501.422C966.633 491.391 970.195 482.812 977.32 475.688C984.445 468.562 993.035 465 1003.09 465C1013.12 465 1021.7 468.562 1028.82 475.688C1035.95 482.812 1039.51 491.391 1039.51 501.422C1039.51 510 1036.83 517.629 1031.46 524.309C1026.16 530.871 1019.43 535.09 1011.25 536.965C1011.11 536.988 1010.96 537 1010.82 537C1009.84 537 1009.24 536.52 1009.03 535.559ZM1103.04 521.672H1069.39V533.273H1103.04V521.672ZM1104.87 517.98C1105.38 517.98 1105.83 518.156 1106.2 518.508C1106.55 518.883 1106.73 519.316 1106.73 519.809V535.137C1106.73 535.652 1106.55 536.098 1106.2 536.473C1105.83 536.824 1105.38 537 1104.87 537H1067.57C1067.05 537 1066.61 536.824 1066.23 536.473C1065.88 536.098 1065.7 535.652 1065.7 535.137V468.727H1054.1V535.137C1054.1 535.652 1053.91 536.098 1053.54 536.473C1053.19 536.824 1052.75 537 1052.24 537C1051.72 537 1051.28 536.824 1050.9 536.473C1050.55 536.098 1050.38 535.652 1050.38 535.137V466.863C1050.38 466.348 1050.55 465.902 1050.9 465.527C1051.28 465.176 1051.72 465 1052.24 465H1067.57C1068.06 465 1068.49 465.176 1068.87 465.527C1069.22 465.902 1069.39 466.348 1069.39 466.863V517.98H1104.87ZM1119.32 537C1118.8 537 1118.36 536.824 1117.98 536.473C1117.63 536.098 1117.45 535.652 1117.45 535.137V466.863C1117.45 466.348 1117.63 465.902 1117.98 465.527C1118.36 465.176 1118.8 465 1119.32 465C1119.83 465 1120.27 465.176 1120.62 465.527C1120.99 465.902 1121.18 466.348 1121.18 466.863V533.273H1132.78V466.863C1132.78 466.348 1132.96 465.902 1133.31 465.527C1133.68 465.176 1134.13 465 1134.64 465C1135.14 465 1135.57 465.176 1135.95 465.527C1136.3 465.902 1136.47 466.348 1136.47 466.863V535.137C1136.47 535.652 1136.3 536.098 1135.95 536.473C1135.57 536.824 1135.14 537 1134.64 537H1119.32ZM1189.31 535.559C1189.2 535.066 1189.28 534.598 1189.56 534.152C1189.82 533.707 1190.2 533.438 1190.72 533.344C1198.17 531.609 1204.27 527.777 1209 521.848C1213.73 515.918 1216.1 509.109 1216.1 501.422C1216.1 492.398 1212.9 484.688 1206.5 478.289C1200.11 471.891 1192.39 468.691 1183.37 468.691C1174.35 468.691 1166.64 471.891 1160.24 478.289C1153.84 484.688 1150.64 492.398 1150.64 501.422C1150.64 508.688 1152.77 515.203 1157.04 520.969C1161.3 526.711 1166.87 530.625 1173.74 532.711V520.02C1170.27 518.238 1167.52 515.672 1165.48 512.32C1163.44 508.969 1162.42 505.336 1162.42 501.422C1162.42 495.656 1164.47 490.734 1168.57 486.656C1172.65 482.555 1177.58 480.504 1183.37 480.504C1189.14 480.504 1194.06 482.555 1198.14 486.656C1202.24 490.734 1204.29 495.656 1204.29 501.422C1204.29 505.547 1203.16 509.344 1200.91 512.812C1198.66 516.281 1195.65 518.859 1191.88 520.547C1191.41 520.758 1190.93 520.77 1190.44 520.582C1189.97 520.395 1189.63 520.066 1189.42 519.598C1189.21 519.129 1189.2 518.66 1189.38 518.191C1189.57 517.723 1189.9 517.383 1190.37 517.172C1193.46 515.789 1195.93 513.668 1197.79 510.809C1199.64 507.949 1200.56 504.82 1200.56 501.422C1200.56 496.688 1198.89 492.633 1195.54 489.258C1192.16 485.906 1188.11 484.23 1183.37 484.23C1178.61 484.23 1174.55 485.906 1171.17 489.258C1167.82 492.633 1166.14 496.688 1166.14 501.422C1166.14 504.82 1167.07 507.949 1168.92 510.809C1170.77 513.668 1173.25 515.789 1176.34 517.172C1177.09 517.5 1177.46 518.062 1177.46 518.859V535.137C1177.46 535.746 1177.23 536.227 1176.76 536.578C1176.29 536.953 1175.77 537.082 1175.18 536.965C1167 535.09 1160.26 530.871 1154.96 524.309C1149.6 517.629 1146.91 510 1146.91 501.422C1146.91 491.391 1150.48 482.812 1157.6 475.688C1164.73 468.562 1173.32 465 1183.37 465C1193.4 465 1201.98 468.562 1209.11 475.688C1216.23 482.812 1219.79 491.391 1219.79 501.422C1219.79 510 1217.11 517.629 1211.74 524.309C1206.45 530.871 1199.71 535.09 1191.53 536.965C1191.39 536.988 1191.25 537 1191.11 537C1190.12 537 1189.52 536.52 1189.31 535.559Z" fill="white"/>
</g>
<g filter="url(#filter17_d_230_57)">
<path d="M321.859 419.898H302.746V428.922H321.859V419.898ZM268.812 428.922H287.926V419.898H268.812V428.922ZM323.309 417C323.71 417 324.047 417.137 324.32 417.41C324.612 417.702 324.758 418.048 324.758 418.449V430.371C324.758 430.754 324.612 431.091 324.32 431.383C324.047 431.656 323.71 431.793 323.309 431.793H302.746V471.551C302.746 471.952 302.6 472.298 302.309 472.59C302.035 472.863 301.698 473 301.297 473H289.375C288.974 473 288.637 472.863 288.363 472.59C288.072 472.298 287.926 471.952 287.926 471.551V431.793H267.363C266.962 431.793 266.616 431.656 266.324 431.383C266.051 431.091 265.914 430.754 265.914 430.371V418.449C265.914 418.048 266.051 417.702 266.324 417.41C266.616 417.137 266.962 417 267.363 417H289.375C289.776 417 290.113 417.137 290.387 417.41C290.678 417.702 290.824 418.048 290.824 418.449V470.102H299.848V418.449C299.848 418.048 299.993 417.702 300.285 417.41C300.559 417.137 300.896 417 301.297 417H323.309ZM345.43 437.617V430.316C345.43 429.915 345.576 429.578 345.867 429.305C346.141 429.013 346.478 428.867 346.879 428.867H376.301V419.898H336.461V437.617H345.43ZM346.879 461.133C346.478 461.133 346.141 460.987 345.867 460.695C345.576 460.422 345.43 460.085 345.43 459.684V452.383H336.461V470.102H376.301V461.133H346.879ZM348.328 431.766V437.617H365.965C366.366 437.617 366.712 437.754 367.004 438.027C367.277 438.319 367.414 438.665 367.414 439.066V450.934C367.414 451.335 367.277 451.681 367.004 451.973C366.712 452.246 366.366 452.383 365.965 452.383H348.328V458.234H377.723C378.124 458.234 378.47 458.371 378.762 458.645C379.035 458.936 379.172 459.283 379.172 459.684V471.551C379.172 471.952 379.035 472.298 378.762 472.59C378.47 472.863 378.124 473 377.723 473H335.012C334.611 473 334.264 472.863 333.973 472.59C333.699 472.298 333.562 471.952 333.562 471.551V450.934C333.562 450.533 333.699 450.195 333.973 449.922C334.264 449.63 334.611 449.484 335.012 449.484H364.516V440.516H335.012C334.611 440.516 334.264 440.37 333.973 440.078C333.699 439.805 333.562 439.467 333.562 439.066V418.449C333.562 418.048 333.699 417.702 333.973 417.41C334.264 417.137 334.611 417 335.012 417H377.723C378.124 417 378.47 417.137 378.762 417.41C379.035 417.702 379.172 418.048 379.172 418.449V430.316C379.172 430.717 379.035 431.064 378.762 431.355C378.47 431.629 378.124 431.766 377.723 431.766H348.328ZM411 473C403.289 473 396.69 470.266 391.203 464.797C385.734 459.31 383 452.711 383 445C383 437.289 385.734 430.69 391.203 425.203C396.69 419.734 403.289 417 411 417H426.203C426.604 417 426.951 417.137 427.242 417.41C427.516 417.702 427.652 418.048 427.652 418.449C427.652 418.85 427.516 419.188 427.242 419.461C426.951 419.753 426.604 419.898 426.203 419.898H411C404.073 419.898 398.158 422.35 393.254 427.254C388.35 432.158 385.898 438.073 385.898 445C385.898 451.927 388.35 457.842 393.254 462.746C398.158 467.65 404.073 470.102 411 470.102H424.781V460.012H409.824C405.686 460.012 402.15 458.544 399.215 455.609C396.28 452.674 394.812 449.138 394.812 445C394.812 440.862 396.28 437.326 399.215 434.391C402.15 431.456 405.686 429.988 409.824 429.988H426.203C426.604 429.988 426.951 430.134 427.242 430.426C427.516 430.699 427.652 431.036 427.652 431.438C427.652 431.839 427.516 432.185 427.242 432.477C426.951 432.75 426.604 432.887 426.203 432.887H409.824C406.488 432.887 403.635 434.072 401.266 436.441C398.896 438.811 397.711 441.664 397.711 445C397.711 448.336 398.896 451.189 401.266 453.559C403.635 455.928 406.488 457.113 409.824 457.113H426.203C426.604 457.113 426.951 457.25 427.242 457.523C427.516 457.815 427.652 458.161 427.652 458.562V471.551C427.652 471.952 427.516 472.298 427.242 472.59C426.951 472.863 426.604 473 426.203 473H411ZM447.969 452.41H438.945V470.102H447.969V452.41ZM447.969 419.898H438.945V437.59H447.969V419.898ZM484.637 417C485.038 417 485.375 417.137 485.648 417.41C485.94 417.702 486.086 418.048 486.086 418.449V471.551C486.086 471.952 485.94 472.298 485.648 472.59C485.375 472.863 485.038 473 484.637 473H472.715C472.314 473 471.977 472.863 471.703 472.59C471.411 472.298 471.266 471.952 471.266 471.551V452.41H450.867V471.551C450.867 471.952 450.721 472.298 450.43 472.59C450.156 472.863 449.819 473 449.418 473H437.496C437.095 473 436.749 472.863 436.457 472.59C436.184 472.298 436.047 471.952 436.047 471.551V450.961C436.047 450.56 436.184 450.223 436.457 449.949C436.749 449.658 437.095 449.512 437.496 449.512H472.715C473.116 449.512 473.453 449.658 473.727 449.949C474.018 450.223 474.164 450.56 474.164 450.961V470.102H483.188V419.898H474.164V439.039C474.164 439.44 474.018 439.777 473.727 440.051C473.453 440.342 473.116 440.488 472.715 440.488H437.496C437.095 440.488 436.749 440.342 436.457 440.051C436.184 439.777 436.047 439.44 436.047 439.039V418.449C436.047 418.048 436.184 417.702 436.457 417.41C436.749 417.137 437.095 417 437.496 417H449.418C449.819 417 450.156 417.137 450.43 417.41C450.721 417.702 450.867 418.048 450.867 418.449V437.59H471.266V418.449C471.266 418.048 471.411 417.702 471.703 417.41C471.977 417.137 472.314 417 472.715 417H484.637ZM321.859 547.898H302.746V556.922H321.859V547.898ZM268.812 556.922H287.926V547.898H268.812V556.922ZM323.309 545C323.71 545 324.047 545.137 324.32 545.41C324.612 545.702 324.758 546.048 324.758 546.449V558.371C324.758 558.754 324.612 559.091 324.32 559.383C324.047 559.656 323.71 559.793 323.309 559.793H302.746V599.551C302.746 599.952 302.6 600.298 302.309 600.59C302.035 600.863 301.698 601 301.297 601H289.375C288.974 601 288.637 600.863 288.363 600.59C288.072 600.298 287.926 599.952 287.926 599.551V559.793H267.363C266.962 559.793 266.616 559.656 266.324 559.383C266.051 559.091 265.914 558.754 265.914 558.371V546.449C265.914 546.048 266.051 545.702 266.324 545.41C266.616 545.137 266.962 545 267.363 545H289.375C289.776 545 290.113 545.137 290.387 545.41C290.678 545.702 290.824 546.048 290.824 546.449V598.102H299.848V546.449C299.848 546.048 299.993 545.702 300.285 545.41C300.559 545.137 300.896 545 301.297 545H323.309ZM374.688 597.883L361.48 580.656C361.408 580.583 361.353 580.492 361.316 580.383H350.078L363.367 597.883H374.688ZM336.461 598.102H345.43V580.383H336.461V598.102ZM348.328 565.617H361.344L361.48 565.59C362.283 565.59 362.966 565.307 363.531 564.742C364.096 564.177 364.379 563.493 364.379 562.691C364.379 561.889 364.096 561.206 363.531 560.641C362.966 560.076 362.283 559.793 361.48 559.793L348.328 559.766V565.617ZM378.762 598.457C379.126 598.931 379.172 599.441 378.898 599.988C378.643 600.517 378.215 600.781 377.613 600.781H362.629C362.155 600.781 361.772 600.59 361.48 600.207L348.328 582.871V599.551C348.328 599.952 348.182 600.298 347.891 600.59C347.617 600.863 347.28 601 346.879 601H335.012C334.611 601 334.264 600.863 333.973 600.59C333.699 600.298 333.562 599.952 333.562 599.551V578.934C333.562 578.533 333.699 578.195 333.973 577.922C334.264 577.63 334.611 577.484 335.012 577.484H361.125C361.271 577.448 361.398 577.43 361.508 577.43C365.591 577.43 369.073 575.99 371.953 573.109C374.852 570.211 376.301 566.729 376.301 562.664C376.301 558.581 374.852 555.099 371.953 552.219C369.073 549.339 365.591 547.898 361.508 547.898C361.526 547.898 361.526 547.898 361.508 547.898C361.49 547.898 361.48 547.898 361.48 547.898H336.461V565.617H345.43V558.316C345.43 557.915 345.576 557.578 345.867 557.305C346.141 557.013 346.478 556.867 346.879 556.867L361.48 556.895C363.085 556.895 364.452 557.46 365.582 558.59C366.712 559.738 367.277 561.105 367.277 562.691C367.277 564.241 366.74 565.572 365.664 566.684C364.607 567.796 363.312 568.397 361.781 568.488C361.672 568.507 361.572 568.516 361.48 568.516H335.012C334.611 568.516 334.264 568.37 333.973 568.078C333.699 567.805 333.562 567.467 333.562 567.066V546.449C333.562 546.048 333.699 545.702 333.973 545.41C334.264 545.137 334.611 545 335.012 545H361.48C361.48 545 361.49 545 361.508 545C361.526 545 361.526 545 361.508 545C366.375 545 370.54 546.723 374.004 550.168C377.449 553.632 379.172 557.797 379.172 562.664C379.172 566.966 377.786 570.758 375.016 574.039C372.263 577.302 368.809 579.307 364.652 580.055L378.762 598.457ZM399.352 565.617V558.316C399.352 557.915 399.497 557.578 399.789 557.305C400.062 557.013 400.4 556.867 400.801 556.867H430.223V547.898H390.383V565.617H399.352ZM400.801 589.133C400.4 589.133 400.062 588.987 399.789 588.695C399.497 588.422 399.352 588.085 399.352 587.684V580.383H390.383V598.102H430.223V589.133H400.801ZM402.25 559.766V565.617H419.887C420.288 565.617 420.634 565.754 420.926 566.027C421.199 566.319 421.336 566.665 421.336 567.066V578.934C421.336 579.335 421.199 579.681 420.926 579.973C420.634 580.246 420.288 580.383 419.887 580.383H402.25V586.234H431.645C432.046 586.234 432.392 586.371 432.684 586.645C432.957 586.936 433.094 587.283 433.094 587.684V599.551C433.094 599.952 432.957 600.298 432.684 600.59C432.392 600.863 432.046 601 431.645 601H388.934C388.533 601 388.186 600.863 387.895 600.59C387.621 600.298 387.484 599.952 387.484 599.551V578.934C387.484 578.533 387.621 578.195 387.895 577.922C388.186 577.63 388.533 577.484 388.934 577.484H418.438V568.516H388.934C388.533 568.516 388.186 568.37 387.895 568.078C387.621 567.805 387.484 567.467 387.484 567.066V546.449C387.484 546.048 387.621 545.702 387.895 545.41C388.186 545.137 388.533 545 388.934 545H431.645C432.046 545 432.392 545.137 432.684 545.41C432.957 545.702 433.094 546.048 433.094 546.449V558.316C433.094 558.717 432.957 559.064 432.684 559.355C432.392 559.629 432.046 559.766 431.645 559.766H402.25ZM453.219 565.617V558.316C453.219 557.915 453.365 557.578 453.656 557.305C453.93 557.013 454.267 556.867 454.668 556.867H484.09V547.898H444.25V565.617H453.219ZM454.668 589.133C454.267 589.133 453.93 588.987 453.656 588.695C453.365 588.422 453.219 588.085 453.219 587.684V580.383H444.25V598.102H484.09V589.133H454.668ZM456.117 559.766V565.617H473.754C474.155 565.617 474.501 565.754 474.793 566.027C475.066 566.319 475.203 566.665 475.203 567.066V578.934C475.203 579.335 475.066 579.681 474.793 579.973C474.501 580.246 474.155 580.383 473.754 580.383H456.117V586.234H485.512C485.913 586.234 486.259 586.371 486.551 586.645C486.824 586.936 486.961 587.283 486.961 587.684V599.551C486.961 599.952 486.824 600.298 486.551 600.59C486.259 600.863 485.913 601 485.512 601H442.801C442.4 601 442.053 600.863 441.762 600.59C441.488 600.298 441.352 599.952 441.352 599.551V578.934C441.352 578.533 441.488 578.195 441.762 577.922C442.053 577.63 442.4 577.484 442.801 577.484H472.305V568.516H442.801C442.4 568.516 442.053 568.37 441.762 568.078C441.488 567.805 441.352 567.467 441.352 567.066V546.449C441.352 546.048 441.488 545.702 441.762 545.41C442.053 545.137 442.4 545 442.801 545H485.512C485.913 545 486.259 545.137 486.551 545.41C486.824 545.702 486.961 546.048 486.961 546.449V558.316C486.961 558.717 486.824 559.064 486.551 559.355C486.259 559.629 485.913 559.766 485.512 559.766H456.117Z" fill="white"/>
</g>
<g filter="url(#filter18_f_230_57)">
<path d="M1278.8 1435.85C1269.33 1437.17 1274.02 1427.89 1284.89 1413.55C1254.09 1380.6 1149.54 1320.38 1238.31 1285.71C1259.91 1277.27 1275.05 1294.39 1348.93 1295.72C1391.34 1296.49 1314.77 1374.14 1284.89 1413.55C1295.65 1425.06 1297.41 1433.24 1278.8 1435.85Z" fill="#FF0000" fill-opacity="0.6"/>
<path d="M1278.8 1435.85C1269.33 1437.17 1274.02 1427.89 1284.89 1413.55C1254.09 1380.6 1149.54 1320.38 1238.31 1285.71C1259.91 1277.27 1275.05 1294.39 1348.93 1295.72C1391.34 1296.49 1314.77 1374.14 1284.89 1413.55C1295.65 1425.06 1297.41 1433.24 1278.8 1435.85Z" fill="#FF0000" fill-opacity="0.6"/>
<path d="M1278.8 1435.85C1269.33 1437.17 1274.02 1427.89 1284.89 1413.55C1254.09 1380.6 1149.54 1320.38 1238.31 1285.71C1259.91 1277.27 1275.05 1294.39 1348.93 1295.72C1391.34 1296.49 1314.77 1374.14 1284.89 1413.55C1295.65 1425.06 1297.41 1433.24 1278.8 1435.85Z" fill="#FF0000" fill-opacity="0.6"/>
<path d="M1278.8 1435.85C1269.33 1437.17 1274.02 1427.89 1284.89 1413.55C1254.09 1380.6 1149.54 1320.38 1238.31 1285.71C1259.91 1277.27 1275.05 1294.39 1348.93 1295.72C1391.34 1296.49 1314.77 1374.14 1284.89 1413.55C1295.65 1425.06 1297.41 1433.24 1278.8 1435.85Z" fill="#FF0000" fill-opacity="0.6"/>
<path d="M1278.8 1435.85C1269.33 1437.17 1274.02 1427.89 1284.89 1413.55C1254.09 1380.6 1149.54 1320.38 1238.31 1285.71C1259.91 1277.27 1275.05 1294.39 1348.93 1295.72C1391.34 1296.49 1314.77 1374.14 1284.89 1413.55C1295.65 1425.06 1297.41 1433.24 1278.8 1435.85Z" fill="#FF0000" fill-opacity="0.6"/>
<path d="M1278.8 1435.85C1269.33 1437.17 1274.02 1427.89 1284.89 1413.55C1254.09 1380.6 1149.54 1320.38 1238.31 1285.71C1259.91 1277.27 1275.05 1294.39 1348.93 1295.72C1391.34 1296.49 1314.77 1374.14 1284.89 1413.55C1295.65 1425.06 1297.41 1433.24 1278.8 1435.85Z" fill="#FF0000" fill-opacity="0.6"/>
<path d="M1278.8 1435.85C1269.33 1437.17 1274.02 1427.89 1284.89 1413.55C1254.09 1380.6 1149.54 1320.38 1238.31 1285.71C1259.91 1277.27 1275.05 1294.39 1348.93 1295.72C1391.34 1296.49 1314.77 1374.14 1284.89 1413.55C1295.65 1425.06 1297.41 1433.24 1278.8 1435.85Z" fill="#FF0000" fill-opacity="0.6"/>
<path d="M1278.8 1435.85C1269.33 1437.17 1274.02 1427.89 1284.89 1413.55C1254.09 1380.6 1149.54 1320.38 1238.31 1285.71C1259.91 1277.27 1275.05 1294.39 1348.93 1295.72C1391.34 1296.49 1314.77 1374.14 1284.89 1413.55C1295.65 1425.06 1297.41 1433.24 1278.8 1435.85Z" fill="#FF0000" fill-opacity="0.6"/>
<path d="M1278.8 1435.85C1269.33 1437.17 1274.02 1427.89 1284.89 1413.55C1254.09 1380.6 1149.54 1320.38 1238.31 1285.71C1259.91 1277.27 1275.05 1294.39 1348.93 1295.72C1391.34 1296.49 1314.77 1374.14 1284.89 1413.55C1295.65 1425.06 1297.41 1433.24 1278.8 1435.85Z" fill="#FF0000" fill-opacity="0.6"/>
</g>
<path d="M180 828H1260V1908H180V828Z" fill="#2F2F2F"/>
<rect x="-43" y="4187" width="1483" height="740" fill="#131313"/>
<path d="M609.424 4309.31C607.984 4309.31 606.68 4309.14 605.512 4308.81C604.36 4308.47 603.36 4307.97 602.512 4307.3C601.68 4306.62 601.04 4305.79 600.592 4304.8C600.144 4303.81 599.92 4302.66 599.92 4301.37C599.92 4300.06 600.152 4298.9 600.616 4297.89C601.096 4296.86 601.768 4296 602.632 4295.3C603.512 4294.59 604.552 4294.06 605.752 4293.71C606.968 4293.34 608.312 4293.16 609.784 4293.16C611.528 4293.16 613.032 4293.41 614.296 4293.9C615.56 4294.38 616.552 4295.06 617.272 4295.94C618.008 4296.82 618.424 4297.87 618.52 4299.09H615.448C615.24 4298.45 614.896 4297.9 614.416 4297.43C613.952 4296.95 613.336 4296.58 612.568 4296.33C611.8 4296.06 610.872 4295.92 609.784 4295.92C608.392 4295.92 607.2 4296.14 606.208 4296.59C605.232 4297.04 604.488 4297.67 603.976 4298.49C603.464 4299.3 603.208 4300.26 603.208 4301.37C603.208 4302.44 603.432 4303.37 603.88 4304.15C604.328 4304.92 605.016 4305.51 605.944 4305.93C606.888 4306.34 608.088 4306.55 609.544 4306.55C610.664 4306.55 611.648 4306.41 612.496 4306.12C613.36 4305.82 614.08 4305.42 614.656 4304.92C615.232 4304.41 615.64 4303.84 615.88 4303.22L617.128 4302.76C616.92 4304.82 616.136 4306.43 614.776 4307.58C613.432 4308.74 611.648 4309.31 609.424 4309.31ZM616.312 4309C616.312 4308.5 616.344 4307.94 616.408 4307.3C616.472 4306.64 616.552 4305.98 616.648 4305.33C616.744 4304.66 616.832 4304.04 616.912 4303.48H609.808V4301.44H619.072V4309H616.312ZM632.898 4305.04H635.922C635.794 4305.86 635.45 4306.58 634.89 4307.22C634.346 4307.86 633.602 4308.37 632.658 4308.74C631.714 4309.1 630.562 4309.29 629.202 4309.29C627.682 4309.29 626.338 4309.05 625.17 4308.57C624.002 4308.07 623.09 4307.36 622.434 4306.43C621.778 4305.5 621.45 4304.38 621.45 4303.07C621.45 4301.76 621.77 4300.64 622.41 4299.71C623.05 4298.77 623.938 4298.05 625.074 4297.55C626.226 4297.06 627.57 4296.81 629.106 4296.81C630.674 4296.81 631.978 4297.06 633.018 4297.55C634.058 4298.05 634.826 4298.8 635.322 4299.81C635.834 4300.8 636.05 4302.07 635.97 4303.62H624.594C624.674 4304.23 624.898 4304.78 625.266 4305.28C625.65 4305.78 626.162 4306.17 626.802 4306.46C627.458 4306.74 628.234 4306.89 629.13 4306.89C630.122 4306.89 630.946 4306.72 631.602 4306.38C632.274 4306.03 632.706 4305.58 632.898 4305.04ZM628.962 4299.18C627.81 4299.18 626.874 4299.44 626.154 4299.95C625.434 4300.45 624.97 4301.06 624.762 4301.8H632.874C632.794 4301 632.41 4300.37 631.722 4299.9C631.05 4299.42 630.13 4299.18 628.962 4299.18ZM637.288 4297.07H646.552V4299.5H637.288V4297.07ZM640.36 4293.81H643.48V4309H640.36V4293.81ZM655.187 4293.47H658.379V4309H655.187V4293.47ZM662.104 4297.07H665.224V4309H662.104V4297.07ZM670.768 4296.81C671.504 4296.81 672.184 4296.9 672.808 4297.1C673.432 4297.29 673.976 4297.58 674.44 4297.98C674.904 4298.38 675.264 4298.9 675.52 4299.52C675.776 4300.13 675.904 4300.86 675.904 4301.7V4309H672.784V4302.26C672.784 4301.25 672.536 4300.51 672.04 4300.05C671.56 4299.57 670.768 4299.33 669.664 4299.33C668.832 4299.33 668.08 4299.49 667.408 4299.81C666.736 4300.13 666.192 4300.54 665.776 4301.03C665.36 4301.51 665.12 4302.02 665.056 4302.54L665.032 4301.32C665.112 4300.76 665.296 4300.22 665.584 4299.69C665.872 4299.16 666.256 4298.68 666.736 4298.25C667.232 4297.8 667.816 4297.45 668.488 4297.19C669.16 4296.94 669.92 4296.81 670.768 4296.81ZM682.613 4293.47H698.981V4296.14H682.613V4293.47ZM689.213 4295.8H692.405V4309H689.213V4295.8ZM705.98 4309.29C704.476 4309.29 703.148 4309.05 701.996 4308.57C700.86 4308.09 699.972 4307.39 699.332 4306.48C698.692 4305.55 698.372 4304.42 698.372 4303.07C698.372 4301.73 698.692 4300.59 699.332 4299.66C699.972 4298.72 700.86 4298.01 701.996 4297.53C703.148 4297.05 704.476 4296.81 705.98 4296.81C707.484 4296.81 708.796 4297.05 709.916 4297.53C711.052 4298.01 711.94 4298.72 712.58 4299.66C713.22 4300.59 713.54 4301.73 713.54 4303.07C713.54 4304.42 713.22 4305.55 712.58 4306.48C711.94 4307.39 711.052 4308.09 709.916 4308.57C708.796 4309.05 707.484 4309.29 705.98 4309.29ZM705.98 4306.89C706.812 4306.89 707.556 4306.74 708.212 4306.46C708.884 4306.15 709.412 4305.72 709.796 4305.16C710.18 4304.58 710.372 4303.89 710.372 4303.07C710.372 4302.26 710.18 4301.56 709.796 4300.98C709.412 4300.39 708.892 4299.94 708.236 4299.64C707.58 4299.34 706.828 4299.18 705.98 4299.18C705.148 4299.18 704.396 4299.34 703.724 4299.64C703.052 4299.94 702.516 4300.38 702.116 4300.96C701.732 4301.54 701.54 4302.24 701.54 4303.07C701.54 4303.89 701.732 4304.58 702.116 4305.16C702.5 4305.72 703.028 4306.15 703.7 4306.46C704.372 4306.74 705.132 4306.89 705.98 4306.89ZM729.646 4309H726.526V4297.07H729.646V4309ZM726.694 4303.26L726.718 4304.08C726.686 4304.3 726.606 4304.63 726.478 4305.06C726.35 4305.48 726.15 4305.93 725.878 4306.41C725.622 4306.89 725.286 4307.35 724.87 4307.8C724.454 4308.23 723.942 4308.59 723.334 4308.88C722.726 4309.15 722.006 4309.29 721.174 4309.29C720.518 4309.29 719.87 4309.21 719.23 4309.05C718.606 4308.89 718.038 4308.62 717.526 4308.26C717.014 4307.87 716.606 4307.36 716.302 4306.72C715.998 4306.08 715.846 4305.27 715.846 4304.3V4297.07H718.966V4303.77C718.966 4304.54 719.086 4305.14 719.326 4305.59C719.582 4306.02 719.95 4306.33 720.43 4306.5C720.91 4306.68 721.478 4306.77 722.134 4306.77C722.998 4306.77 723.742 4306.58 724.366 4306.22C724.99 4305.83 725.494 4305.37 725.878 4304.82C726.278 4304.28 726.55 4303.76 726.694 4303.26ZM746.647 4304.3C746.567 4305.34 746.231 4306.23 745.639 4306.98C745.063 4307.74 744.263 4308.31 743.239 4308.71C742.215 4309.1 740.999 4309.29 739.591 4309.29C738.119 4309.29 736.799 4309.06 735.631 4308.59C734.479 4308.11 733.567 4307.42 732.895 4306.5C732.239 4305.58 731.911 4304.43 731.911 4303.07C731.911 4301.71 732.239 4300.57 732.895 4299.64C733.567 4298.71 734.479 4298.01 735.631 4297.53C736.799 4297.05 738.119 4296.81 739.591 4296.81C740.999 4296.81 742.207 4297.01 743.215 4297.41C744.223 4297.79 745.015 4298.35 745.591 4299.09C746.183 4299.82 746.527 4300.71 746.623 4301.75H743.767C743.495 4300.95 742.991 4300.33 742.255 4299.88C741.519 4299.43 740.631 4299.21 739.591 4299.21C738.759 4299.21 737.999 4299.35 737.311 4299.64C736.639 4299.93 736.095 4300.36 735.679 4300.94C735.279 4301.5 735.079 4302.21 735.079 4303.07C735.079 4303.92 735.279 4304.63 735.679 4305.21C736.079 4305.77 736.623 4306.19 737.311 4306.48C737.999 4306.75 738.759 4306.89 739.591 4306.89C740.711 4306.89 741.623 4306.66 742.327 4306.22C743.047 4305.77 743.535 4305.13 743.791 4304.3H746.647ZM759.836 4309V4302.45C759.836 4301.79 759.724 4301.25 759.5 4300.82C759.276 4300.38 758.916 4300.06 758.42 4299.83C757.94 4299.61 757.292 4299.5 756.476 4299.5C755.692 4299.5 754.98 4299.65 754.34 4299.95C753.7 4300.24 753.18 4300.62 752.78 4301.1C752.38 4301.57 752.156 4302.06 752.108 4302.59L752.084 4301.27C752.164 4300.74 752.348 4300.22 752.636 4299.69C752.924 4299.16 753.308 4298.68 753.788 4298.25C754.268 4297.82 754.844 4297.47 755.516 4297.22C756.204 4296.94 756.972 4296.81 757.82 4296.81C758.556 4296.81 759.236 4296.9 759.86 4297.1C760.484 4297.27 761.028 4297.55 761.492 4297.94C761.956 4298.32 762.316 4298.8 762.572 4299.38C762.828 4299.94 762.956 4300.6 762.956 4301.37V4309H759.836ZM749.156 4309V4292.27H752.276V4309H749.156Z" fill="white"/>
<path d="M105.022 4398V4356.59H133.118C136.318 4356.59 139.091 4357.04 141.438 4357.94C143.827 4358.79 145.683 4360.15 147.006 4362.03C148.328 4363.87 148.99 4366.23 148.99 4369.14C148.99 4371.1 148.648 4372.76 147.966 4374.13C147.283 4375.49 146.323 4376.6 145.086 4377.46C143.891 4378.31 142.504 4378.97 140.926 4379.44C139.347 4379.87 137.662 4380.14 135.87 4380.27L134.974 4379.76C137.96 4379.8 140.414 4380.06 142.334 4380.53C144.254 4380.95 145.683 4381.77 146.622 4382.96C147.603 4384.11 148.094 4385.84 148.094 4388.14V4398H139.582V4388.72C139.582 4387.14 139.304 4385.93 138.75 4385.07C138.195 4384.18 137.192 4383.56 135.742 4383.22C134.334 4382.87 132.286 4382.7 129.598 4382.7H113.534V4398H105.022ZM113.534 4376.05H133.118C135.507 4376.05 137.32 4375.47 138.558 4374.32C139.838 4373.17 140.478 4371.61 140.478 4369.65C140.478 4367.77 139.838 4366.34 138.558 4365.36C137.32 4364.38 135.507 4363.89 133.118 4363.89H113.534V4376.05ZM175.561 4398.77C171.55 4398.77 168.009 4398.13 164.937 4396.85C161.907 4395.57 159.539 4393.71 157.833 4391.28C156.126 4388.81 155.273 4385.78 155.273 4382.19C155.273 4378.61 156.126 4375.58 157.833 4373.1C159.539 4370.59 161.907 4368.69 164.937 4367.41C168.009 4366.13 171.55 4365.49 175.561 4365.49C179.571 4365.49 183.07 4366.13 186.057 4367.41C189.086 4368.69 191.454 4370.59 193.161 4373.1C194.867 4375.58 195.721 4378.61 195.721 4382.19C195.721 4385.78 194.867 4388.81 193.161 4391.28C191.454 4393.71 189.086 4395.57 186.057 4396.85C183.07 4398.13 179.571 4398.77 175.561 4398.77ZM175.561 4392.37C177.779 4392.37 179.763 4391.98 181.513 4391.22C183.305 4390.41 184.713 4389.25 185.737 4387.76C186.761 4386.22 187.273 4384.37 187.273 4382.19C187.273 4380.02 186.761 4378.16 185.737 4376.62C184.713 4375.05 183.326 4373.85 181.577 4373.04C179.827 4372.23 177.822 4371.82 175.561 4371.82C173.342 4371.82 171.337 4372.23 169.545 4373.04C167.753 4373.85 166.323 4375.02 165.257 4376.56C164.233 4378.1 163.721 4379.97 163.721 4382.19C163.721 4384.37 164.233 4386.22 165.257 4387.76C166.281 4389.25 167.689 4390.41 169.481 4391.22C171.273 4391.98 173.299 4392.37 175.561 4392.37ZM226.383 4398.7C223.567 4398.7 221.157 4398.21 219.151 4397.23C217.146 4396.21 215.525 4394.89 214.287 4393.26C213.05 4391.6 212.133 4389.81 211.535 4387.89C210.938 4385.93 210.639 4384.01 210.639 4382.13C210.639 4379.78 210.917 4377.61 211.471 4375.6C212.069 4373.59 212.986 4371.85 214.223 4370.35C215.461 4368.82 217.082 4367.62 219.087 4366.77C221.093 4365.91 223.525 4365.49 226.383 4365.49C229.669 4365.49 232.57 4366.19 235.087 4367.6C237.647 4368.97 239.653 4370.89 241.103 4373.36C242.597 4375.83 243.343 4378.76 243.343 4382.13C243.343 4385.41 242.597 4388.31 241.103 4390.83C239.61 4393.31 237.583 4395.25 235.023 4396.66C232.463 4398.02 229.583 4398.7 226.383 4398.7ZM223.695 4392.3C225.957 4392.3 227.919 4391.88 229.583 4391.02C231.247 4390.17 232.527 4389 233.423 4387.5C234.362 4385.97 234.831 4384.18 234.831 4382.13C234.831 4379.06 233.85 4376.58 231.887 4374.7C229.967 4372.83 227.237 4371.89 223.695 4371.89C221.221 4371.89 219.066 4372.29 217.231 4373.1C215.397 4373.91 213.967 4375.09 212.943 4376.62C211.962 4378.12 211.471 4379.95 211.471 4382.13C211.471 4384.13 211.962 4385.9 212.943 4387.44C213.925 4388.98 215.333 4390.17 217.167 4391.02C219.002 4391.88 221.178 4392.3 223.695 4392.3ZM211.471 4353.39V4389.81C211.471 4391.17 211.407 4392.65 211.279 4394.22C211.151 4395.76 211.023 4397.02 210.895 4398H203.151V4353.39H211.471ZM259.032 4352.24V4359.54H249.368V4352.24H259.032ZM250.008 4366.19H258.328V4398H250.008V4366.19ZM267.261 4353.39H275.581V4398H267.261V4353.39ZM284.636 4353.39H292.956V4398H284.636V4353.39ZM316.859 4398.7C313.702 4398.7 310.822 4398.02 308.219 4396.66C305.659 4395.25 303.611 4393.31 302.075 4390.83C300.582 4388.31 299.835 4385.41 299.835 4382.13C299.835 4378.76 300.603 4375.83 302.139 4373.36C303.675 4370.89 305.745 4368.97 308.347 4367.6C310.993 4366.19 313.979 4365.49 317.307 4365.49C320.977 4365.49 323.921 4366.23 326.139 4367.73C328.401 4369.18 330.043 4371.16 331.067 4373.68C332.091 4376.2 332.603 4379.01 332.603 4382.13C332.603 4384.01 332.305 4385.93 331.707 4387.89C331.11 4389.81 330.193 4391.6 328.955 4393.26C327.718 4394.89 326.097 4396.21 324.091 4397.23C322.086 4398.21 319.675 4398.7 316.859 4398.7ZM319.547 4392.3C322.065 4392.3 324.241 4391.88 326.075 4391.02C327.91 4390.17 329.318 4388.98 330.299 4387.44C331.281 4385.9 331.771 4384.13 331.771 4382.13C331.771 4379.95 331.259 4378.12 330.235 4376.62C329.254 4375.09 327.846 4373.94 326.011 4373.17C324.219 4372.36 322.065 4371.95 319.547 4371.95C316.006 4371.95 313.254 4372.89 311.291 4374.77C309.329 4376.6 308.347 4379.06 308.347 4382.13C308.347 4384.18 308.817 4385.97 309.755 4387.5C310.694 4389 311.995 4390.17 313.659 4391.02C315.366 4391.88 317.329 4392.3 319.547 4392.3ZM331.771 4366.19H340.091V4398H332.347C332.347 4398 332.283 4397.59 332.155 4396.78C332.07 4395.93 331.985 4394.86 331.899 4393.58C331.814 4392.3 331.771 4391.05 331.771 4389.81V4366.19ZM347.621 4366.19H355.941V4398H347.621V4366.19ZM368.165 4373.04C365.776 4373.04 363.707 4373.51 361.957 4374.45C360.208 4375.34 358.8 4376.45 357.733 4377.78C356.667 4379.1 355.92 4380.38 355.493 4381.62L355.429 4378.1C355.472 4377.58 355.643 4376.84 355.941 4375.86C356.24 4374.83 356.688 4373.74 357.285 4372.59C357.883 4371.4 358.672 4370.27 359.653 4369.2C360.635 4368.09 361.829 4367.19 363.237 4366.51C364.645 4365.83 366.288 4365.49 368.165 4365.49V4373.04ZM388.797 4398.7C385.597 4398.7 382.695 4398.02 380.093 4396.66C377.533 4395.25 375.506 4393.31 374.013 4390.83C372.519 4388.31 371.773 4385.41 371.773 4382.13C371.773 4378.76 372.498 4375.83 373.949 4373.36C375.442 4370.89 377.469 4368.97 380.029 4367.6C382.589 4366.19 385.511 4365.49 388.797 4365.49C391.655 4365.49 394.087 4365.91 396.093 4366.77C398.098 4367.62 399.719 4368.82 400.957 4370.35C402.194 4371.85 403.09 4373.59 403.645 4375.6C404.242 4377.61 404.541 4379.78 404.541 4382.13C404.541 4384.01 404.242 4385.93 403.645 4387.89C403.047 4389.81 402.13 4391.6 400.893 4393.26C399.655 4394.89 398.034 4396.21 396.029 4397.23C394.023 4398.21 391.613 4398.7 388.797 4398.7ZM391.485 4392.3C394.002 4392.3 396.178 4391.88 398.013 4391.02C399.847 4390.17 401.255 4388.98 402.237 4387.44C403.218 4385.9 403.709 4384.13 403.709 4382.13C403.709 4379.95 403.197 4378.12 402.173 4376.62C401.191 4375.09 399.783 4373.91 397.949 4373.1C396.157 4372.29 394.002 4371.89 391.485 4371.89C387.943 4371.89 385.191 4372.83 383.229 4374.7C381.266 4376.58 380.285 4379.06 380.285 4382.13C380.285 4384.18 380.754 4385.97 381.693 4387.5C382.631 4389 383.933 4390.17 385.597 4391.02C387.303 4391.88 389.266 4392.3 391.485 4392.3ZM403.709 4353.39H412.029V4398H404.285C404.157 4397.02 404.029 4395.76 403.901 4394.22C403.773 4392.65 403.709 4391.17 403.709 4389.81V4353.39ZM430.66 4390.7V4398H420.996V4390.7H430.66ZM438.371 4366.19H446.691V4398H438.371V4366.19ZM461.475 4365.49C463.438 4365.49 465.251 4365.74 466.915 4366.26C468.579 4366.77 470.03 4367.56 471.267 4368.62C472.505 4369.69 473.465 4371.06 474.147 4372.72C474.83 4374.34 475.171 4376.28 475.171 4378.54V4398H466.851V4380.02C466.851 4377.33 466.19 4375.37 464.867 4374.13C463.587 4372.85 461.475 4372.21 458.531 4372.21C456.313 4372.21 454.307 4372.63 452.515 4373.49C450.723 4374.34 449.273 4375.43 448.163 4376.75C447.054 4378.03 446.414 4379.38 446.243 4380.78L446.179 4377.52C446.393 4376.03 446.883 4374.58 447.651 4373.17C448.419 4371.76 449.443 4370.48 450.723 4369.33C452.046 4368.13 453.603 4367.19 455.395 4366.51C457.187 4365.83 459.214 4365.49 461.475 4365.49ZM489.187 4365.49C491.15 4365.49 492.963 4365.74 494.627 4366.26C496.291 4366.77 497.742 4367.56 498.979 4368.62C500.217 4369.69 501.177 4371.06 501.859 4372.72C502.585 4374.34 502.947 4376.28 502.947 4378.54V4398H494.627V4380.02C494.627 4377.33 493.966 4375.37 492.643 4374.13C491.321 4372.85 489.187 4372.21 486.243 4372.21C484.025 4372.21 482.019 4372.63 480.227 4373.49C478.435 4374.34 476.985 4375.43 475.875 4376.75C474.766 4378.03 474.147 4379.38 474.019 4380.78L473.891 4377.33C474.105 4375.92 474.617 4374.51 475.427 4373.1C476.238 4371.7 477.305 4370.42 478.627 4369.26C479.95 4368.11 481.486 4367.19 483.235 4366.51C485.027 4365.83 487.011 4365.49 489.187 4365.49ZM525.984 4398.7C522.827 4398.7 519.947 4398.02 517.344 4396.66C514.784 4395.25 512.736 4393.31 511.2 4390.83C509.707 4388.31 508.96 4385.41 508.96 4382.13C508.96 4378.76 509.728 4375.83 511.264 4373.36C512.8 4370.89 514.87 4368.97 517.472 4367.6C520.118 4366.19 523.104 4365.49 526.432 4365.49C530.102 4365.49 533.046 4366.23 535.264 4367.73C537.526 4369.18 539.168 4371.16 540.192 4373.68C541.216 4376.2 541.728 4379.01 541.728 4382.13C541.728 4384.01 541.43 4385.93 540.832 4387.89C540.235 4389.81 539.318 4391.6 538.08 4393.26C536.843 4394.89 535.222 4396.21 533.216 4397.23C531.211 4398.21 528.8 4398.7 525.984 4398.7ZM528.672 4392.3C531.19 4392.3 533.366 4391.88 535.2 4391.02C537.035 4390.17 538.443 4388.98 539.424 4387.44C540.406 4385.9 540.896 4384.13 540.896 4382.13C540.896 4379.95 540.384 4378.12 539.36 4376.62C538.379 4375.09 536.971 4373.94 535.136 4373.17C533.344 4372.36 531.19 4371.95 528.672 4371.95C525.131 4371.95 522.379 4372.89 520.416 4374.77C518.454 4376.6 517.472 4379.06 517.472 4382.13C517.472 4384.18 517.942 4385.97 518.88 4387.5C519.819 4389 521.12 4390.17 522.784 4391.02C524.491 4391.88 526.454 4392.3 528.672 4392.3ZM540.896 4366.19H549.216V4398H541.472C541.472 4398 541.408 4397.59 541.28 4396.78C541.195 4395.93 541.11 4394.86 541.024 4393.58C540.939 4392.3 540.896 4391.05 540.896 4389.81V4366.19ZM554.506 4366.19H579.21V4372.66H554.506V4366.19ZM562.698 4357.49H571.018V4398H562.698V4357.49ZM582.256 4366.19H606.96V4372.66H582.256V4366.19ZM590.448 4357.49H598.768V4398H590.448V4357.49ZM641.302 4398V4380.53C641.302 4378.78 641.004 4377.33 640.406 4376.18C639.809 4375.02 638.849 4374.15 637.526 4373.55C636.246 4372.95 634.518 4372.66 632.342 4372.66C630.252 4372.66 628.353 4373.06 626.646 4373.87C624.94 4374.64 623.553 4375.66 622.486 4376.94C621.42 4378.18 620.822 4379.5 620.694 4380.91L620.63 4377.39C620.844 4375.98 621.334 4374.58 622.102 4373.17C622.87 4371.76 623.894 4370.48 625.174 4369.33C626.454 4368.18 627.99 4367.26 629.782 4366.58C631.617 4365.85 633.665 4365.49 635.926 4365.49C637.889 4365.49 639.702 4365.74 641.366 4366.26C643.03 4366.73 644.481 4367.47 645.718 4368.5C646.956 4369.52 647.916 4370.8 648.598 4372.34C649.281 4373.83 649.622 4375.6 649.622 4377.65V4398H641.302ZM612.822 4398V4353.39H621.142V4398H612.822ZM686.176 4387.44H694.24C693.898 4389.62 692.981 4391.56 691.488 4393.26C690.037 4394.97 688.053 4396.31 685.536 4397.3C683.018 4398.28 679.946 4398.77 676.32 4398.77C672.266 4398.77 668.682 4398.13 665.568 4396.85C662.453 4395.53 660.021 4393.63 658.272 4391.15C656.522 4388.68 655.648 4385.69 655.648 4382.19C655.648 4378.69 656.501 4375.71 658.208 4373.23C659.914 4370.71 662.282 4368.79 665.312 4367.47C668.384 4366.15 671.968 4365.49 676.064 4365.49C680.245 4365.49 683.722 4366.15 686.496 4367.47C689.269 4368.79 691.317 4370.8 692.64 4373.49C694.005 4376.13 694.581 4379.53 694.368 4383.66H664.032C664.245 4385.29 664.842 4386.76 665.824 4388.08C666.848 4389.4 668.213 4390.45 669.92 4391.22C671.669 4391.98 673.738 4392.37 676.128 4392.37C678.773 4392.37 680.97 4391.92 682.72 4391.02C684.512 4390.09 685.664 4388.89 686.176 4387.44ZM675.68 4371.82C672.608 4371.82 670.112 4372.51 668.192 4373.87C666.272 4375.19 665.034 4376.84 664.48 4378.8H686.112C685.898 4376.67 684.874 4374.98 683.04 4373.74C681.248 4372.46 678.794 4371.82 675.68 4371.82ZM740.781 4392.24L738.157 4392.18L748.525 4366.19H757.677L743.661 4398H735.853L725.613 4372.34H728.429L717.869 4398H710.061L696.429 4366.19H705.581L715.565 4392.24H712.941L722.285 4366.19H731.821L740.781 4392.24ZM782.911 4388.34L772.543 4393.2L772.223 4391.6H796.095V4398H761.983V4391.6C765.823 4389.85 769.279 4388.36 772.351 4387.12C775.423 4385.88 778.025 4384.77 780.159 4383.79C782.292 4382.77 783.913 4381.74 785.023 4380.72C786.175 4379.65 786.751 4378.48 786.751 4377.2C786.751 4376.18 786.452 4375.3 785.855 4374.58C785.257 4373.81 784.319 4373.21 783.039 4372.78C781.759 4372.36 780.095 4372.14 778.047 4372.14C775.359 4372.14 773.183 4372.68 771.519 4373.74C769.897 4374.77 769.044 4376.18 768.959 4377.97H760.895C760.767 4375.49 761.364 4373.32 762.687 4371.44C764.052 4369.56 766.036 4368.09 768.639 4367.02C771.241 4365.96 774.313 4365.42 777.855 4365.42C780.457 4365.42 782.825 4365.68 784.959 4366.19C787.092 4366.66 788.927 4367.37 790.463 4368.3C792.041 4369.24 793.236 4370.37 794.047 4371.7C794.9 4373.02 795.327 4374.51 795.327 4376.18C795.327 4377.46 795.092 4378.63 794.623 4379.7C794.153 4380.72 793.407 4381.7 792.383 4382.64C791.401 4383.58 790.121 4384.52 788.543 4385.46C786.964 4386.35 785.087 4387.31 782.911 4388.34ZM822.848 4388.34L812.48 4393.2L812.16 4391.6H836.032V4398H801.92V4391.6C805.76 4389.85 809.216 4388.36 812.288 4387.12C815.36 4385.88 817.963 4384.77 820.096 4383.79C822.23 4382.77 823.851 4381.74 824.96 4380.72C826.112 4379.65 826.688 4378.48 826.688 4377.2C826.688 4376.18 826.39 4375.3 825.792 4374.58C825.195 4373.81 824.256 4373.21 822.976 4372.78C821.696 4372.36 820.032 4372.14 817.984 4372.14C815.296 4372.14 813.12 4372.68 811.456 4373.74C809.835 4374.77 808.982 4376.18 808.896 4377.97H800.832C800.704 4375.49 801.302 4373.32 802.624 4371.44C803.99 4369.56 805.974 4368.09 808.576 4367.02C811.179 4365.96 814.251 4365.42 817.792 4365.42C820.395 4365.42 822.763 4365.68 824.896 4366.19C827.03 4366.66 828.864 4367.37 830.4 4368.3C831.979 4369.24 833.174 4370.37 833.984 4371.7C834.838 4373.02 835.264 4374.51 835.264 4376.18C835.264 4377.46 835.03 4378.63 834.56 4379.7C834.091 4380.72 833.344 4381.7 832.32 4382.64C831.339 4383.58 830.059 4384.52 828.48 4385.46C826.902 4386.35 825.024 4387.31 822.848 4388.34ZM872.834 4401.52C866.434 4401.52 860.908 4400.56 856.258 4398.64C851.65 4396.72 848.108 4393.97 845.634 4390.38C843.159 4386.76 841.922 4382.43 841.922 4377.39C841.922 4372.31 843.159 4368.05 845.634 4364.59C848.151 4361.14 851.756 4358.53 856.45 4356.78C861.143 4354.99 866.754 4354.1 873.282 4354.1C879.852 4354.1 885.42 4354.99 889.986 4356.78C894.594 4358.53 898.092 4361.11 900.482 4364.53C902.914 4367.9 904.13 4372.04 904.13 4376.94C904.13 4379.42 903.724 4381.55 902.914 4383.34C902.103 4385.09 900.887 4386.46 899.266 4387.44C897.687 4388.38 895.703 4388.85 893.314 4388.85C891.394 4388.85 889.751 4388.59 888.386 4388.08C887.02 4387.57 885.911 4386.89 885.058 4386.03C884.204 4385.18 883.564 4384.24 883.138 4383.22C882.754 4382.19 882.562 4381.17 882.562 4380.14V4366.32H890.882V4377.46C890.882 4378.61 890.967 4379.63 891.138 4380.53C891.351 4381.38 891.735 4382.06 892.29 4382.58C892.844 4383.09 893.634 4383.34 894.658 4383.34C895.682 4383.34 896.45 4383.09 896.962 4382.58C897.516 4382.06 897.879 4381.34 898.05 4380.4C898.263 4379.46 898.37 4378.39 898.37 4377.2C898.37 4374.13 897.794 4371.48 896.642 4369.26C895.532 4367 893.89 4365.15 891.714 4363.7C889.58 4362.2 886.956 4361.09 883.842 4360.37C880.77 4359.64 877.292 4359.28 873.41 4359.28C869.484 4359.28 865.943 4359.64 862.786 4360.37C859.628 4361.09 856.919 4362.2 854.658 4363.7C852.396 4365.19 850.668 4367.07 849.474 4369.33C848.279 4371.59 847.682 4374.28 847.682 4377.39C847.682 4381.4 848.684 4384.84 850.69 4387.7C852.695 4390.51 855.575 4392.67 859.33 4394.16C863.084 4395.61 867.586 4396.34 872.834 4396.34C874.967 4396.34 876.951 4396.23 878.786 4396.02C880.663 4395.8 882.37 4395.5 883.906 4395.12C885.442 4394.74 886.743 4394.29 887.81 4393.78L890.114 4398.45C888.834 4399.05 887.298 4399.58 885.506 4400.05C883.756 4400.52 881.794 4400.88 879.618 4401.14C877.484 4401.39 875.223 4401.52 872.834 4401.52ZM868.674 4390.9C865.73 4390.9 863.127 4390.34 860.866 4389.23C858.647 4388.08 856.919 4386.52 855.682 4384.56C854.444 4382.6 853.826 4380.36 853.826 4377.84C853.826 4375.19 854.444 4372.87 855.682 4370.86C856.919 4368.82 858.69 4367.22 860.994 4366.06C863.298 4364.87 866.007 4364.27 869.122 4364.27C872.322 4364.27 874.967 4364.91 877.058 4366.19C879.191 4367.43 880.77 4369.09 881.794 4371.18C882.86 4373.23 883.394 4375.45 883.394 4377.84C883.394 4379.08 883.074 4380.44 882.434 4381.94C881.836 4383.43 880.919 4384.86 879.682 4386.22C878.487 4387.59 876.951 4388.72 875.074 4389.62C873.239 4390.47 871.106 4390.9 868.674 4390.9ZM871.362 4384.56C872.898 4384.56 874.348 4384.39 875.714 4384.05C877.079 4383.66 878.274 4383.17 879.298 4382.58C880.322 4381.98 881.111 4381.27 881.666 4380.46C882.263 4379.65 882.562 4378.8 882.562 4377.9C882.562 4376.75 882.263 4375.75 881.666 4374.9C881.068 4374 880.258 4373.25 879.234 4372.66C878.21 4372.02 877.015 4371.55 875.65 4371.25C874.327 4370.91 872.898 4370.74 871.362 4370.74C868.162 4370.74 865.858 4371.38 864.45 4372.66C863.042 4373.94 862.338 4375.69 862.338 4377.9C862.338 4379.87 863.084 4381.47 864.578 4382.7C866.114 4383.94 868.375 4384.56 871.362 4384.56ZM926.993 4393.14C923.537 4393.14 920.487 4392.62 917.841 4391.6C915.239 4390.53 913.212 4388.98 911.761 4386.93C910.311 4384.88 909.585 4382.41 909.585 4379.5C909.585 4376.65 910.289 4374.17 911.697 4372.08C913.105 4369.99 915.111 4368.37 917.713 4367.22C920.359 4366.06 923.452 4365.49 926.993 4365.49C927.975 4365.49 928.913 4365.55 929.809 4365.68C930.748 4365.81 931.665 4365.98 932.561 4366.19L948.625 4366.26V4372.53C946.449 4372.57 944.231 4372.31 941.969 4371.76C939.751 4371.16 937.788 4370.52 936.081 4369.84L935.889 4369.39C937.34 4370.07 938.705 4370.93 939.985 4371.95C941.265 4372.93 942.289 4374.09 943.057 4375.41C943.868 4376.69 944.273 4378.18 944.273 4379.89C944.273 4382.66 943.569 4385.05 942.161 4387.06C940.753 4389.02 938.748 4390.53 936.145 4391.6C933.585 4392.62 930.535 4393.14 926.993 4393.14ZM937.681 4411.12V4409.58C937.681 4407.62 937.041 4406.26 935.761 4405.49C934.524 4404.72 932.817 4404.34 930.641 4404.34H920.721C918.801 4404.34 917.18 4404.19 915.857 4403.89C914.577 4403.59 913.553 4403.16 912.785 4402.61C912.017 4402.05 911.463 4401.39 911.121 4400.62C910.78 4399.9 910.609 4399.11 910.609 4398.26C910.609 4396.55 911.164 4395.27 912.273 4394.42C913.383 4393.52 914.876 4392.92 916.753 4392.62C918.631 4392.33 920.7 4392.26 922.961 4392.43L926.993 4393.14C924.305 4393.22 922.3 4393.46 920.977 4393.84C919.697 4394.18 919.057 4394.89 919.057 4395.95C919.057 4396.59 919.313 4397.1 919.825 4397.49C920.337 4397.83 921.063 4398 922.001 4398H932.433C935.292 4398 937.724 4398.3 939.729 4398.9C941.777 4399.54 943.335 4400.58 944.401 4402.03C945.468 4403.53 946.001 4405.55 946.001 4408.11V4411.12H937.681ZM926.993 4387.12C928.828 4387.12 930.428 4386.82 931.793 4386.22C933.201 4385.63 934.289 4384.77 935.057 4383.66C935.825 4382.51 936.209 4381.15 936.209 4379.57C936.209 4377.95 935.825 4376.56 935.057 4375.41C934.289 4374.26 933.223 4373.38 931.857 4372.78C930.492 4372.14 928.871 4371.82 926.993 4371.82C925.159 4371.82 923.537 4372.14 922.129 4372.78C920.721 4373.38 919.633 4374.26 918.865 4375.41C918.097 4376.56 917.713 4377.95 917.713 4379.57C917.713 4381.15 918.097 4382.51 918.865 4383.66C919.633 4384.77 920.7 4385.63 922.065 4386.22C923.473 4386.82 925.116 4387.12 926.993 4387.12ZM954.059 4366.19H962.379V4398H954.059V4366.19ZM977.163 4365.49C979.125 4365.49 980.939 4365.74 982.603 4366.26C984.267 4366.77 985.717 4367.56 986.955 4368.62C988.192 4369.69 989.152 4371.06 989.835 4372.72C990.517 4374.34 990.859 4376.28 990.859 4378.54V4398H982.539V4380.02C982.539 4377.33 981.877 4375.37 980.555 4374.13C979.275 4372.85 977.163 4372.21 974.219 4372.21C972 4372.21 969.995 4372.63 968.203 4373.49C966.411 4374.34 964.96 4375.43 963.851 4376.75C962.741 4378.03 962.101 4379.38 961.931 4380.78L961.867 4377.52C962.08 4376.03 962.571 4374.58 963.339 4373.17C964.107 4371.76 965.131 4370.48 966.411 4369.33C967.733 4368.13 969.291 4367.19 971.083 4366.51C972.875 4365.83 974.901 4365.49 977.163 4365.49ZM1004.87 4365.49C1006.84 4365.49 1008.65 4365.74 1010.31 4366.26C1011.98 4366.77 1013.43 4367.56 1014.67 4368.62C1015.9 4369.69 1016.86 4371.06 1017.55 4372.72C1018.27 4374.34 1018.63 4376.28 1018.63 4378.54V4398H1010.31V4380.02C1010.31 4377.33 1009.65 4375.37 1008.33 4374.13C1007.01 4372.85 1004.87 4372.21 1001.93 4372.21C999.712 4372.21 997.707 4372.63 995.915 4373.49C994.123 4374.34 992.672 4375.43 991.563 4376.75C990.453 4378.03 989.835 4379.38 989.707 4380.78L989.579 4377.33C989.792 4375.92 990.304 4374.51 991.115 4373.1C991.925 4371.7 992.992 4370.42 994.315 4369.26C995.637 4368.11 997.173 4367.19 998.923 4366.51C1000.71 4365.83 1002.7 4365.49 1004.87 4365.49ZM1041.67 4398.7C1038.51 4398.7 1035.63 4398.02 1033.03 4396.66C1030.47 4395.25 1028.42 4393.31 1026.89 4390.83C1025.39 4388.31 1024.65 4385.41 1024.65 4382.13C1024.65 4378.76 1025.42 4375.83 1026.95 4373.36C1028.49 4370.89 1030.56 4368.97 1033.16 4367.6C1035.81 4366.19 1038.79 4365.49 1042.12 4365.49C1045.79 4365.49 1048.73 4366.23 1050.95 4367.73C1053.21 4369.18 1054.86 4371.16 1055.88 4373.68C1056.9 4376.2 1057.42 4379.01 1057.42 4382.13C1057.42 4384.01 1057.12 4385.93 1056.52 4387.89C1055.92 4389.81 1055.01 4391.6 1053.77 4393.26C1052.53 4394.89 1050.91 4396.21 1048.9 4397.23C1046.9 4398.21 1044.49 4398.7 1041.67 4398.7ZM1044.36 4392.3C1046.88 4392.3 1049.05 4391.88 1050.89 4391.02C1052.72 4390.17 1054.13 4388.98 1055.11 4387.44C1056.09 4385.9 1056.58 4384.13 1056.58 4382.13C1056.58 4379.95 1056.07 4378.12 1055.05 4376.62C1054.07 4375.09 1052.66 4373.94 1050.82 4373.17C1049.03 4372.36 1046.88 4371.95 1044.36 4371.95C1040.82 4371.95 1038.07 4372.89 1036.1 4374.77C1034.14 4376.6 1033.16 4379.06 1033.16 4382.13C1033.16 4384.18 1033.63 4385.97 1034.57 4387.5C1035.51 4389 1036.81 4390.17 1038.47 4391.02C1040.18 4391.88 1042.14 4392.3 1044.36 4392.3ZM1056.58 4366.19H1064.9V4398H1057.16C1057.16 4398 1057.1 4397.59 1056.97 4396.78C1056.88 4395.93 1056.8 4394.86 1056.71 4393.58C1056.63 4392.3 1056.58 4391.05 1056.58 4389.81V4366.19ZM1081.97 4352.24V4359.54H1072.31V4352.24H1081.97ZM1072.95 4366.19H1081.27V4398H1072.95V4366.19ZM1090.2 4353.39H1098.52V4398H1090.2V4353.39ZM1116.6 4390.7V4398H1106.93V4390.7H1116.6ZM1161.44 4385.46C1161.23 4388.23 1160.33 4390.62 1158.76 4392.62C1157.22 4394.63 1155.09 4396.17 1152.36 4397.23C1149.63 4398.26 1146.38 4398.77 1142.63 4398.77C1138.7 4398.77 1135.18 4398.15 1132.07 4396.91C1129 4395.63 1126.56 4393.78 1124.77 4391.34C1123.02 4388.87 1122.15 4385.82 1122.15 4382.19C1122.15 4378.57 1123.02 4375.51 1124.77 4373.04C1126.56 4370.57 1129 4368.69 1132.07 4367.41C1135.18 4366.13 1138.7 4365.49 1142.63 4365.49C1146.38 4365.49 1149.6 4366.02 1152.29 4367.09C1154.98 4368.11 1157.09 4369.61 1158.63 4371.57C1160.21 4373.53 1161.12 4375.9 1161.38 4378.67H1153.76C1153.04 4376.54 1151.69 4374.87 1149.73 4373.68C1147.77 4372.49 1145.4 4371.89 1142.63 4371.89C1140.41 4371.89 1138.38 4372.27 1136.55 4373.04C1134.76 4373.81 1133.31 4374.96 1132.2 4376.5C1131.13 4377.99 1130.6 4379.89 1130.6 4382.19C1130.6 4384.45 1131.13 4386.35 1132.2 4387.89C1133.26 4389.38 1134.71 4390.51 1136.55 4391.28C1138.38 4392.01 1140.41 4392.37 1142.63 4392.37C1145.61 4392.37 1148.05 4391.77 1149.92 4390.58C1151.84 4389.38 1153.15 4387.67 1153.83 4385.46H1161.44ZM1186.31 4398.77C1182.3 4398.77 1178.76 4398.13 1175.69 4396.85C1172.66 4395.57 1170.29 4393.71 1168.58 4391.28C1166.88 4388.81 1166.02 4385.78 1166.02 4382.19C1166.02 4378.61 1166.88 4375.58 1168.58 4373.1C1170.29 4370.59 1172.66 4368.69 1175.69 4367.41C1178.76 4366.13 1182.3 4365.49 1186.31 4365.49C1190.32 4365.49 1193.82 4366.13 1196.81 4367.41C1199.84 4368.69 1202.2 4370.59 1203.91 4373.1C1205.62 4375.58 1206.47 4378.61 1206.47 4382.19C1206.47 4385.78 1205.62 4388.81 1203.91 4391.28C1202.2 4393.71 1199.84 4395.57 1196.81 4396.85C1193.82 4398.13 1190.32 4398.77 1186.31 4398.77ZM1186.31 4392.37C1188.53 4392.37 1190.51 4391.98 1192.26 4391.22C1194.05 4390.41 1195.46 4389.25 1196.49 4387.76C1197.51 4386.22 1198.02 4384.37 1198.02 4382.19C1198.02 4380.02 1197.51 4378.16 1196.49 4376.62C1195.46 4375.05 1194.08 4373.85 1192.33 4373.04C1190.58 4372.23 1188.57 4371.82 1186.31 4371.82C1184.09 4371.82 1182.09 4372.23 1180.29 4373.04C1178.5 4373.85 1177.07 4375.02 1176.01 4376.56C1174.98 4378.1 1174.47 4379.97 1174.47 4382.19C1174.47 4384.37 1174.98 4386.22 1176.01 4387.76C1177.03 4389.25 1178.44 4390.41 1180.23 4391.22C1182.02 4391.98 1184.05 4392.37 1186.31 4392.37ZM1212.62 4366.19H1220.94V4398H1212.62V4366.19ZM1235.73 4365.49C1237.69 4365.49 1239.5 4365.74 1241.17 4366.26C1242.83 4366.77 1244.28 4367.56 1245.52 4368.62C1246.75 4369.69 1247.71 4371.06 1248.4 4372.72C1249.08 4374.34 1249.42 4376.28 1249.42 4378.54V4398H1241.1V4380.02C1241.1 4377.33 1240.44 4375.37 1239.12 4374.13C1237.84 4372.85 1235.73 4372.21 1232.78 4372.21C1230.56 4372.21 1228.56 4372.63 1226.77 4373.49C1224.97 4374.34 1223.52 4375.43 1222.41 4376.75C1221.3 4378.03 1220.66 4379.38 1220.49 4380.78L1220.43 4377.52C1220.64 4376.03 1221.13 4374.58 1221.9 4373.17C1222.67 4371.76 1223.69 4370.48 1224.97 4369.33C1226.3 4368.13 1227.85 4367.19 1229.65 4366.51C1231.44 4365.83 1233.46 4365.49 1235.73 4365.49ZM1263.44 4365.49C1265.4 4365.49 1267.21 4365.74 1268.88 4366.26C1270.54 4366.77 1271.99 4367.56 1273.23 4368.62C1274.47 4369.69 1275.43 4371.06 1276.11 4372.72C1276.83 4374.34 1277.2 4376.28 1277.2 4378.54V4398H1268.88V4380.02C1268.88 4377.33 1268.22 4375.37 1266.89 4374.13C1265.57 4372.85 1263.44 4372.21 1260.49 4372.21C1258.27 4372.21 1256.27 4372.63 1254.48 4373.49C1252.69 4374.34 1251.23 4375.43 1250.13 4376.75C1249.02 4378.03 1248.4 4379.38 1248.27 4380.78L1248.14 4377.33C1248.35 4375.92 1248.87 4374.51 1249.68 4373.1C1250.49 4371.7 1251.55 4370.42 1252.88 4369.26C1254.2 4368.11 1255.74 4367.19 1257.49 4366.51C1259.28 4365.83 1261.26 4365.49 1263.44 4365.49Z" fill="white"/>
<path d="M100.094 4409.97H152.958V4414.77H100.094V4409.97Z" fill="white"/>
<a href="mailto:info@growl.com">
<rect fill="black" fill-opacity="0" x="25.0938" y="0.0999985" width="52.864" height="76.8"/>
</a>
<path fill-rule="evenodd" clip-rule="evenodd" d="M906.157 4597H791.224C789.839 4597 788.51 4597.51 787.53 4598.43C786.55 4599.34 786 4600.58 786 4601.88V4709.12C786 4710.42 786.55 4711.66 787.53 4712.57C788.51 4713.49 789.839 4714 791.224 4714H852.609V4670.12H836.936V4651.84H852.609V4637.22C852.609 4622.11 862.864 4614.67 877.309 4614.67C884.226 4614.67 890.176 4615.15 891.905 4615.36V4631.16L881.89 4631.16C874.033 4631.16 872.2 4634.65 872.2 4639.76V4651.84H891.79L887.872 4670.12H872.2L872.513 4714H906.157C907.542 4714 908.871 4713.49 909.851 4712.57C910.831 4711.66 911.381 4710.42 911.381 4709.12V4601.88C911.381 4600.58 910.831 4599.34 909.851 4598.43C908.871 4597.51 907.542 4597 906.157 4597" fill="#C4C4C4"/>
<path d="M1078.76 4597H963.405C960.631 4597 958.389 4599.09 958.389 4601.68V4709.32C958.389 4711.91 960.631 4714 963.405 4714H1078.76C1081.53 4714 1083.77 4711.91 1083.77 4709.32V4601.68C1083.77 4599.09 1081.53 4597 1078.76 4597ZM1054.82 4639.37C1054.87 4640.06 1054.87 4640.77 1054.87 4641.47C1054.87 4662.94 1037.35 4687.67 1005.33 4687.67C995.455 4687.67 986.302 4685 978.591 4680.39C980.002 4680.54 981.35 4680.6 982.792 4680.6C990.941 4680.6 998.433 4678.02 1004.4 4673.66C996.756 4673.52 990.33 4668.84 988.136 4662.4C990.816 4662.77 993.23 4662.77 995.988 4662.11C992.05 4661.36 988.51 4659.37 985.97 4656.46C983.43 4653.56 982.047 4649.92 982.055 4646.17V4645.96C984.359 4647.18 987.07 4647.92 989.907 4648.03C987.522 4646.54 985.567 4644.53 984.213 4642.18C982.86 4639.82 982.151 4637.19 982.149 4634.51C982.149 4631.49 982.995 4628.72 984.516 4626.32C988.887 4631.34 994.341 4635.45 1000.52 4638.38C1006.71 4641.3 1013.48 4642.98 1020.41 4643.3C1017.95 4632.26 1026.78 4623.32 1037.41 4623.32C1042.43 4623.32 1046.94 4625.28 1050.12 4628.44C1054.06 4627.76 1057.82 4626.38 1061.17 4624.54C1059.87 4628.3 1057.14 4631.47 1053.52 4633.47C1057.03 4633.12 1060.42 4632.22 1063.55 4630.94C1061.19 4634.19 1058.22 4637.07 1054.82 4639.37V4639.37Z" fill="#C4C4C4"/>
<path d="M1193.49 4641.57C1190.54 4641.57 1187.65 4642.39 1185.2 4643.92C1182.74 4645.45 1180.83 4647.63 1179.7 4650.17C1178.57 4652.72 1178.28 4655.52 1178.85 4658.22C1179.43 4660.92 1180.85 4663.4 1182.94 4665.35C1185.03 4667.3 1187.69 4668.63 1190.58 4669.16C1193.48 4669.7 1196.48 4669.42 1199.21 4668.37C1201.94 4667.31 1204.27 4665.53 1205.91 4663.24C1207.55 4660.95 1208.42 4658.25 1208.42 4655.5C1208.42 4651.81 1206.84 4648.26 1204.04 4645.65C1201.24 4643.04 1197.45 4641.57 1193.49 4641.57V4641.57ZM1228.39 4630.86C1227.63 4629.06 1226.48 4627.43 1225.02 4626.07C1223.56 4624.7 1221.81 4623.63 1219.88 4622.92C1214 4620.76 1200.01 4621.24 1193.49 4621.24C1186.97 4621.24 1172.99 4620.74 1167.09 4622.92C1165.17 4623.63 1163.42 4624.7 1161.96 4626.07C1160.49 4627.43 1159.34 4629.06 1158.58 4630.86C1156.27 4636.35 1156.78 4649.42 1156.78 4655.5C1156.78 4661.58 1156.27 4674.63 1158.59 4680.14C1159.35 4681.93 1160.5 4683.56 1161.97 4684.93C1163.43 4686.3 1165.18 4687.37 1167.11 4688.08C1172.98 4690.24 1186.98 4689.76 1193.5 4689.76C1200.02 4689.76 1214 4690.26 1219.89 4688.08C1221.82 4687.37 1223.57 4686.3 1225.03 4684.93C1226.49 4683.56 1227.64 4681.93 1228.4 4680.14C1230.74 4674.65 1230.2 4661.58 1230.2 4655.5C1230.2 4649.42 1230.74 4636.37 1228.4 4630.86L1228.39 4630.86ZM1193.49 4676.92C1188.95 4676.92 1184.51 4675.66 1180.74 4673.31C1176.96 4670.95 1174.02 4667.61 1172.29 4663.7C1170.55 4659.78 1170.09 4655.48 1170.98 4651.32C1171.87 4647.17 1174.05 4643.35 1177.26 4640.36C1180.47 4637.36 1184.56 4635.32 1189.01 4634.5C1193.46 4633.67 1198.08 4634.09 1202.27 4635.71C1206.46 4637.34 1210.05 4640.08 1212.57 4643.6C1215.09 4647.12 1216.44 4651.26 1216.44 4655.5C1216.44 4658.31 1215.85 4661.1 1214.7 4663.7C1213.55 4666.3 1211.86 4668.66 1209.72 4670.65C1207.59 4672.64 1205.06 4674.22 1202.28 4675.29C1199.49 4676.37 1196.5 4676.92 1193.49 4676.92V4676.92ZM1217.38 4638.19C1216.32 4638.19 1215.29 4637.89 1214.41 4637.34C1213.53 4636.79 1212.84 4636.01 1212.43 4635.1C1212.03 4634.19 1211.92 4633.18 1212.13 4632.21C1212.33 4631.24 1212.84 4630.35 1213.59 4629.65C1214.34 4628.95 1215.3 4628.48 1216.33 4628.28C1217.37 4628.09 1218.45 4628.19 1219.43 4628.57C1220.41 4628.95 1221.25 4629.59 1221.83 4630.41C1222.42 4631.23 1222.74 4632.2 1222.74 4633.19C1222.74 4633.84 1222.6 4634.49 1222.34 4635.1C1222.07 4635.71 1221.68 4636.26 1221.18 4636.73C1220.68 4637.19 1220.09 4637.56 1219.44 4637.81C1218.8 4638.07 1218.1 4638.2 1217.4 4638.2L1217.38 4638.19ZM1242.75 4597H1144.23C1140.67 4597 1137.25 4598.32 1134.73 4600.67C1132.21 4603.02 1130.8 4606.21 1130.8 4609.54V4701.46C1130.8 4704.79 1132.21 4707.98 1134.73 4710.33C1137.25 4712.68 1140.67 4714 1144.23 4714H1242.75C1246.31 4714 1249.73 4712.68 1252.24 4710.33C1254.76 4707.98 1256.18 4704.79 1256.18 4701.46V4609.54C1256.18 4606.21 1254.76 4603.02 1252.24 4600.67C1249.73 4598.32 1246.31 4597 1242.75 4597V4597ZM1237.95 4672.74C1237.59 4679.43 1235.96 4685.36 1230.72 4690.23C1225.48 4695.11 1219.13 4696.67 1211.97 4696.99C1204.58 4697.37 1182.42 4697.37 1175.03 4696.99C1167.85 4696.65 1161.52 4695.12 1156.27 4690.23C1151.03 4685.35 1149.38 4679.42 1149.04 4672.74C1148.62 4665.84 1148.62 4645.16 1149.04 4638.26C1149.4 4631.57 1151.02 4625.64 1156.27 4620.77C1161.53 4615.89 1167.88 4614.35 1175.03 4614.03C1182.42 4613.64 1204.58 4613.64 1211.97 4614.03C1219.14 4614.37 1225.49 4615.9 1230.72 4620.78C1235.94 4625.67 1237.61 4631.6 1237.95 4638.29C1238.37 4645.17 1238.37 4665.83 1237.95 4672.74Z" fill="#C4C4C4"/>
<line x1="101" y1="4778.5" x2="1246.84" y2="4778.5" stroke="#949494"/>
<g filter="url(#filter19_f_230_57)">
<path d="M168.693 4630.83C179.617 4629.48 126.109 4735.28 133.203 4720.09C147.575 4689.32 97.5783 4722.48 123.609 4594.38C128.304 4571.27 154.738 4632.55 168.693 4630.83Z" fill="#FF0000"/>
</g>
<g filter="url(#filter20_f_230_57)">
<path d="M299.221 4613.24C312.223 4611.99 249.169 4714.88 257.522 4700.1C274.443 4670.17 215.112 4702.21 245.301 4577.39C250.746 4554.89 282.614 4614.83 299.221 4613.24Z" fill="#9671FF"/>
</g>
<g filter="url(#filter21_d_230_57)">
<path d="M240.281 4662.38V4671.76C240.281 4672.28 240.094 4672.71 239.719 4673.06C239.367 4673.44 238.934 4673.63 238.418 4673.63H200.59V4685.16H251.812V4662.38H240.281ZM238.418 4632.14C238.934 4632.14 239.367 4632.33 239.719 4632.7C240.094 4633.06 240.281 4633.49 240.281 4634.01V4643.39H251.812V4620.61H200.59V4632.14H238.418ZM236.555 4669.9V4662.38H213.879C213.363 4662.38 212.918 4662.2 212.543 4661.85C212.191 4661.47 212.016 4661.03 212.016 4660.51V4645.26C212.016 4644.74 212.191 4644.29 212.543 4643.92C212.918 4643.57 213.363 4643.39 213.879 4643.39H236.555V4635.87H198.762C198.246 4635.87 197.801 4635.69 197.426 4635.34C197.074 4634.97 196.898 4634.52 196.898 4634.01V4618.75C196.898 4618.23 197.074 4617.79 197.426 4617.41C197.801 4617.06 198.246 4616.88 198.762 4616.88H253.676C254.191 4616.88 254.637 4617.06 255.012 4617.41C255.363 4617.79 255.539 4618.23 255.539 4618.75V4645.26C255.539 4645.77 255.363 4646.2 255.012 4646.56C254.637 4646.93 254.191 4647.12 253.676 4647.12H215.742V4658.65H253.676C254.191 4658.65 254.637 4658.84 255.012 4659.21C255.363 4659.56 255.539 4660 255.539 4660.51V4687.02C255.539 4687.54 255.363 4687.98 255.012 4688.36C254.637 4688.71 254.191 4688.88 253.676 4688.88H198.762C198.246 4688.88 197.801 4688.71 197.426 4688.36C197.074 4687.98 196.898 4687.54 196.898 4687.02V4671.76C196.898 4671.25 197.074 4670.8 197.426 4670.43C197.801 4670.08 198.246 4669.9 198.762 4669.9H236.555Z" fill="white"/>
</g>
<g filter="url(#filter22_d_230_57)">
<path d="M185.719 4643.39V4634.01C185.719 4633.49 185.906 4633.06 186.281 4632.7C186.633 4632.33 187.066 4632.14 187.582 4632.14H225.41V4620.61H174.188V4643.39H185.719ZM187.582 4673.63C187.066 4673.63 186.633 4673.44 186.281 4673.06C185.906 4672.71 185.719 4672.28 185.719 4671.76V4662.38H174.188V4685.16H225.41V4673.63H187.582ZM189.445 4635.87V4643.39H212.121C212.637 4643.39 213.082 4643.57 213.457 4643.92C213.809 4644.29 213.984 4644.74 213.984 4645.26V4660.51C213.984 4661.03 213.809 4661.47 213.457 4661.85C213.082 4662.2 212.637 4662.38 212.121 4662.38H189.445V4669.9H227.238C227.754 4669.9 228.199 4670.08 228.574 4670.43C228.926 4670.8 229.102 4671.25 229.102 4671.76V4687.02C229.102 4687.54 228.926 4687.98 228.574 4688.36C228.199 4688.71 227.754 4688.88 227.238 4688.88H172.324C171.809 4688.88 171.363 4688.71 170.988 4688.36C170.637 4687.98 170.461 4687.54 170.461 4687.02V4660.51C170.461 4660 170.637 4659.56 170.988 4659.21C171.363 4658.84 171.809 4658.65 172.324 4658.65H210.258V4647.12H172.324C171.809 4647.12 171.363 4646.93 170.988 4646.56C170.637 4646.2 170.461 4645.77 170.461 4645.26V4618.75C170.461 4618.23 170.637 4617.79 170.988 4617.41C171.363 4617.06 171.809 4616.88 172.324 4616.88H227.238C227.754 4616.88 228.199 4617.06 228.574 4617.41C228.926 4617.79 229.102 4618.23 229.102 4618.75V4634.01C229.102 4634.52 228.926 4634.97 228.574 4635.34C228.199 4635.69 227.754 4635.87 227.238 4635.87H189.445Z" fill="white"/>
</g>
</g>
<defs>
<filter id="filter0_f_230_57" x="-430.545" y="3510.35" width="916.391" height="674.24" filterUnits="userSpaceOnUse" color-interpolation-filters="sRGB">
<feFlood flood-opacity="0" result="BackgroundImageFix"/>
<feBlend mode="normal" in="SourceGraphic" in2="BackgroundImageFix" result="shape"/>
<feGaussianBlur stdDeviation="100" result="effect1_foregroundBlur_230_57"/>
</filter>
<filter id="filter1_f_230_57" x="914.5" y="558.857" width="700.445" height="509.976" filterUnits="userSpaceOnUse" color-interpolation-filters="sRGB">
<feFlood flood-opacity="0" result="BackgroundImageFix"/>
<feBlend mode="normal" in="SourceGraphic" in2="BackgroundImageFix" result="shape"/>
<feGaussianBlur stdDeviation="100" result="effect1_foregroundBlur_230_57"/>
</filter>
<filter id="filter2_d_230_57" x="1186" y="789" width="160" height="84" filterUnits="userSpaceOnUse" color-interpolation-filters="sRGB">
<feFlood flood-opacity="0" result="BackgroundImageFix"/>
<feColorMatrix in="SourceAlpha" type="matrix" values="0 0 0 0 0 0 0 0 0 0 0 0 0 0 0 0 0 0 127 0" result="hardAlpha"/>
<feOffset/>
<feGaussianBlur stdDeviation="12.5"/>
<feComposite in2="hardAlpha" operator="out"/>
<feColorMatrix type="matrix" values="0 0 0 0 0.27451 0 0 0 0 0.870588 0 0 0 0 1 0 0 0 1 0"/>
<feBlend mode="normal" in2="BackgroundImageFix" result="effect1_dropShadow_230_57"/>
<feBlend mode="normal" in="SourceGraphic" in2="effect1_dropShadow_230_57" result="shape"/>
</filter>
<filter id="filter3_d_230_57" x="1204" y="802" width="124" height="58" filterUnits="userSpaceOnUse" color-interpolation-filters="sRGB">
<feFlood flood-opacity="0" result="BackgroundImageFix"/>
<feColorMatrix in="SourceAlpha" type="matrix" values="0 0 0 0 0 0 0 0 0 0 0 0 0 0 0 0 0 0 127 0" result="hardAlpha"/>
<feOffset/>
<feGaussianBlur stdDeviation="12.5"/>
<feComposite in2="hardAlpha" operator="out"/>
<feColorMatrix type="matrix" values="0 0 0 0 0.27451 0 0 0 0 0.870588 0 0 0 0 1 0 0 0 1 0"/>
<feBlend mode="normal" in2="BackgroundImageFix" result="effect1_dropShadow_230_57"/>
<feBlend mode="normal" in="SourceGraphic" in2="effect1_dropShadow_230_57" result="shape"/>
</filter>
<filter id="filter4_d_230_57" x="81" y="1496" width="202.167" height="84" filterUnits="userSpaceOnUse" color-interpolation-filters="sRGB">
<feFlood flood-opacity="0" result="BackgroundImageFix"/>
<feColorMatrix in="SourceAlpha" type="matrix" values="0 0 0 0 0 0 0 0 0 0 0 0 0 0 0 0 0 0 127 0" result="hardAlpha"/>
<feOffset/>
<feGaussianBlur stdDeviation="12.5"/>
<feComposite in2="hardAlpha" operator="out"/>
<feColorMatrix type="matrix" values="0 0 0 0 0.27451 0 0 0 0 0.870588 0 0 0 0 1 0 0 0 1 0"/>
<feBlend mode="normal" in2="BackgroundImageFix" result="effect1_dropShadow_230_57"/>
<feBlend mode="normal" in="SourceGraphic" in2="effect1_dropShadow_230_57" result="shape"/>
</filter>
<filter id="filter5_d_230_57" x="136.9" y="1509" width="152.367" height="58" filterUnits="userSpaceOnUse" color-interpolation-filters="sRGB">
<feFlood flood-opacity="0" result="BackgroundImageFix"/>
<feColorMatrix in="SourceAlpha" type="matrix" values="0 0 0 0 0 0 0 0 0 0 0 0 0 0 0 0 0 0 127 0" result="hardAlpha"/>
<feOffset/>
<feGaussianBlur stdDeviation="12.5"/>
<feComposite in2="hardAlpha" operator="out"/>
<feColorMatrix type="matrix" values="0 0 0 0 0.27451 0 0 0 0 0.870588 0 0 0 0 1 0 0 0 1 0"/>
<feBlend mode="normal" in2="BackgroundImageFix" result="effect1_dropShadow_230_57"/>
<feBlend mode="normal" in="SourceGraphic" in2="effect1_dropShadow_230_57" result="shape"/>
</filter>
<filter id="filter6_d_230_57" x="62" y="837" width="278" height="89" filterUnits="userSpaceOnUse" color-interpolation-filters="sRGB">
<feFlood flood-opacity="0" result="BackgroundImageFix"/>
<feColorMatrix in="SourceAlpha" type="matrix" values="0 0 0 0 0 0 0 0 0 0 0 0 0 0 0 0 0 0 127 0" result="hardAlpha"/>
<feOffset/>
<feGaussianBlur stdDeviation="12.5"/>
<feComposite in2="hardAlpha" operator="out"/>
<feColorMatrix type="matrix" values="0 0 0 0 1 0 0 0 0 0 0 0 0 0 0 0 0 0 1 0"/>
<feBlend mode="normal" in2="BackgroundImageFix" result="effect1_dropShadow_230_57"/>
<feBlend mode="normal" in="SourceGraphic" in2="effect1_dropShadow_230_57" result="shape"/>
</filter>
<filter id="filter7_d_230_57" x="98" y="852" width="203.382" height="59.1765" filterUnits="userSpaceOnUse" color-interpolation-filters="sRGB">
<feFlood flood-opacity="0" result="BackgroundImageFix"/>
<feColorMatrix in="SourceAlpha" type="matrix" values="0 0 0 0 0 0 0 0 0 0 0 0 0 0 0 0 0 0 127 0" result="hardAlpha"/>
<feOffset/>
<feGaussianBlur stdDeviation="12.5"/>
<feComposite in2="hardAlpha" operator="out"/>
<feColorMatrix type="matrix" values="0 0 0 0 1 0 0 0 0 0 0 0 0 0 0 0 0 0 1 0"/>
<feBlend mode="normal" in2="BackgroundImageFix" result="effect1_dropShadow_230_57"/>
<feBlend mode="normal" in="SourceGraphic" in2="effect1_dropShadow_230_57" result="shape"/>
</filter>
<filter id="filter8_d_230_57" x="1256" y="1246.91" width="89" height="226.098" filterUnits="userSpaceOnUse" color-interpolation-filters="sRGB">
<feFlood flood-opacity="0" result="BackgroundImageFix"/>
<feColorMatrix in="SourceAlpha" type="matrix" values="0 0 0 0 0 0 0 0 0 0 0 0 0 0 0 0 0 0 127 0" result="hardAlpha"/>
<feOffset/>
<feGaussianBlur stdDeviation="12.5"/>
<feComposite in2="hardAlpha" operator="out"/>
<feColorMatrix type="matrix" values="0 0 0 0 1 0 0 0 0 0 0 0 0 0 0 0 0 0 1 0"/>
<feBlend mode="normal" in2="BackgroundImageFix" result="effect1_dropShadow_230_57"/>
<feBlend mode="normal" in="SourceGraphic" in2="effect1_dropShadow_230_57" result="shape"/>
</filter>
<filter id="filter9_d_230_57" x="1271" y="1272" width="59.1765" height="168.466" filterUnits="userSpaceOnUse" color-interpolation-filters="sRGB">
<feFlood flood-opacity="0" result="BackgroundImageFix"/>
<feColorMatrix in="SourceAlpha" type="matrix" values="0 0 0 0 0 0 0 0 0 0 0 0 0 0 0 0 0 0 127 0" result="hardAlpha"/>
<feOffset/>
<feGaussianBlur stdDeviation="12.5"/>
<feComposite in2="hardAlpha" operator="out"/>
<feColorMatrix type="matrix" values="0 0 0 0 1 0 0 0 0 0 0 0 0 0 0 0 0 0 1 0"/>
<feBlend mode="normal" in2="BackgroundImageFix" result="effect1_dropShadow_230_57"/>
<feBlend mode="normal" in="SourceGraphic" in2="effect1_dropShadow_230_57" result="shape"/>
</filter>
<filter id="filter10_f_230_57" x="1023.86" y="1041.06" width="509.976" height="632.052" filterUnits="userSpaceOnUse" color-interpolation-filters="sRGB">
<feFlood flood-opacity="0" result="BackgroundImageFix"/>
<feBlend mode="normal" in="SourceGraphic" in2="BackgroundImageFix" result="shape"/>
<feGaussianBlur stdDeviation="100" result="effect1_foregroundBlur_230_57"/>
</filter>
<filter id="filter11_f_230_57" x="-208.725" y="650.283" width="672.784" height="459.507" filterUnits="userSpaceOnUse" color-interpolation-filters="sRGB">
<feFlood flood-opacity="0" result="BackgroundImageFix"/>
<feBlend mode="normal" in="SourceGraphic" in2="BackgroundImageFix" result="shape"/>
<feGaussianBlur stdDeviation="100" result="effect1_foregroundBlur_230_57"/>
</filter>
<filter id="filter12_f_230_57" x="705.596" y="2388.19" width="740.389" height="580.771" filterUnits="userSpaceOnUse" color-interpolation-filters="sRGB">
<feFlood flood-opacity="0" result="BackgroundImageFix"/>
<feBlend mode="normal" in="SourceGraphic" in2="BackgroundImageFix" result="shape"/>
<feGaussianBlur stdDeviation="100" result="effect1_foregroundBlur_230_57"/>
</filter>
<filter id="filter13_f_230_57" x="218.697" y="196.407" width="1011.86" height="448.507" filterUnits="userSpaceOnUse" color-interpolation-filters="sRGB">
<feFlood flood-opacity="0" result="BackgroundImageFix"/>
<feBlend mode="normal" in="SourceGraphic" in2="BackgroundImageFix" result="shape"/>
<feGaussianBlur stdDeviation="100" result="effect1_foregroundBlur_230_57"/>
</filter>
<filter id="filter14_f_230_57" x="861.023" y="579.329" width="672.91" height="493.422" filterUnits="userSpaceOnUse" color-interpolation-filters="sRGB">
<feFlood flood-opacity="0" result="BackgroundImageFix"/>
<feBlend mode="normal" in="SourceGraphic" in2="BackgroundImageFix" result="shape"/>
<feGaussianBlur stdDeviation="100" result="effect1_foregroundBlur_230_57"/>
</filter>
<filter id="filter15_f_230_57" x="-128.641" y="1299.34" width="672.967" height="508.707" filterUnits="userSpaceOnUse" color-interpolation-filters="sRGB">
<feFlood flood-opacity="0" result="BackgroundImageFix"/>
<feBlend mode="normal" in="SourceGraphic" in2="BackgroundImageFix" result="shape"/>
<feGaussianBlur stdDeviation="100" result="effect1_foregroundBlur_230_57"/>
</filter>
<filter id="filter16_dd_230_57" x="549.461" y="415" width="720.332" height="172.141" filterUnits="userSpaceOnUse" color-interpolation-filters="sRGB">
<feFlood flood-opacity="0" result="BackgroundImageFix"/>
<feColorMatrix in="SourceAlpha" type="matrix" values="0 0 0 0 0 0 0 0 0 0 0 0 0 0 0 0 0 0 127 0" result="hardAlpha"/>
<feOffset/>
<feGaussianBlur stdDeviation="25"/>
<feComposite in2="hardAlpha" operator="out"/>
<feColorMatrix type="matrix" values="0 0 0 0 0.275 0 0 0 0 0.8695 0 0 0 0 1 0 0 0 1 0"/>
<feBlend mode="normal" in2="BackgroundImageFix" result="effect1_dropShadow_230_57"/>
<feColorMatrix in="SourceAlpha" type="matrix" values="0 0 0 0 0 0 0 0 0 0 0 0 0 0 0 0 0 0 127 0" result="hardAlpha"/>
<feOffset/>
<feGaussianBlur stdDeviation="25"/>
<feComposite in2="hardAlpha" operator="out"/>
<feColorMatrix type="matrix" values="0 0 0 0 0.275 0 0 0 0 0.8695 0 0 0 0 1 0 0 0 1 0"/>
<feBlend mode="normal" in2="effect1_dropShadow_230_57" result="effect2_dropShadow_230_57"/>
<feBlend mode="normal" in="SourceGraphic" in2="effect2_dropShadow_230_57" result="shape"/>
</filter>
<filter id="filter17_d_230_57" x="240.914" y="392" width="271.047" height="234" filterUnits="userSpaceOnUse" color-interpolation-filters="sRGB">
<feFlood flood-opacity="0" result="BackgroundImageFix"/>
<feColorMatrix in="SourceAlpha" type="matrix" values="0 0 0 0 0 0 0 0 0 0 0 0 0 0 0 0 0 0 127 0" result="hardAlpha"/>
<feOffset/>
<feGaussianBlur stdDeviation="12.5"/>
<feComposite in2="hardAlpha" operator="out"/>
<feColorMatrix type="matrix" values="0 0 0 0 1 0 0 0 0 1 0 0 0 0 1 0 0 0 0.6 0"/>
<feBlend mode="normal" in2="BackgroundImageFix" result="effect1_dropShadow_230_57"/>
<feBlend mode="normal" in="SourceGraphic" in2="effect1_dropShadow_230_57" result="shape"/>
</filter>
<filter id="filter18_f_230_57" x="1003.33" y="1083.38" width="558.109" height="552.594" filterUnits="userSpaceOnUse" color-interpolation-filters="sRGB">
<feFlood flood-opacity="0" result="BackgroundImageFix"/>
<feBlend mode="normal" in="SourceGraphic" in2="BackgroundImageFix" result="shape"/>
<feGaussianBlur stdDeviation="100" result="effect1_foregroundBlur_230_57"/>
</filter>
<filter id="filter19_f_230_57" x="-84.0334" y="4389.16" width="454.203" height="532.421" filterUnits="userSpaceOnUse" color-interpolation-filters="sRGB">
<feFlood flood-opacity="0" result="BackgroundImageFix"/>
<feBlend mode="normal" in="SourceGraphic" in2="BackgroundImageFix" result="shape"/>
<feGaussianBlur stdDeviation="100" result="effect1_foregroundBlur_230_57"/>
</filter>
<filter id="filter20_f_230_57" x="36.5898" y="4372.33" width="464.404" height="529.223" filterUnits="userSpaceOnUse" color-interpolation-filters="sRGB">
<feFlood flood-opacity="0" result="BackgroundImageFix"/>
<feBlend mode="normal" in="SourceGraphic" in2="BackgroundImageFix" result="shape"/>
<feGaussianBlur stdDeviation="100" result="effect1_foregroundBlur_230_57"/>
</filter>
<filter id="filter21_d_230_57" x="171.898" y="4591.88" width="108.641" height="122" filterUnits="userSpaceOnUse" color-interpolation-filters="sRGB">
<feFlood flood-opacity="0" result="BackgroundImageFix"/>
<feColorMatrix in="SourceAlpha" type="matrix" values="0 0 0 0 0 0 0 0 0 0 0 0 0 0 0 0 0 0 127 0" result="hardAlpha"/>
<feOffset/>
<feGaussianBlur stdDeviation="12.5"/>
<feComposite in2="hardAlpha" operator="out"/>
<feColorMatrix type="matrix" values="0 0 0 0 0.00416667 0 0 0 0 0.82075 0 0 0 0 1 0 0 0 0.8 0"/>
<feBlend mode="normal" in2="BackgroundImageFix" result="effect1_dropShadow_230_57"/>
<feBlend mode="normal" in="SourceGraphic" in2="effect1_dropShadow_230_57" result="shape"/>
</filter>
<filter id="filter22_d_230_57" x="145.461" y="4591.88" width="108.641" height="122" filterUnits="userSpaceOnUse" color-interpolation-filters="sRGB">
<feFlood flood-opacity="0" result="BackgroundImageFix"/>
<feColorMatrix in="SourceAlpha" type="matrix" values="0 0 0 0 0 0 0 0 0 0 0 0 0 0 0 0 0 0 127 0" result="hardAlpha"/>
<feOffset/>
<feGaussianBlur stdDeviation="12.5"/>
<feComposite in2="hardAlpha" operator="out"/>
<feColorMatrix type="matrix" values="0 0 0 0 1 0 0 0 0 0 0 0 0 0 0 0 0 0 0.8 0"/>
<feBlend mode="normal" in2="BackgroundImageFix" result="effect1_dropShadow_230_57"/>
<feBlend mode="normal" in="SourceGraphic" in2="effect1_dropShadow_230_57" result="shape"/>
</filter>
<clipPath id="clip0_230_57">
<rect width="1440" height="4977" fill="white"/>
</clipPath>
</defs>
</svg>
