<svg width="1880" height="1880" viewBox="0 0 1880 1880" fill="none" xmlns="http://www.w3.org/2000/svg">
<g opacity="0.2" clip-path="url(#clip0_90_322)">
<g style="mix-blend-mode:lighten">
<path fill-rule="evenodd" clip-rule="evenodd" d="M927.643 1647.93L925.671 1760.87L923.672 1760.84L925.643 1647.89C884.573 1647.17 844.381 1642.96 805.344 1635.55L783.848 1746.14L781.884 1745.76L803.38 1635.18C763.253 1627.45 724.354 1616.34 686.985 1602.16L646.736 1707.01L644.869 1706.29L685.116 1601.45C647.115 1586.9 610.706 1569.19 576.207 1548.62L518.504 1644.66L516.789 1643.63L574.491 1547.6C539.715 1526.74 506.892 1502.98 476.35 1476.66L403.046 1560.99L401.537 1559.68L474.836 1475.36C444.262 1448.86 415.99 1419.8 390.352 1388.51L303.872 1458.54L302.613 1456.99L389.087 1386.96C363.587 1355.66 340.715 1322.15 320.803 1286.77L223.994 1340.43L223.024 1338.68L319.824 1285.02C300.172 1249.87 283.436 1212.89 269.936 1174.4L165.839 1210.24L165.188 1208.35L269.276 1172.51C256.103 1134.61 246.066 1095.26 239.47 1054.78L131.175 1071.93L130.862 1069.96L239.151 1052.81C232.841 1013.38 229.795 972.882 230.295 931.612L121.055 929.706L121.09 927.706L230.322 929.613C230.331 928.993 230.341 928.374 230.352 927.755C231.062 887.091 235.187 847.288 242.449 808.615L135.786 787.882L136.167 785.919L242.821 806.65C250.522 766.267 261.646 727.122 275.874 689.523L174.92 650.771L175.637 648.903L276.585 687.654C291.182 649.408 308.995 612.772 329.688 578.069L237.27 522.538L238.3 520.824L330.715 576.352C351.708 541.37 375.633 508.365 402.144 477.671L320.939 407.08L322.251 405.571L403.453 476.159C430.137 445.44 459.417 417.052 490.945 391.334L423.386 307.906L424.941 306.647L492.497 390.072C524.021 364.504 557.776 341.598 593.415 321.688L541.499 228.028L543.248 227.058L595.163 320.715C630.543 301.08 667.768 284.394 706.502 270.982L671.687 169.873L673.578 169.222L708.392 270.33C746.498 257.256 786.053 247.348 826.739 240.915L809.997 135.209L811.972 134.896L828.714 240.605C868.295 234.461 908.939 231.605 950.352 232.319L952.224 125.089L954.224 125.124L952.352 232.357C993.75 233.186 1034.25 237.555 1073.57 245.169L1094.05 139.82L1096.01 140.201L1075.53 245.552C1115.92 253.493 1155.06 264.86 1192.63 279.333L1231.16 178.955L1233.03 179.671L1194.49 280.055C1232.66 294.883 1269.2 312.919 1303.8 333.829L1359.39 241.304L1361.11 242.334L1305.51 334.866C1340.34 356.05 1373.18 380.151 1403.7 406.823L1474.85 324.973L1476.36 326.286L1405.2 408.142C1435.71 434.954 1463.88 464.342 1489.39 495.959L1574.02 427.421L1575.28 428.975L1490.64 497.518C1515.96 529.094 1538.63 562.877 1558.3 598.523L1653.9 545.533L1654.87 547.282L1559.27 600.275C1578.65 635.624 1595.1 672.794 1608.29 711.45L1712.06 675.721L1712.71 677.613L1608.94 713.344C1621.78 751.337 1631.48 790.758 1637.74 831.292L1746.72 814.031L1747.03 816.006L1638.04 833.269C1643.92 872.079 1646.64 911.903 1645.93 952.464C1645.92 953.083 1645.91 953.702 1645.89 954.321L1756.84 956.258L1756.81 958.258L1645.85 956.321C1644.91 997.48 1640.47 1037.75 1632.83 1076.84L1742.11 1098.08L1741.73 1100.05L1632.44 1078.8C1624.47 1118.93 1613.12 1157.82 1598.7 1195.16L1702.97 1235.19L1702.26 1237.06L1597.97 1197.03C1583.2 1234.95 1565.26 1271.27 1544.49 1305.66L1640.63 1363.43L1639.6 1365.14L1543.45 1307.37C1522.4 1341.99 1498.46 1374.65 1471.99 1405.02L1556.96 1478.88L1555.64 1480.39L1470.67 1406.53C1444.05 1436.89 1414.88 1464.95 1383.5 1490.37L1454.51 1578.06L1452.95 1579.32L1381.95 1491.63C1350.6 1516.89 1317.06 1539.52 1281.67 1559.2L1336.4 1657.94L1334.65 1658.91L1279.92 1560.17C1244.8 1579.57 1207.87 1596.07 1169.45 1609.35L1206.21 1716.09L1204.32 1716.74L1167.56 1610C1129.77 1622.94 1090.56 1632.78 1050.23 1639.19L1067.9 1750.75L1065.92 1751.07L1048.25 1639.51C1009 1645.64 968.703 1648.54 927.643 1647.93ZM1635.28 954.136C1635.29 953.517 1635.3 952.898 1635.31 952.278C1636.01 912.346 1633.33 873.14 1627.55 834.93L1497.44 855.538C1502 886.156 1504.11 917.558 1503.55 949.534C1503.54 950.302 1503.52 951.069 1503.51 951.836L1635.28 954.136ZM1503.46 953.836L1635.23 956.136C1634.31 996.666 1629.93 1036.32 1622.4 1074.81L1492.94 1049.65C1499.06 1018.57 1502.64 986.556 1503.46 953.836ZM1495.02 951.688C1495.03 950.921 1495.05 950.154 1495.06 949.386C1495.61 917.913 1493.54 887.004 1489.05 856.866L1357.73 877.666C1361.05 900.307 1362.58 923.517 1362.16 947.145C1362.15 947.887 1362.14 948.628 1362.12 949.368L1495.02 951.688ZM1362.07 951.368L1494.97 953.687C1494.17 985.905 1490.64 1017.42 1484.61 1048.03L1354.12 1022.67C1358.7 999.534 1361.41 975.714 1362.07 951.368ZM1353.63 949.22C1353.65 948.48 1353.66 947.739 1353.68 946.997C1354.08 923.872 1352.59 901.155 1349.34 878.994L950.393 942.181L1353.63 949.22ZM950.358 944.181L1353.58 951.219C1352.93 975.063 1350.28 998.391 1345.79 1021.05L950.358 944.181ZM927.536 941.783L528.683 864.253C524.621 886.418 522.311 909.208 521.905 932.478C521.892 933.22 521.881 933.961 521.872 934.702L927.536 941.783ZM521.853 936.702L927.502 943.782L527.272 1007.17C523.532 984.244 521.672 960.698 521.853 936.702ZM513.385 934.553C513.394 933.813 513.405 933.072 513.418 932.33C513.833 908.558 516.194 885.275 520.348 862.633L389.693 837.236C384.105 867.337 380.929 898.303 380.377 929.929C380.364 930.697 380.352 931.464 380.342 932.231L513.385 934.553ZM380.318 934.231L513.365 936.553C513.176 961.053 515.071 985.092 518.886 1008.5L387.453 1029.32C382.449 998.383 379.998 966.611 380.318 934.231ZM371.854 932.083C371.864 931.316 371.876 930.549 371.89 929.781C372.45 897.652 375.678 866.194 381.358 835.616L252.874 810.642C245.727 848.718 241.668 887.905 240.969 927.94C240.958 928.559 240.948 929.179 240.939 929.798L371.854 932.083ZM240.912 931.798L371.831 934.083C371.501 966.966 373.988 999.231 379.067 1030.65L249.64 1051.14C243.425 1012.32 240.423 972.438 240.912 931.798ZM329.113 1279.88C309.759 1245.26 293.276 1208.84 279.979 1170.94L403.987 1128.24C414.81 1158.86 428.198 1188.28 443.896 1216.25L329.113 1279.88ZM451.322 1212.13C435.862 1184.6 422.677 1155.63 412.015 1125.48L537.837 1082.15C545.952 1104.93 555.961 1126.82 567.678 1147.64L451.322 1212.13ZM411.352 1123.59L537.17 1080.27C529.285 1057.8 523.239 1034.47 519.212 1010.47L387.776 1031.29C393.027 1063.03 400.965 1093.88 411.352 1123.59ZM575.103 1143.52C563.625 1123.14 553.819 1101.7 545.866 1079.39L928.466 947.648L575.103 1143.52ZM545.199 1077.5L927.814 945.758L527.598 1009.15C531.548 1032.65 537.472 1055.49 545.199 1077.5ZM1349.05 877.015L950.08 940.206L1332.61 808.491C1339.95 830.579 1345.49 853.48 1349.05 877.015ZM949.43 938.315L1331.97 806.594C1324.38 784.118 1314.92 762.491 1303.76 741.904L949.43 938.315ZM1357.44 875.687C1353.8 851.658 1348.14 828.277 1340.64 805.726L1466.38 762.429C1476.37 792.221 1483.91 823.123 1488.76 854.888L1357.44 875.687ZM1340 803.83L1465.74 760.534C1455.46 730.216 1442.63 701.056 1427.51 673.311L1311.19 737.788C1322.58 758.804 1332.25 780.883 1340 803.83ZM1497.14 853.56C1492.22 821.3 1484.56 789.919 1474.41 759.664L1598.89 716.802C1611.54 754.217 1621.09 793.037 1627.25 832.953L1497.14 853.56ZM1473.77 757.769L1598.25 714.908C1585.26 676.84 1569.06 640.236 1549.98 605.424L1434.93 669.195C1450.29 697.369 1463.32 726.981 1473.77 757.769ZM279.319 1169.05L403.323 1126.35C392.777 1096.18 384.719 1064.85 379.39 1032.62L249.959 1053.12C256.458 1092.98 266.345 1131.73 279.319 1169.05ZM397.339 1380.28C372.227 1349.46 349.703 1316.46 330.092 1281.62L444.878 1217.99C460.797 1246.12 479.056 1272.75 499.398 1297.64L397.339 1380.28ZM505.995 1292.29C485.964 1267.79 467.982 1241.57 452.304 1213.88L568.663 1149.38C580.562 1170.28 594.189 1190.09 609.353 1208.6L505.995 1292.29ZM615.951 1203.25C601.097 1185.13 587.748 1165.73 576.089 1145.26L929.435 949.398L615.951 1203.25ZM948.459 936.566L1302.81 740.148C1291.43 719.393 1278.34 699.705 1263.71 681.281L948.459 936.566ZM1310.23 736.032L1426.55 671.557C1411.17 643.578 1393.45 617.051 1373.66 592.244L1270.31 675.938C1285.25 694.745 1298.62 714.843 1310.23 736.032ZM1433.97 667.441L1549.02 603.672C1529.64 568.567 1507.32 535.298 1482.39 504.2L1380.26 586.901C1400.36 612.092 1418.35 639.029 1433.97 667.441ZM1481.13 502.642C1456.02 471.505 1428.28 442.562 1398.24 416.156L1312.09 515.253C1336.34 536.666 1358.74 560.12 1379.01 585.34L1481.13 502.642ZM1372.41 590.683C1352.45 565.846 1330.4 542.749 1306.52 521.66L1219.26 622.043C1237.3 638.045 1253.97 655.556 1269.06 674.375L1372.41 590.683ZM1262.46 679.717C1247.68 661.282 1231.36 644.127 1213.69 628.45L947.201 935.011L1262.46 679.717ZM617.222 1204.8L930.694 950.952L666.409 1254.98C648.636 1239.66 632.178 1222.87 617.222 1204.8ZM507.264 1293.84L610.625 1210.14C625.892 1228.59 642.694 1245.74 660.84 1261.38L573.599 1361.74C549.609 1341.03 527.412 1318.3 507.264 1293.84ZM398.605 1381.83L500.666 1299.18C521.125 1324.03 543.667 1347.11 568.03 1368.15L481.803 1467.34C451.695 1441.26 423.853 1412.64 398.605 1381.83ZM688.922 1591.53C651.503 1577.21 615.65 1559.77 581.677 1539.52L649.435 1426.75C676.902 1443.04 705.877 1457.08 736.108 1468.61L688.922 1591.53ZM739.151 1460.68C709.384 1449.33 680.855 1435.51 653.808 1419.48L722.298 1305.49C742.752 1317.57 764.315 1327.98 786.804 1336.54L739.151 1460.68ZM652.089 1418.45L720.578 1304.47C699.97 1292.17 680.501 1278.18 662.358 1262.69L575.115 1363.05C599.085 1383.6 624.827 1402.16 652.089 1418.45ZM789.847 1328.61C767.823 1320.23 746.704 1310.04 726.671 1298.21L933.918 953.295L789.847 1328.61ZM724.951 1297.19L932.204 952.264L667.928 1256.28C685.698 1271.45 704.768 1285.15 724.951 1297.19ZM1212.19 627.126L945.692 933.699L1155.19 585.042C1175.4 597.459 1194.47 611.553 1212.19 627.126ZM943.977 932.67L1153.48 584C1133.36 571.773 1112.11 561.204 1089.92 552.483L943.977 932.67ZM1217.76 620.72C1199.66 604.823 1180.2 590.437 1159.56 577.764L1228.08 463.723C1255.37 480.407 1281.1 499.369 1305.02 520.339L1217.76 620.72ZM1157.85 576.722L1226.37 462.683C1199.24 446.228 1170.58 432.019 1140.65 420.319L1092.96 544.555C1115.62 553.455 1137.31 564.242 1157.85 576.722ZM1310.59 513.932C1286.3 492.639 1260.17 473.385 1232.45 456.445L1300.04 343.969C1334.33 364.834 1366.68 388.57 1396.73 414.837L1310.59 513.932ZM1230.75 455.405L1298.33 342.932C1264.26 322.34 1228.27 304.575 1190.69 289.971L1143.69 412.392C1174.09 424.271 1203.19 438.697 1230.75 455.405ZM579.96 1538.5L647.716 1425.73C620.03 1409.18 593.887 1390.33 569.545 1369.45L483.316 1468.65C513.393 1494.56 545.716 1517.95 579.96 1538.5ZM805.406 1624.75C765.893 1617.14 727.589 1606.2 690.791 1592.24L737.978 1469.32C767.707 1480.53 798.641 1489.31 830.545 1495.43L805.406 1624.75ZM832.165 1487.09C800.752 1481.07 770.293 1472.43 741.021 1461.39L788.675 1337.24C810.798 1345.54 833.808 1352.05 857.531 1356.59L832.165 1487.09ZM859.151 1348.26C835.919 1343.81 813.385 1337.44 791.718 1329.32L935.785 954.01L859.151 1348.26ZM942.11 931.952L1088.05 551.756C1066.17 543.279 1043.39 536.597 1019.87 531.892L942.11 931.952ZM1091.1 543.828L1138.79 419.595C1109.3 408.191 1078.58 399.219 1046.89 392.927L1021.49 523.558C1045.5 528.357 1068.76 535.177 1091.1 543.828ZM1141.83 411.668L1188.82 289.249C1151.82 274.995 1113.28 263.799 1073.51 255.977L1048.51 384.593C1080.7 390.979 1111.88 400.089 1141.83 411.668ZM1492.55 1051.61L1622.02 1076.78C1614.17 1116.29 1602.98 1154.59 1588.78 1191.36L1465.59 1144.07C1477.09 1114.4 1486.16 1083.5 1492.55 1051.61ZM1353.73 1024.63L1484.22 1049.99C1477.92 1081.39 1468.99 1111.81 1457.67 1141.03L1333.56 1093.39C1342.14 1071.32 1348.92 1048.34 1353.73 1024.63ZM949.977 946.145L1345.39 1023.01C1340.68 1046.22 1334.03 1068.73 1325.64 1090.35L949.977 946.145ZM927.918 939.819L548.082 794.014C539.883 815.943 533.477 838.759 529.048 862.287L927.918 939.819ZM520.714 860.667C525.238 836.648 531.78 813.356 540.155 790.971L415.873 743.264C404.754 772.805 396.068 803.554 390.062 835.271L520.714 860.667ZM381.727 833.651C387.828 801.443 396.652 770.219 407.946 740.221L285.79 693.33C271.781 730.357 260.829 768.907 253.246 808.676L381.727 833.651ZM416.581 741.393L540.86 789.1C549.501 766.334 560.041 744.516 572.283 723.834L458.18 655.274C441.969 682.553 428.015 711.344 416.581 741.393ZM548.787 792.142L928.635 937.952L579.561 728.207C567.572 748.468 557.25 769.842 548.787 792.142ZM1293.78 1155.02L949.261 948.012L1324.91 1092.21C1316.27 1114.13 1305.83 1135.12 1293.78 1155.02ZM1301.05 1159.39C1313.36 1139.07 1324.02 1117.63 1332.84 1095.25L1456.94 1142.89C1445.33 1172.54 1431.26 1200.94 1414.98 1227.84L1301.05 1159.39ZM1422.26 1232.22C1438.79 1204.89 1453.08 1176.05 1464.87 1145.94L1588.06 1193.22C1573.51 1230.56 1555.84 1266.32 1535.38 1300.19L1422.26 1232.22ZM286.501 691.46L408.654 738.35C420.266 707.837 434.438 678.601 450.903 650.902L338.791 583.538C318.415 617.715 300.875 653.796 286.501 691.46ZM1463.97 1398.06C1490.05 1368.15 1513.61 1335.99 1534.35 1301.9L1421.22 1233.93C1404.45 1261.41 1385.42 1287.35 1364.37 1311.47L1463.97 1398.06ZM1363.05 1312.98L1462.66 1399.56C1436.44 1429.46 1407.72 1457.09 1376.82 1482.12L1293.76 1379.55C1318.69 1359.36 1341.88 1337.08 1363.05 1312.98ZM1357.96 1305.9C1378.69 1282.15 1397.43 1256.61 1413.94 1229.55L1300.01 1161.1C1287.51 1181.51 1273.33 1200.78 1257.67 1218.72L1357.96 1305.9ZM1256.35 1220.22L1356.65 1307.41C1335.8 1331.13 1312.97 1353.07 1288.42 1372.96L1204.79 1269.69C1223.33 1254.67 1240.58 1238.12 1256.35 1220.22ZM1251.27 1213.15C1266.6 1195.59 1280.49 1176.72 1292.73 1156.73L948.23 949.726L1251.27 1213.15ZM946.917 951.235L1249.95 1214.65C1234.5 1232.18 1217.6 1248.38 1199.45 1263.09L946.917 951.235ZM930.977 934.728L674.358 617.83C656.005 632.864 638.956 649.44 623.41 667.364L930.977 934.728ZM622.103 668.878L929.666 936.238L580.583 726.488C592.793 706.08 606.699 686.812 622.103 668.878ZM617.003 661.795C632.873 643.498 650.279 626.578 669.015 611.233L585.253 507.795C560.499 528.019 537.508 550.333 516.553 574.475L617.003 661.795ZM515.245 575.988L615.696 663.309C599.969 681.615 585.771 701.282 573.306 722.116L459.205 653.557C475.677 626.065 494.447 600.122 515.245 575.988ZM510.147 568.906C531.426 544.391 554.773 521.733 579.911 501.198L497.628 399.586C466.58 424.915 437.745 452.872 411.467 483.125L510.147 568.906ZM410.158 484.637L508.838 570.419C487.717 594.924 468.655 621.268 451.928 649.184L339.818 581.822C360.492 547.371 384.052 514.866 410.158 484.637ZM1292.21 1380.81L1375.26 1483.38C1344.39 1508.25 1311.36 1530.53 1276.52 1549.91L1212.53 1434.48C1240.64 1418.83 1267.29 1400.86 1292.21 1380.81ZM1203.24 1270.94L1286.86 1374.21C1262.33 1393.95 1236.09 1411.65 1208.41 1427.05L1143.98 1310.81C1164.87 1299.17 1184.69 1285.82 1203.24 1270.94ZM945.364 952.494L1197.89 1264.34C1179.73 1278.91 1160.33 1291.99 1139.86 1303.38L945.364 952.494ZM932.532 933.47L734.737 576.639C713.969 588.279 694.292 601.652 675.908 616.566L932.532 933.47ZM670.566 609.969C689.333 594.745 709.419 581.094 730.621 569.213L666.086 452.789C638.09 468.443 611.573 486.444 586.805 506.533L670.566 609.969ZM581.462 499.936C606.613 479.537 633.541 461.258 661.97 445.363L598.564 330.976C563.466 350.585 530.224 373.145 499.179 398.324L581.462 499.936ZM667.833 451.816L732.368 568.24C753.441 556.562 775.604 546.627 798.659 538.627L755.319 412.758C724.887 423.296 695.637 436.4 667.833 451.816ZM736.484 575.666L934.281 932.5L801.424 546.656C778.839 554.493 757.128 564.226 736.484 575.666ZM1074.23 1332.8L943.614 953.464L1138.12 1304.35C1117.79 1315.55 1096.43 1325.09 1074.23 1332.8ZM1076.99 1340.82C1099.67 1332.95 1121.47 1323.21 1142.23 1311.78L1206.67 1428.02C1179.19 1443.19 1150.3 1456.1 1120.27 1466.51L1076.99 1340.82ZM1123.03 1474.53C1153.54 1463.96 1182.87 1450.85 1210.78 1435.45L1274.77 1550.88C1240.18 1569.98 1203.82 1586.23 1166 1599.31L1123.03 1474.53ZM600.311 330.003L663.717 444.39C691.951 428.736 721.652 415.43 752.555 404.73L709.96 281.024C671.815 294.234 635.155 310.667 600.311 330.003ZM1121.14 1475.19L1164.1 1599.96C1126.89 1612.7 1088.28 1622.38 1048.57 1628.71L1027.93 1498.43C1059.97 1493.3 1091.12 1485.47 1121.14 1475.19ZM1075.1 1341.47L1118.38 1467.16C1088.81 1477.28 1058.14 1484.99 1026.61 1490.05L1005.81 1358.76C1029.62 1354.93 1052.77 1349.11 1075.1 1341.47ZM941.724 954.115L1072.34 1333.45C1050.47 1340.92 1027.8 1346.62 1004.49 1350.38L941.724 954.115ZM936.172 931.849L872.35 528.896C848.623 532.647 825.55 538.409 803.315 546.005L936.172 931.849ZM800.551 537.976C823.248 530.221 846.801 524.339 871.022 520.51L850.201 389.051C818.235 394.093 787.155 401.859 757.21 412.107L800.551 537.976ZM754.446 404.079C784.853 393.671 816.413 385.785 848.873 380.665L828.4 251.404C788.332 257.74 749.377 267.498 711.85 280.372L754.446 404.079ZM852.177 388.742L872.998 520.203C896.5 516.602 920.623 514.933 945.198 515.362L945.412 515.366L947.734 382.322L947.448 382.316C915.017 381.75 883.184 383.966 852.177 388.742ZM874.327 528.589L938.147 931.536L945.263 523.854L945.05 523.85C920.978 523.43 897.348 525.063 874.327 528.589ZM932.745 1355.66L939.748 954.428L1002.51 1350.69C979.798 1354.24 956.489 1355.95 932.745 1355.66ZM932.596 1364.15C956.844 1364.45 980.646 1362.7 1003.84 1359.08L1024.63 1490.36C993.921 1495.17 962.396 1497.47 930.277 1497.03L932.596 1364.15ZM930.129 1505.52C962.75 1505.96 994.769 1503.63 1025.96 1498.75L1046.59 1629.02C1007.94 1635.05 968.259 1637.91 927.828 1637.31L930.129 1505.52ZM830.376 251.094L850.849 380.357C882.336 375.505 914.662 373.254 947.597 373.829L947.882 373.834L950.167 242.936C909.383 242.233 869.356 245.045 830.376 251.094ZM930.597 1364.12L928.277 1497L927.992 1497C895.955 1496.44 864.597 1493.19 834.13 1487.47L859.497 1356.96C882.513 1361.25 906.194 1363.69 930.383 1364.11L930.597 1364.12ZM937.748 954.393L930.745 1355.63L930.531 1355.63C906.845 1355.21 883.655 1352.83 861.117 1348.63L937.748 954.393ZM940.147 931.571L1017.91 531.505C994.993 527.034 971.389 524.441 947.263 523.894L940.147 931.571ZM947.411 515.407C972.04 515.962 996.136 518.608 1019.53 523.17L1044.92 392.542C1014.05 386.529 982.243 383.059 949.733 382.361L947.411 515.407ZM949.882 373.873C982.894 374.58 1015.19 378.103 1046.54 384.208L1071.54 255.594C1032.82 248.095 992.936 243.792 952.167 242.974L949.882 373.873ZM928.129 1505.49L925.829 1637.28C885.387 1636.56 845.81 1632.42 807.37 1625.13L832.51 1495.8C863.454 1501.62 895.304 1504.92 927.843 1505.49L928.129 1505.49Z" fill="white" fill-opacity="0.79"/>
</g>
</g>
<defs>
<clipPath id="clip0_90_322">
<rect width="1880" height="1880" fill="white"/>
</clipPath>
</defs>
</svg>
