<svg width="1067" height="1060" viewBox="0 0 1067 1060" fill="none" xmlns="http://www.w3.org/2000/svg">
<path opacity="0.5" fill-rule="evenodd" clip-rule="evenodd" d="M533.986 986.708L533.978 1059.89L532.674 1059.89L532.682 986.71C505.898 986.708 479.646 984.439 454.112 980.086L441.348 1051.97L440.063 1051.74L452.827 979.865C426.578 975.314 401.092 968.56 376.568 959.801L351.513 1028.18L350.288 1027.73L375.342 959.361C350.402 950.374 326.465 939.312 303.74 926.385L267.206 989.248L266.076 988.601L302.609 925.739C279.701 912.622 258.033 897.606 237.823 880.908L190.985 936.365L189.987 935.532L236.822 880.078C216.589 863.265 197.828 844.762 180.759 824.786L125.169 871.133L124.331 870.14L179.917 823.797C162.938 803.812 147.647 782.365 134.265 759.672L71.7563 795.533L71.1043 794.411L133.607 758.553C120.398 736.007 109.068 712.239 99.8309 687.462L32.3693 711.865L31.9234 710.647L99.3797 686.247C90.3626 661.846 83.3737 636.472 78.6157 610.326L8.20611 622.669L7.9798 621.393L78.3855 609.051C73.8257 583.582 71.3821 557.385 71.2415 530.647L0 530.655L0.000146801 529.359L71.2365 529.351C71.2355 528.95 71.235 528.549 71.2351 528.147C71.238 501.799 73.4774 475.969 77.7746 450.836L8.00042 438.62L8.22703 437.344L77.9949 449.559C82.5594 423.312 89.3691 397.83 98.2203 373.313L31.9644 349.36L32.4106 348.142L98.6624 372.094C107.747 347.154 118.946 323.22 132.045 300.505L71.1637 265.586L71.8158 264.464L132.695 299.381C145.986 276.483 161.211 254.831 178.148 234.647L124.408 189.846L125.246 188.854L178.985 233.653C196.034 213.451 214.803 194.729 235.067 177.711L190.079 124.44L191.078 123.607L236.065 176.876C256.328 159.956 278.076 144.734 301.087 131.431L266.181 71.3534L267.31 70.7054L302.215 130.781C325.06 117.66 349.141 106.428 374.241 97.2993L350.401 32.2021L351.626 31.7588L375.467 96.8556C400.162 87.9534 425.839 81.0852 452.291 76.4549L440.181 8.1737L441.465 7.94855L453.576 76.2319C479.312 71.8018 505.778 69.489 532.786 69.4807L532.794 0.000146805L534.098 0L534.09 69.4821C561.09 69.548 587.544 71.9171 613.265 76.4021L625.425 7.92856L626.709 8.15342L614.549 76.6279C640.971 81.3119 666.613 88.2296 691.272 97.1774L715.258 31.7177L716.484 32.1607L692.496 97.6237C717.546 106.794 741.575 118.062 764.366 131.212L799.566 70.6452L800.696 71.2929L765.493 131.864C788.439 145.19 810.123 160.428 830.324 177.358L875.786 123.529L876.785 124.362L831.319 178.195C851.512 195.215 870.212 213.931 887.196 234.122L941.603 188.762L942.441 189.754L888.031 235.117C904.898 255.282 920.057 276.907 933.289 299.773L995.016 264.36L995.668 265.482L933.937 300.897C946.974 323.574 958.118 347.464 967.156 372.354L1034.4 348.029L1034.85 349.247L967.596 373.573C976.401 398.037 983.172 423.462 987.709 449.647L1058.57 437.226L1058.79 438.502L987.928 450.924C992.198 475.997 994.42 501.762 994.417 528.043C994.417 528.445 994.417 528.846 994.416 529.247L1066.77 529.239L1066.77 530.535L994.41 530.543C994.264 557.215 991.826 583.348 987.283 608.758L1058.77 621.274L1058.54 622.55L987.053 610.033C982.312 636.12 975.35 661.44 966.369 685.792L1034.81 710.534L1034.36 711.752L965.918 687.008C956.717 711.74 945.432 735.468 932.275 757.982L995.607 794.307L994.955 795.429L931.618 759.102C918.285 781.769 903.051 803.197 886.133 823.171L942.364 870.048L941.525 871.041L885.291 824.161C868.279 844.133 849.578 862.64 829.409 879.464L876.693 935.455L875.694 936.288L828.408 880.296C808.254 897.013 786.643 912.054 763.793 925.205L800.592 988.541L799.463 989.189L762.663 925.853C739.985 938.82 716.095 949.928 691.201 958.968L716.371 1027.69L715.145 1028.14L689.976 959.411C665.484 968.226 640.029 975.041 613.809 979.657L626.59 1051.72L625.306 1051.94L612.524 979.882C587.003 984.301 560.763 986.637 533.986 986.708ZM987.492 529.248C987.493 528.847 987.494 528.446 987.494 528.044C987.497 502.17 985.31 476.804 981.108 452.12L896.513 466.949C899.835 486.73 901.562 507.047 901.56 527.766C901.56 528.264 901.559 528.761 901.557 529.258L987.492 529.248ZM901.549 530.553L987.487 530.544C987.34 556.808 984.938 582.542 980.463 607.564L895.777 592.737C899.415 572.534 901.388 551.758 901.549 530.553ZM896.022 529.258C896.024 528.761 896.025 528.264 896.025 527.767C896.027 507.374 894.328 487.375 891.061 467.905L805.679 482.872C808.098 497.501 809.356 512.518 809.354 527.828C809.354 528.308 809.353 528.788 809.35 529.268L896.022 529.258ZM809.34 530.564L896.014 530.554C895.853 551.433 893.908 571.89 890.325 591.782L804.966 576.837C807.69 561.802 809.184 546.342 809.34 530.564ZM803.815 529.269C803.818 528.789 803.819 528.309 803.819 527.828C803.821 512.844 802.591 498.146 800.226 483.828L540.84 529.298L803.815 529.269ZM540.84 530.594L803.805 530.564C803.649 546.016 802.183 561.157 799.514 575.883L540.84 530.594ZM525.934 529.3L265.019 483.619C262.621 498.022 261.373 512.811 261.371 527.89C261.371 528.37 261.372 528.85 261.375 529.33L525.934 529.3ZM261.384 530.625L525.934 530.596L265.714 576.212C263.017 561.402 261.538 546.172 261.384 530.625ZM255.839 529.33C255.837 528.851 255.836 528.371 255.836 527.89C255.838 512.486 257.114 497.378 259.566 482.664L174.097 467.7C170.794 487.261 169.073 507.356 169.071 527.849C169.071 528.346 169.072 528.843 169.074 529.34L255.839 529.33ZM169.081 530.636L255.849 530.626C256.003 546.498 257.51 562.048 260.262 577.168L174.808 592.148C171.196 572.166 169.238 551.614 169.081 530.636ZM163.539 529.341C163.537 528.844 163.536 528.347 163.536 527.849C163.538 507.031 165.287 486.617 168.644 466.745L84.5944 452.03C80.3655 476.775 78.1619 502.206 78.1589 528.147C78.1589 528.548 78.1594 528.949 78.1604 529.35L163.539 529.341ZM78.1655 530.646L163.546 530.636C163.703 551.94 165.689 572.812 169.356 593.103L85.2054 607.855C80.7141 582.774 78.306 556.977 78.1655 530.646ZM139.605 755.112C126.596 732.911 115.437 709.506 106.339 685.108L186.706 656.038C194.108 675.748 203.17 694.656 213.72 712.592L139.605 755.112ZM218.515 709.841C208.125 692.18 199.201 673.563 191.909 654.156L273.45 624.661C278.998 639.323 285.771 653.391 293.645 666.739L218.515 709.841ZM191.455 652.941L272.994 623.447C267.599 608.98 263.394 593.94 260.497 578.442L175.041 593.423C178.823 613.92 184.347 633.812 191.455 652.941ZM298.44 663.988C290.727 650.915 284.091 637.138 278.653 622.778L526.605 533.089L298.44 663.988ZM278.197 621.565L526.158 531.872L265.95 577.486C268.79 592.665 272.911 607.396 278.197 621.565ZM800.012 482.55L540.612 528.023L788.518 438.35C793.555 452.574 797.425 467.345 800.012 482.55ZM540.167 526.805L788.083 437.128C782.878 422.655 776.464 408.754 768.959 395.546L540.167 526.805ZM805.464 481.594C802.821 466.071 798.868 450.99 793.722 436.467L875.213 406.99C882.062 426.175 887.324 446.106 890.844 466.627L805.464 481.594ZM793.286 435.246L874.775 405.77C867.726 386.248 859.032 367.506 848.861 349.706L773.754 392.795C781.419 406.279 787.971 420.47 793.286 435.246ZM896.296 465.671C892.72 444.831 887.374 424.59 880.416 405.108L961.088 375.927C969.756 400.019 976.422 425.057 980.889 450.842L896.296 465.671ZM879.978 403.888L960.647 374.708C951.748 350.197 940.775 326.671 927.939 304.338L853.656 346.955C863.988 365.03 872.818 384.064 879.978 403.888ZM105.888 683.893L186.252 654.823C179.035 635.396 173.427 615.195 169.589 594.378L85.4357 609.13C90.1234 634.877 97.0074 659.864 105.888 683.893ZM185.221 819.374C168.501 799.695 153.443 778.576 140.263 756.231L214.38 713.709C225.077 731.746 237.283 748.793 250.826 764.679L185.221 819.374ZM255.067 761.143C241.73 745.502 229.71 728.717 219.175 710.959L294.307 667.855C302.302 681.262 311.41 693.936 321.506 705.751L255.067 761.143ZM325.747 702.215C315.858 690.645 306.935 678.233 299.102 665.104L527.258 534.21L325.747 702.215ZM539.516 525.682L768.316 394.419C760.666 381.104 751.906 368.501 742.161 356.733L539.516 525.682ZM773.11 391.668L848.215 348.581C837.872 330.632 826.023 313.651 812.838 297.807L746.402 353.197C756.353 365.209 765.299 378.075 773.11 391.668ZM853.01 345.83L927.291 303.214C914.262 280.696 899.334 259.399 882.726 239.539L817.079 294.271C830.47 310.36 842.505 327.604 853.01 345.83ZM881.892 238.544C865.167 218.661 846.752 200.228 826.868 183.465L771.826 248.636C787.879 262.231 802.744 277.168 816.246 293.274L881.892 238.544ZM812.006 296.81C798.711 280.949 784.074 266.238 768.267 252.85L712.511 318.867C724.456 329.027 735.519 340.18 745.571 352.198L812.006 296.81ZM741.33 355.734C731.485 343.961 720.65 333.034 708.952 323.08L538.676 524.691L741.33 355.734ZM326.593 703.201L528.094 535.204L359.229 735.146C347.468 725.426 336.548 714.736 326.593 703.201ZM255.911 762.13L322.352 706.737C332.514 718.517 343.663 729.433 355.67 739.359L299.927 805.36C284.052 792.213 269.323 777.747 255.911 762.13ZM186.064 820.363L251.67 765.666C265.29 781.527 280.247 796.221 296.368 809.574L241.273 874.808C221.349 858.252 202.873 840.033 186.064 820.363ZM377.711 952.894C353.153 944.045 329.581 933.154 307.203 920.426L350.104 846.608C368.196 856.848 387.245 865.611 407.085 872.732L377.711 952.894ZM408.979 867.563C389.444 860.552 370.688 851.925 352.873 841.844L396.237 767.229C409.709 774.82 423.885 781.319 438.644 786.607L408.979 867.563ZM351.741 841.201L395.104 766.588C381.53 758.856 368.678 750.013 356.675 740.185L300.93 806.188C316.79 819.228 333.783 830.954 351.741 841.201ZM440.538 781.438C426.084 776.26 412.2 769.896 399.005 762.465L530.223 536.684L440.538 781.438ZM397.873 761.824L529.093 536.037L360.233 735.972C371.991 745.594 384.578 754.253 397.873 761.824ZM707.96 322.24L537.677 523.858L670.318 295.628C683.638 303.441 696.228 312.354 707.96 322.24ZM536.548 523.21L669.194 294.972C655.936 287.282 641.963 280.677 627.397 275.28L536.548 523.21ZM711.518 318.027C699.54 307.935 686.687 298.838 673.087 290.864L716.472 216.213C734.453 226.71 751.444 238.7 767.273 252.011L711.518 318.027ZM671.962 290.209L715.346 215.559C697.471 205.209 678.626 196.331 658.979 189.093L629.291 270.111C644.162 275.618 658.428 282.359 671.962 290.209ZM770.832 247.798C754.756 234.281 737.501 222.107 719.241 211.449L762.03 137.823C784.626 150.948 805.98 165.955 825.872 182.629L770.832 247.798ZM718.115 210.795L760.903 137.171C738.458 124.22 714.795 113.123 690.126 104.09L660.873 183.924C680.825 191.272 699.962 200.286 718.115 210.795ZM306.073 919.78L348.972 845.965C330.735 835.557 313.477 823.646 297.371 810.401L242.274 875.638C262.176 892.079 283.514 906.864 306.073 919.78ZM454.031 973.089C428.183 968.608 403.087 961.958 378.938 953.334L408.312 873.17C427.821 880.095 448.089 885.434 468.958 889.03L454.031 973.089ZM469.92 883.613C449.372 880.072 429.416 874.817 410.206 868.001L439.872 787.044C454.389 792.168 469.464 796.122 484.982 798.792L469.92 883.613ZM485.944 793.375C470.747 790.761 455.983 786.89 441.766 781.874L531.45 537.124L485.944 793.375ZM535.324 522.764L626.174 274.831C611.814 269.589 596.883 265.52 581.499 262.74L535.324 522.764ZM628.068 269.661L657.755 188.645C638.402 181.594 618.276 176.131 597.539 172.417L582.461 257.323C598.166 260.159 613.408 264.311 628.068 269.661ZM659.649 183.475L688.902 103.644C664.618 94.8315 639.366 88.018 613.346 83.4039L598.501 167C619.559 170.77 639.996 176.316 659.649 183.475ZM895.545 594.012L980.233 608.839C975.562 634.527 968.705 659.459 959.861 683.439L879.013 654.211C886.172 634.858 891.735 614.739 895.545 594.012ZM804.732 578.112L890.093 593.057C886.34 613.465 880.86 633.274 873.811 652.33L792.362 622.884C797.701 608.488 801.863 593.525 804.732 578.112ZM540.61 531.87L799.279 577.158C796.468 592.252 792.39 606.904 787.159 621.003L540.61 531.87ZM526.157 528.023L276.872 437.9C271.774 452.198 267.856 467.05 265.234 482.341L526.157 528.023ZM259.782 481.386C262.46 465.776 266.462 450.615 271.669 436.019L190.102 406.531C183.187 425.793 177.872 445.809 174.315 466.422L259.782 481.386ZM168.863 465.468C172.476 444.536 177.876 424.21 184.9 404.65L104.728 375.666C96.0134 399.81 89.3087 424.906 84.8145 450.753L168.863 465.468ZM190.543 405.311L272.108 434.799C277.484 419.954 284.109 405.701 291.857 392.165L216.69 349.053C206.43 366.908 197.658 385.716 190.543 405.311ZM277.311 436.68L526.607 526.807L296.651 394.915C289.064 408.175 282.576 422.138 277.311 436.68ZM767.118 663.256L540.168 533.089L786.705 622.218C781.323 636.512 774.754 650.231 767.118 663.256ZM771.912 666.006C779.709 652.705 786.415 638.696 791.908 624.099L873.358 653.545C866.124 672.884 857.271 691.44 846.962 709.051L771.912 666.006ZM851.756 711.801C862.225 693.914 871.216 675.067 878.561 655.426L959.411 684.656C950.349 709.008 939.235 732.373 926.278 754.543L851.756 711.801ZM105.17 374.447L185.34 403.43C192.566 383.532 201.475 364.434 211.896 346.304L138.042 303.944C125.144 326.315 114.116 349.886 105.17 374.447ZM880.829 818.749C897.489 799.081 912.49 777.981 925.621 755.662L851.098 712.92C840.479 730.915 828.36 747.93 814.912 763.797L880.829 818.749ZM814.07 764.787L879.988 819.74C863.234 839.405 844.819 857.628 824.958 874.195L769.649 808.702C785.673 795.335 800.537 780.639 814.07 764.787ZM810.672 760.262C823.914 744.64 835.847 727.887 846.304 710.17L771.253 667.124C763.332 680.492 754.307 693.136 744.301 704.932L810.672 760.262ZM743.458 705.921L809.83 761.252C796.505 776.86 781.869 791.328 766.091 804.489L710.402 738.547C722.317 728.609 733.378 717.692 743.458 705.921ZM740.061 701.397C749.86 689.845 758.7 677.464 766.459 664.375L539.512 534.209L740.061 701.397ZM538.676 535.203L739.218 702.386C729.345 713.912 718.513 724.602 706.845 734.334L538.676 535.203ZM528.096 524.692L357.207 322.339C345.412 332.286 334.483 343.217 324.551 355.005L528.096 524.692ZM323.716 356.001L527.256 525.683L297.298 393.79C305.027 380.431 313.876 367.793 323.716 356.001ZM320.311 351.47C330.451 339.438 341.607 328.279 353.649 318.126L297.87 252.077C281.96 265.459 267.222 280.175 253.834 296.051L320.311 351.47ZM252.998 297.046L319.476 352.466C309.429 364.502 300.395 377.404 292.504 391.04L217.339 347.929C227.767 329.934 239.711 312.916 252.998 297.046ZM249.594 292.517C263.19 276.395 278.155 261.452 294.312 247.864L239.517 182.981C219.561 199.741 201.078 218.179 184.288 238.074L249.594 292.517ZM183.452 239.069L248.758 293.511C235.265 309.625 223.135 326.907 212.545 345.18L138.692 302.821C151.781 280.27 166.773 258.947 183.452 239.069ZM768.648 809.533L823.958 875.027C804.112 891.487 782.831 906.297 760.331 919.247L717.309 845.202C735.458 834.748 752.627 822.802 768.648 809.533ZM709.401 739.378L765.091 805.321C749.316 818.385 732.411 830.146 714.542 840.439L671.219 765.876C684.709 758.102 697.478 749.228 709.401 739.378ZM537.678 536.038L705.844 735.165C694.167 744.81 681.662 753.499 668.452 761.113L537.678 536.038ZM529.097 523.861L396.107 294.97C382.698 302.746 370.021 311.633 358.203 321.503L529.097 523.861ZM354.646 317.29C366.709 307.215 379.65 298.144 393.339 290.207L349.948 215.526C331.873 225.984 314.788 237.947 298.867 251.241L354.646 317.29ZM295.309 247.029C311.476 233.529 328.826 221.382 347.18 210.763L304.549 137.389C281.888 150.491 260.47 165.482 240.515 182.146L295.309 247.029ZM351.076 214.876L394.467 289.556C408.074 281.752 422.411 275.064 437.351 269.62L407.672 188.581C387.951 195.753 369.029 204.574 351.076 214.876ZM397.235 294.319L530.223 523.207L439.244 274.789C424.609 280.123 410.564 286.674 397.235 294.319ZM625.991 780.912L536.545 536.68L667.322 761.761C654.195 769.243 640.379 775.666 625.991 780.912ZM627.884 786.081C642.577 780.724 656.686 774.165 670.09 766.524L713.412 841.087C695.669 851.223 676.984 859.915 657.52 867L627.884 786.081ZM659.413 872.169C679.182 864.974 698.16 856.146 716.18 845.85L759.202 919.895C736.87 932.663 713.345 943.6 688.833 952.502L659.413 872.169ZM305.677 136.739L348.309 210.113C366.539 199.651 385.753 190.694 405.779 183.412L376.609 103.765C351.89 112.756 328.175 123.818 305.677 136.739ZM658.187 872.613L687.608 952.945C663.491 961.625 638.425 968.335 612.607 972.882L597.682 888.732C618.507 885.042 638.728 879.617 658.187 872.613ZM626.659 786.524L656.294 867.444C637.135 874.34 617.226 879.681 596.722 883.315L581.681 798.513C597.158 795.757 612.189 791.723 626.659 786.524ZM535.321 537.127L624.766 781.355C610.595 786.445 595.876 790.396 580.72 793.096L535.321 537.127ZM531.45 522.767L485.285 262.478C469.858 265.178 454.88 269.173 440.47 274.346L531.45 522.767ZM438.577 269.177C453.287 263.896 468.576 259.817 484.324 257.061L469.263 172.144C448.48 175.774 428.304 181.158 408.897 188.137L438.577 269.177ZM407.004 182.968C426.711 175.881 447.198 170.413 468.302 166.727L453.493 83.2306C427.442 87.791 402.155 94.5548 377.835 103.321L407.004 182.968ZM470.548 171.922L485.609 256.84C500.89 254.24 516.599 252.884 532.626 252.883L532.765 252.883L532.775 166.675L532.589 166.675C511.438 166.678 490.709 168.475 470.548 171.922ZM486.57 262.257L532.735 522.544L532.765 258.382L532.626 258.382C516.927 258.384 501.539 259.711 486.57 262.257ZM534.008 797.332L534.037 537.354L579.436 793.321C564.669 795.879 549.492 797.25 534.008 797.332ZM534.007 802.831C549.819 802.75 565.317 801.35 580.397 798.738L595.437 883.54C575.47 887.005 554.942 888.851 533.997 888.937L534.007 802.831ZM533.997 894.437C555.27 894.351 576.118 892.476 596.398 888.957L611.323 973.106C586.192 977.457 560.353 979.758 533.987 979.829L533.997 894.437ZM454.778 83.0076L469.587 166.505C490.061 163.004 511.111 161.178 532.59 161.176L532.776 161.176L532.785 76.36C506.188 76.3682 480.123 78.6455 454.778 83.0076ZM532.703 802.835L532.693 888.94L532.507 888.94C511.614 888.943 491.133 887.193 471.205 883.833L486.268 799.01C501.322 801.527 516.789 802.837 532.564 802.835L532.703 802.835ZM532.733 537.353L532.704 797.336L532.564 797.336C517.117 797.338 501.972 796.056 487.23 793.593L532.733 537.353ZM534.039 522.543L580.216 262.511C565.223 259.876 549.804 258.465 534.069 258.386L534.039 522.543ZM534.069 252.886C550.133 252.966 565.872 254.405 581.178 257.094L596.255 172.189C576.056 168.646 555.282 166.76 534.079 166.678L534.069 252.886ZM534.08 161.178C555.611 161.261 576.706 163.175 597.217 166.772L612.062 83.1781C586.732 78.761 560.679 76.4273 534.089 76.3614L534.08 161.178ZM532.693 894.44L532.683 979.831C506.309 979.829 480.459 977.595 455.315 973.31L470.243 889.25C490.484 892.665 511.286 894.442 532.506 894.44L532.693 894.44Z" fill="#838383"/>
</svg>
