<svg width="275" height="130" viewBox="0 0 275 130" fill="none" xmlns="http://www.w3.org/2000/svg">
<g filter="url(#filter0_d_227_38)">
<rect x="28" y="28" width="219" height="74" rx="30" fill="white" shape-rendering="crispEdges"/>
<path opacity="0.8" d="M68.2 79C67.9867 79 67.7867 78.92 67.6 78.76C67.44 78.5733 67.36 78.3733 67.36 78.16C67.36 78.0267 67.3733 77.9067 67.4 77.8L76.8 52.12C76.88 51.8267 77.04 51.5733 77.28 51.36C77.5467 51.12 77.9067 51 78.36 51H84.28C84.7333 51 85.08 51.12 85.32 51.36C85.5867 51.5733 85.76 51.8267 85.84 52.12L95.2 77.8C95.2533 77.9067 95.28 78.0267 95.28 78.16C95.28 78.3733 95.1867 78.5733 95 78.76C94.84 78.92 94.64 79 94.4 79H89.48C89.08 79 88.7733 78.9067 88.56 78.72C88.3733 78.5067 88.2533 78.32 88.2 78.16L86.64 74.08H75.96L74.44 78.16C74.3867 78.32 74.2667 78.5067 74.08 78.72C73.8933 78.9067 73.5733 79 73.12 79H68.2ZM77.6 68.32H85.04L81.28 57.76L77.6 68.32ZM99.4328 79C99.1395 79 98.8995 78.9067 98.7128 78.72C98.5261 78.5333 98.4328 78.2933 98.4328 78V52C98.4328 51.7067 98.5261 51.4667 98.7128 51.28C98.8995 51.0933 99.1395 51 99.4328 51H111.633C113.926 51 115.806 51.32 117.273 51.96C118.739 52.6 119.819 53.52 120.513 54.72C121.233 55.8933 121.593 57.2933 121.593 58.92C121.593 59.88 121.406 60.7333 121.033 61.48C120.686 62.2 120.246 62.8 119.713 63.28C119.206 63.76 118.726 64.1067 118.273 64.32C119.286 64.8 120.179 65.5867 120.953 66.68C121.753 67.7733 122.153 69.0533 122.153 70.52C122.153 72.28 121.753 73.8 120.953 75.08C120.179 76.3333 119.033 77.3067 117.513 78C116.019 78.6667 114.179 79 111.993 79H99.4328ZM105.593 73.8H111.193C112.339 73.8 113.206 73.4667 113.793 72.8C114.379 72.1333 114.673 71.3733 114.673 70.52C114.673 69.5867 114.366 68.8 113.753 68.16C113.166 67.52 112.313 67.2 111.193 67.2H105.593V73.8ZM105.593 62.12H110.833C111.926 62.12 112.739 61.84 113.273 61.28C113.833 60.72 114.113 60 114.113 59.12C114.113 58.2667 113.833 57.5733 113.273 57.04C112.739 56.48 111.926 56.2 110.833 56.2H105.593V62.12ZM138.037 79.4C135.584 79.4 133.45 79 131.637 78.2C129.824 77.4 128.41 76.2 127.397 74.6C126.384 72.9733 125.824 70.9467 125.717 68.52C125.69 67.3733 125.677 66.2267 125.677 65.08C125.677 63.9333 125.69 62.7733 125.717 61.6C125.824 59.2 126.384 57.1867 127.397 55.56C128.437 53.9067 129.864 52.6667 131.677 51.84C133.49 51.0133 135.61 50.6 138.037 50.6C140.437 50.6 142.544 51.0133 144.357 51.84C146.197 52.6667 147.637 53.9067 148.677 55.56C149.717 57.1867 150.277 59.2 150.357 61.6C150.41 62.7733 150.437 63.9333 150.437 65.08C150.437 66.2267 150.41 67.3733 150.357 68.52C150.25 70.9467 149.69 72.9733 148.677 74.6C147.664 76.2 146.25 77.4 144.437 78.2C142.624 79 140.49 79.4 138.037 79.4ZM138.037 73.64C139.45 73.64 140.597 73.2133 141.477 72.36C142.384 71.5067 142.864 70.1467 142.917 68.28C142.97 67.1067 142.997 66 142.997 64.96C142.997 63.92 142.97 62.84 142.917 61.72C142.864 60.4667 142.624 59.4533 142.197 58.68C141.797 57.88 141.237 57.2933 140.517 56.92C139.797 56.5467 138.97 56.36 138.037 56.36C137.13 56.36 136.317 56.5467 135.597 56.92C134.877 57.2933 134.304 57.88 133.877 58.68C133.45 59.4533 133.21 60.4667 133.157 61.72C133.13 62.84 133.117 63.92 133.117 64.96C133.117 66 133.13 67.1067 133.157 68.28C133.237 70.1467 133.717 71.5067 134.597 72.36C135.477 73.2133 136.624 73.64 138.037 73.64ZM166.793 79.4C164.393 79.4 162.287 79.0133 160.473 78.24C158.687 77.44 157.3 76.2267 156.313 74.6C155.327 72.9467 154.833 70.8533 154.833 68.32V52C154.833 51.7067 154.927 51.4667 155.113 51.28C155.3 51.0933 155.54 51 155.833 51H160.993C161.287 51 161.527 51.0933 161.713 51.28C161.9 51.4667 161.993 51.7067 161.993 52V68.28C161.993 70.0133 162.407 71.32 163.233 72.2C164.087 73.0533 165.273 73.48 166.793 73.48C168.287 73.48 169.447 73.0533 170.273 72.2C171.127 71.32 171.553 70.0133 171.553 68.28V52C171.553 51.7067 171.647 51.4667 171.833 51.28C172.047 51.0933 172.287 51 172.553 51H177.753C178.02 51 178.247 51.0933 178.433 51.28C178.647 51.4667 178.753 51.7067 178.753 52V68.32C178.753 70.8533 178.26 72.9467 177.273 74.6C176.287 76.2267 174.9 77.44 173.113 78.24C171.327 79.0133 169.22 79.4 166.793 79.4ZM191.218 79C190.924 79 190.684 78.9067 190.498 78.72C190.311 78.5333 190.218 78.2933 190.218 78V57.28H183.098C182.804 57.28 182.564 57.1867 182.378 57C182.191 56.7867 182.098 56.5467 182.098 56.28V52C182.098 51.7067 182.191 51.4667 182.378 51.28C182.564 51.0933 182.804 51 183.098 51H204.618C204.911 51 205.151 51.0933 205.338 51.28C205.524 51.4667 205.618 51.7067 205.618 52V56.28C205.618 56.5467 205.524 56.7867 205.338 57C205.151 57.1867 204.911 57.28 204.618 57.28H197.498V78C197.498 78.2933 197.404 78.5333 197.218 78.72C197.031 78.9067 196.791 79 196.498 79H191.218Z" fill="black"/>
<rect x="26.5" y="26.5" width="222" height="77" rx="31.5" stroke="#444444" stroke-width="3" shape-rendering="crispEdges"/>
</g>
<defs>
<filter id="filter0_d_227_38" x="0" y="0" width="275" height="130" filterUnits="userSpaceOnUse" color-interpolation-filters="sRGB">
<feFlood flood-opacity="0" result="BackgroundImageFix"/>
<feColorMatrix in="SourceAlpha" type="matrix" values="0 0 0 0 0 0 0 0 0 0 0 0 0 0 0 0 0 0 127 0" result="hardAlpha"/>
<feOffset/>
<feGaussianBlur stdDeviation="12.5"/>
<feComposite in2="hardAlpha" operator="out"/>
<feColorMatrix type="matrix" values="0 0 0 0 1 0 0 0 0 0.9125 0 0 0 0 0.9125 0 0 0 0.8 0"/>
<feBlend mode="normal" in2="BackgroundImageFix" result="effect1_dropShadow_227_38"/>
<feBlend mode="normal" in="SourceGraphic" in2="effect1_dropShadow_227_38" result="shape"/>
</filter>
</defs>
</svg>
