<svg width="136" height="122" viewBox="0 0 136 122" fill="none" xmlns="http://www.w3.org/2000/svg">
<g filter="url(#filter0_d_247_21)">
<path d="M95.2812 70.4922V79.8789C95.2812 80.3945 95.0938 80.8281 94.7188 81.1797C94.3672 81.5547 93.9336 81.7422 93.418 81.7422H55.5898V93.2734H106.812V70.4922H95.2812ZM93.418 40.2578C93.9336 40.2578 94.3672 40.4453 94.7188 40.8203C95.0938 41.1719 95.2812 41.6055 95.2812 42.1211V51.5078H106.812V28.7266L55.5898 28.7266V40.2578L93.418 40.2578ZM91.5547 78.0156V70.4922H68.8789C68.3633 70.4922 67.918 70.3164 67.543 69.9648C67.1914 69.5898 67.0156 69.1445 67.0156 68.6289V53.3711C67.0156 52.8555 67.1914 52.4102 67.543 52.0352C67.918 51.6836 68.3633 51.5078 68.8789 51.5078L91.5547 51.5078V43.9844L53.7617 43.9844C53.2461 43.9844 52.8008 43.8086 52.4258 43.457C52.0742 43.082 51.8984 42.6367 51.8984 42.1211V26.8633C51.8984 26.3477 52.0742 25.9023 52.4258 25.5273C52.8008 25.1758 53.2461 25 53.7617 25L108.676 25C109.191 25 109.637 25.1758 110.012 25.5273C110.363 25.9023 110.539 26.3477 110.539 26.8633L110.539 53.3711C110.539 53.8867 110.363 54.3203 110.012 54.6719C109.637 55.0469 109.191 55.2344 108.676 55.2344L70.7422 55.2344V66.7656H108.676C109.191 66.7656 109.637 66.9531 110.012 67.3281C110.363 67.6797 110.539 68.1133 110.539 68.6289V95.1367C110.539 95.6523 110.363 96.0977 110.012 96.4727C109.637 96.8242 109.191 97 108.676 97H53.7617C53.2461 97 52.8008 96.8242 52.4258 96.4727C52.0742 96.0977 51.8984 95.6523 51.8984 95.1367V79.8789C51.8984 79.3633 52.0742 78.918 52.4258 78.543C52.8008 78.1914 53.2461 78.0156 53.7617 78.0156H91.5547Z" fill="white" fill-opacity="0.5" shape-rendering="crispEdges"/>
</g>
<g filter="url(#filter1_d_247_21)">
<path d="M40.7189 51.5076V42.1208C40.7189 41.6052 40.9064 41.1716 41.2814 40.8201C41.633 40.4451 42.0666 40.2576 42.5822 40.2576H80.4103V28.7263H29.1877V51.5076H40.7189ZM42.5822 81.7419C42.0666 81.7419 41.633 81.5544 41.2814 81.1794C40.9064 80.8279 40.7189 80.3943 40.7189 79.8787V70.4919H29.1877V93.2732H80.4103V81.7419H42.5822ZM44.4455 43.9841V51.5076H67.1213C67.6369 51.5076 68.0822 51.6833 68.4572 52.0349C68.8088 52.4099 68.9846 52.8552 68.9846 53.3708V68.6287C68.9846 69.1443 68.8088 69.5896 68.4572 69.9646C68.0822 70.3162 67.6369 70.4919 67.1213 70.4919H44.4455V78.0154H82.2385C82.7541 78.0154 83.1994 78.1912 83.5744 78.5427C83.926 78.9177 84.1017 79.363 84.1017 79.8787V95.1365C84.1017 95.6521 83.926 96.0974 83.5744 96.4724C83.1994 96.824 82.7541 96.9998 82.2385 96.9998H27.3244C26.8088 96.9998 26.3635 96.824 25.9885 96.4724C25.6369 96.0974 25.4611 95.6521 25.4611 95.1365V68.6287C25.4611 68.113 25.6369 67.6794 25.9885 67.3279C26.3635 66.9529 26.8088 66.7654 27.3244 66.7654H65.258V55.2341H27.3244C26.8088 55.2341 26.3635 55.0466 25.9885 54.6716C25.6369 54.3201 25.4611 53.8865 25.4611 53.3708V26.863C25.4611 26.3474 25.6369 25.9021 25.9885 25.5271C26.3635 25.1755 26.8088 24.9998 27.3244 24.9998H82.2385C82.7541 24.9998 83.1994 25.1755 83.5744 25.5271C83.926 25.9021 84.1017 26.3474 84.1017 26.863V42.1208C84.1017 42.6365 83.926 43.0818 83.5744 43.4568C83.1994 43.8083 82.7541 43.9841 82.2385 43.9841H44.4455Z" fill="white" fill-opacity="0.5" shape-rendering="crispEdges"/>
</g>
<defs>
<filter id="filter0_d_247_21" x="26.8984" y="0" width="108.641" height="122" filterUnits="userSpaceOnUse" color-interpolation-filters="sRGB">
<feFlood flood-opacity="0" result="BackgroundImageFix"/>
<feColorMatrix in="SourceAlpha" type="matrix" values="0 0 0 0 0 0 0 0 0 0 0 0 0 0 0 0 0 0 127 0" result="hardAlpha"/>
<feOffset/>
<feGaussianBlur stdDeviation="12.5"/>
<feComposite in2="hardAlpha" operator="out"/>
<feColorMatrix type="matrix" values="0 0 0 0 0.00416667 0 0 0 0 0.82075 0 0 0 0 1 0 0 0 0.8 0"/>
<feBlend mode="normal" in2="BackgroundImageFix" result="effect1_dropShadow_247_21"/>
<feBlend mode="normal" in="SourceGraphic" in2="effect1_dropShadow_247_21" result="shape"/>
</filter>
<filter id="filter1_d_247_21" x="0.461121" y="-0.000244141" width="108.641" height="122" filterUnits="userSpaceOnUse" color-interpolation-filters="sRGB">
<feFlood flood-opacity="0" result="BackgroundImageFix"/>
<feColorMatrix in="SourceAlpha" type="matrix" values="0 0 0 0 0 0 0 0 0 0 0 0 0 0 0 0 0 0 127 0" result="hardAlpha"/>
<feOffset/>
<feGaussianBlur stdDeviation="12.5"/>
<feComposite in2="hardAlpha" operator="out"/>
<feColorMatrix type="matrix" values="0 0 0 0 1 0 0 0 0 0 0 0 0 0 0 0 0 0 0.8 0"/>
<feBlend mode="normal" in2="BackgroundImageFix" result="effect1_dropShadow_247_21"/>
<feBlend mode="normal" in="SourceGraphic" in2="effect1_dropShadow_247_21" result="shape"/>
</filter>
</defs>
</svg>
