<svg width="349" height="127" viewBox="0 0 349 127" fill="none" xmlns="http://www.w3.org/2000/svg">
<g filter="url(#filter0_d_230_53)">
<rect x="28" y="28" width="293" height="71" rx="30" fill="white" shape-rendering="crispEdges"/>
<path opacity="0.8" d="M87.24 79.4C84.5733 79.4 82.36 79.0267 80.6 78.28C78.84 77.5067 77.5067 76.5067 76.6 75.28C75.6933 74.0533 75.2133 72.7467 75.16 71.36C75.16 71.1467 75.24 70.96 75.4 70.8C75.5867 70.6133 75.8 70.52 76.04 70.52H81.08C81.4533 70.52 81.7333 70.5867 81.92 70.72C82.1333 70.8533 82.32 71.0267 82.48 71.24C82.6933 71.64 82.9867 72.0267 83.36 72.4C83.76 72.7733 84.2667 73.08 84.88 73.32C85.52 73.5333 86.3067 73.64 87.24 73.64C88.7867 73.64 89.9467 73.4 90.72 72.92C91.52 72.44 91.92 71.7867 91.92 70.96C91.92 70.3733 91.7067 69.8933 91.28 69.52C90.8533 69.12 90.16 68.7733 89.2 68.48C88.2667 68.16 87.0133 67.84 85.44 67.52C83.4133 67.0933 81.68 66.5467 80.24 65.88C78.8267 65.1867 77.7467 64.2933 77 63.2C76.2533 62.08 75.88 60.6933 75.88 59.04C75.88 57.4133 76.3333 55.96 77.24 54.68C78.1733 53.4 79.4667 52.4 81.12 51.68C82.7733 50.96 84.7333 50.6 87 50.6C88.84 50.6 90.4533 50.84 91.84 51.32C93.2533 51.8 94.44 52.44 95.4 53.24C96.36 54.04 97.08 54.8933 97.56 55.8C98.0667 56.68 98.3333 57.5467 98.36 58.4C98.36 58.6133 98.28 58.8133 98.12 59C97.96 59.16 97.76 59.24 97.52 59.24H92.24C91.9467 59.24 91.6933 59.1867 91.48 59.08C91.2667 58.9733 91.08 58.8 90.92 58.56C90.76 57.9733 90.3333 57.4667 89.64 57.04C88.9733 56.5867 88.0933 56.36 87 56.36C85.8267 56.36 84.9067 56.5733 84.24 57C83.6 57.4 83.28 58.0267 83.28 58.88C83.28 59.4133 83.4533 59.88 83.8 60.28C84.1733 60.68 84.7733 61.0267 85.6 61.32C86.4533 61.6133 87.6133 61.92 89.08 62.24C91.5067 62.6933 93.4667 63.2667 94.96 63.96C96.4533 64.6267 97.5467 65.5067 98.24 66.6C98.9333 67.6667 99.28 69.0133 99.28 70.64C99.28 72.4533 98.76 74.0267 97.72 75.36C96.7067 76.6667 95.2933 77.6667 93.48 78.36C91.6667 79.0533 89.5867 79.4 87.24 79.4ZM104.284 79C103.991 79 103.751 78.9067 103.564 78.72C103.378 78.5333 103.284 78.2933 103.284 78V52C103.284 51.7067 103.378 51.4667 103.564 51.28C103.751 51.0933 103.991 51 104.284 51H122.964C123.258 51 123.498 51.0933 123.684 51.28C123.871 51.4667 123.964 51.7067 123.964 52V55.76C123.964 56.0533 123.871 56.2933 123.684 56.48C123.498 56.6667 123.258 56.76 122.964 56.76H110.204V62.16H122.084C122.378 62.16 122.618 62.2667 122.804 62.48C122.991 62.6667 123.084 62.9067 123.084 63.2V66.68C123.084 66.9467 122.991 67.1867 122.804 67.4C122.618 67.5867 122.378 67.68 122.084 67.68H110.204V73.24H123.284C123.578 73.24 123.818 73.3333 124.004 73.52C124.191 73.7067 124.284 73.9467 124.284 74.24V78C124.284 78.2933 124.191 78.5333 124.004 78.72C123.818 78.9067 123.578 79 123.284 79H104.284ZM129.831 79C129.538 79 129.298 78.9067 129.111 78.72C128.925 78.5333 128.831 78.2933 128.831 78V52C128.831 51.7067 128.925 51.4667 129.111 51.28C129.298 51.0933 129.538 51 129.831 51H148.511C148.805 51 149.045 51.0933 149.231 51.28C149.418 51.4667 149.511 51.7067 149.511 52V55.76C149.511 56.0533 149.418 56.2933 149.231 56.48C149.045 56.6667 148.805 56.76 148.511 56.76H135.751V62.16H147.631C147.925 62.16 148.165 62.2667 148.351 62.48C148.538 62.6667 148.631 62.9067 148.631 63.2V66.68C148.631 66.9467 148.538 67.1867 148.351 67.4C148.165 67.5867 147.925 67.68 147.631 67.68H135.751V73.24H148.831C149.125 73.24 149.365 73.3333 149.551 73.52C149.738 73.7067 149.831 73.9467 149.831 74.24V78C149.831 78.2933 149.738 78.5333 149.551 78.72C149.365 78.9067 149.125 79 148.831 79H129.831ZM163.894 79C163.627 79 163.387 78.9067 163.174 78.72C162.987 78.5333 162.894 78.2933 162.894 78V52C162.894 51.7067 162.987 51.4667 163.174 51.28C163.387 51.0933 163.627 51 163.894 51H168.214C168.64 51 168.96 51.12 169.174 51.36C169.414 51.5733 169.56 51.7467 169.614 51.88L176.654 64.52L183.694 51.88C183.774 51.7467 183.907 51.5733 184.094 51.36C184.307 51.12 184.64 51 185.094 51H189.374C189.667 51 189.907 51.0933 190.094 51.28C190.307 51.4667 190.414 51.7067 190.414 52V78C190.414 78.2933 190.307 78.5333 190.094 78.72C189.907 78.9067 189.667 79 189.374 79H184.614C184.32 79 184.067 78.9067 183.854 78.72C183.667 78.5333 183.574 78.2933 183.574 78V63L179.054 71.36C178.947 71.6 178.787 71.8133 178.574 72C178.36 72.1867 178.067 72.28 177.694 72.28H175.614C175.24 72.28 174.947 72.1867 174.734 72C174.52 71.8133 174.347 71.6 174.214 71.36L169.694 63V78C169.694 78.2933 169.6 78.5333 169.414 78.72C169.227 78.9067 168.987 79 168.694 79H163.894ZM207.42 79.4C204.966 79.4 202.833 79 201.02 78.2C199.206 77.4 197.793 76.2 196.78 74.6C195.766 72.9733 195.206 70.9467 195.1 68.52C195.073 67.3733 195.06 66.2267 195.06 65.08C195.06 63.9333 195.073 62.7733 195.1 61.6C195.206 59.2 195.766 57.1867 196.78 55.56C197.82 53.9067 199.246 52.6667 201.06 51.84C202.873 51.0133 204.993 50.6 207.42 50.6C209.82 50.6 211.926 51.0133 213.74 51.84C215.58 52.6667 217.02 53.9067 218.06 55.56C219.1 57.1867 219.66 59.2 219.74 61.6C219.793 62.7733 219.82 63.9333 219.82 65.08C219.82 66.2267 219.793 67.3733 219.74 68.52C219.633 70.9467 219.073 72.9733 218.06 74.6C217.046 76.2 215.633 77.4 213.82 78.2C212.006 79 209.873 79.4 207.42 79.4ZM207.42 73.64C208.833 73.64 209.98 73.2133 210.86 72.36C211.766 71.5067 212.246 70.1467 212.3 68.28C212.353 67.1067 212.38 66 212.38 64.96C212.38 63.92 212.353 62.84 212.3 61.72C212.246 60.4667 212.006 59.4533 211.58 58.68C211.18 57.88 210.62 57.2933 209.9 56.92C209.18 56.5467 208.353 56.36 207.42 56.36C206.513 56.36 205.7 56.5467 204.98 56.92C204.26 57.2933 203.686 57.88 203.26 58.68C202.833 59.4533 202.593 60.4667 202.54 61.72C202.513 62.84 202.5 63.92 202.5 64.96C202.5 66 202.513 67.1067 202.54 68.28C202.62 70.1467 203.1 71.5067 203.98 72.36C204.86 73.2133 206.006 73.64 207.42 73.64ZM225.456 79C225.163 79 224.923 78.9067 224.736 78.72C224.55 78.5333 224.456 78.2933 224.456 78V52C224.456 51.7067 224.55 51.4667 224.736 51.28C224.923 51.0933 225.163 51 225.456 51H236.336C239.776 51 242.483 51.8 244.456 53.4C246.456 54.9733 247.456 57.2133 247.456 60.12C247.456 62.0133 246.99 63.6133 246.056 64.92C245.15 66.2267 243.95 67.2133 242.456 67.88L247.976 77.72C248.056 77.88 248.096 78.0267 248.096 78.16C248.096 78.3733 248.003 78.5733 247.816 78.76C247.656 78.92 247.456 79 247.216 79H241.936C241.43 79 241.056 78.88 240.816 78.64C240.576 78.3733 240.403 78.1333 240.296 77.92L235.736 69.12H231.616V78C231.616 78.2933 231.523 78.5333 231.336 78.72C231.15 78.9067 230.91 79 230.616 79H225.456ZM231.616 63.48H236.256C237.51 63.48 238.443 63.1733 239.056 62.56C239.696 61.9467 240.016 61.1067 240.016 60.04C240.016 59 239.71 58.16 239.096 57.52C238.51 56.88 237.563 56.56 236.256 56.56H231.616V63.48ZM253.113 79C252.819 79 252.579 78.9067 252.393 78.72C252.206 78.5333 252.113 78.2933 252.113 78V52C252.113 51.7067 252.206 51.4667 252.393 51.28C252.579 51.0933 252.819 51 253.113 51H271.793C272.086 51 272.326 51.0933 272.513 51.28C272.699 51.4667 272.793 51.7067 272.793 52V55.76C272.793 56.0533 272.699 56.2933 272.513 56.48C272.326 56.6667 272.086 56.76 271.793 56.76H259.033V62.16H270.913C271.206 62.16 271.446 62.2667 271.633 62.48C271.819 62.6667 271.912 62.9067 271.912 63.2V66.68C271.912 66.9467 271.819 67.1867 271.633 67.4C271.446 67.5867 271.206 67.68 270.913 67.68H259.033V73.24H272.113C272.406 73.24 272.646 73.3333 272.832 73.52C273.019 73.7067 273.113 73.9467 273.113 74.24V78C273.113 78.2933 273.019 78.5333 272.832 78.72C272.646 78.9067 272.406 79 272.113 79H253.113Z" fill="black"/>
<path opacity="0.8" d="M87.24 79.4C84.5733 79.4 82.36 79.0267 80.6 78.28C78.84 77.5067 77.5067 76.5067 76.6 75.28C75.6933 74.0533 75.2133 72.7467 75.16 71.36C75.16 71.1467 75.24 70.96 75.4 70.8C75.5867 70.6133 75.8 70.52 76.04 70.52H81.08C81.4533 70.52 81.7333 70.5867 81.92 70.72C82.1333 70.8533 82.32 71.0267 82.48 71.24C82.6933 71.64 82.9867 72.0267 83.36 72.4C83.76 72.7733 84.2667 73.08 84.88 73.32C85.52 73.5333 86.3067 73.64 87.24 73.64C88.7867 73.64 89.9467 73.4 90.72 72.92C91.52 72.44 91.92 71.7867 91.92 70.96C91.92 70.3733 91.7067 69.8933 91.28 69.52C90.8533 69.12 90.16 68.7733 89.2 68.48C88.2667 68.16 87.0133 67.84 85.44 67.52C83.4133 67.0933 81.68 66.5467 80.24 65.88C78.8267 65.1867 77.7467 64.2933 77 63.2C76.2533 62.08 75.88 60.6933 75.88 59.04C75.88 57.4133 76.3333 55.96 77.24 54.68C78.1733 53.4 79.4667 52.4 81.12 51.68C82.7733 50.96 84.7333 50.6 87 50.6C88.84 50.6 90.4533 50.84 91.84 51.32C93.2533 51.8 94.44 52.44 95.4 53.24C96.36 54.04 97.08 54.8933 97.56 55.8C98.0667 56.68 98.3333 57.5467 98.36 58.4C98.36 58.6133 98.28 58.8133 98.12 59C97.96 59.16 97.76 59.24 97.52 59.24H92.24C91.9467 59.24 91.6933 59.1867 91.48 59.08C91.2667 58.9733 91.08 58.8 90.92 58.56C90.76 57.9733 90.3333 57.4667 89.64 57.04C88.9733 56.5867 88.0933 56.36 87 56.36C85.8267 56.36 84.9067 56.5733 84.24 57C83.6 57.4 83.28 58.0267 83.28 58.88C83.28 59.4133 83.4533 59.88 83.8 60.28C84.1733 60.68 84.7733 61.0267 85.6 61.32C86.4533 61.6133 87.6133 61.92 89.08 62.24C91.5067 62.6933 93.4667 63.2667 94.96 63.96C96.4533 64.6267 97.5467 65.5067 98.24 66.6C98.9333 67.6667 99.28 69.0133 99.28 70.64C99.28 72.4533 98.76 74.0267 97.72 75.36C96.7067 76.6667 95.2933 77.6667 93.48 78.36C91.6667 79.0533 89.5867 79.4 87.24 79.4ZM104.284 79C103.991 79 103.751 78.9067 103.564 78.72C103.378 78.5333 103.284 78.2933 103.284 78V52C103.284 51.7067 103.378 51.4667 103.564 51.28C103.751 51.0933 103.991 51 104.284 51H122.964C123.258 51 123.498 51.0933 123.684 51.28C123.871 51.4667 123.964 51.7067 123.964 52V55.76C123.964 56.0533 123.871 56.2933 123.684 56.48C123.498 56.6667 123.258 56.76 122.964 56.76H110.204V62.16H122.084C122.378 62.16 122.618 62.2667 122.804 62.48C122.991 62.6667 123.084 62.9067 123.084 63.2V66.68C123.084 66.9467 122.991 67.1867 122.804 67.4C122.618 67.5867 122.378 67.68 122.084 67.68H110.204V73.24H123.284C123.578 73.24 123.818 73.3333 124.004 73.52C124.191 73.7067 124.284 73.9467 124.284 74.24V78C124.284 78.2933 124.191 78.5333 124.004 78.72C123.818 78.9067 123.578 79 123.284 79H104.284ZM129.831 79C129.538 79 129.298 78.9067 129.111 78.72C128.925 78.5333 128.831 78.2933 128.831 78V52C128.831 51.7067 128.925 51.4667 129.111 51.28C129.298 51.0933 129.538 51 129.831 51H148.511C148.805 51 149.045 51.0933 149.231 51.28C149.418 51.4667 149.511 51.7067 149.511 52V55.76C149.511 56.0533 149.418 56.2933 149.231 56.48C149.045 56.6667 148.805 56.76 148.511 56.76H135.751V62.16H147.631C147.925 62.16 148.165 62.2667 148.351 62.48C148.538 62.6667 148.631 62.9067 148.631 63.2V66.68C148.631 66.9467 148.538 67.1867 148.351 67.4C148.165 67.5867 147.925 67.68 147.631 67.68H135.751V73.24H148.831C149.125 73.24 149.365 73.3333 149.551 73.52C149.738 73.7067 149.831 73.9467 149.831 74.24V78C149.831 78.2933 149.738 78.5333 149.551 78.72C149.365 78.9067 149.125 79 148.831 79H129.831ZM163.894 79C163.627 79 163.387 78.9067 163.174 78.72C162.987 78.5333 162.894 78.2933 162.894 78V52C162.894 51.7067 162.987 51.4667 163.174 51.28C163.387 51.0933 163.627 51 163.894 51H168.214C168.64 51 168.96 51.12 169.174 51.36C169.414 51.5733 169.56 51.7467 169.614 51.88L176.654 64.52L183.694 51.88C183.774 51.7467 183.907 51.5733 184.094 51.36C184.307 51.12 184.64 51 185.094 51H189.374C189.667 51 189.907 51.0933 190.094 51.28C190.307 51.4667 190.414 51.7067 190.414 52V78C190.414 78.2933 190.307 78.5333 190.094 78.72C189.907 78.9067 189.667 79 189.374 79H184.614C184.32 79 184.067 78.9067 183.854 78.72C183.667 78.5333 183.574 78.2933 183.574 78V63L179.054 71.36C178.947 71.6 178.787 71.8133 178.574 72C178.36 72.1867 178.067 72.28 177.694 72.28H175.614C175.24 72.28 174.947 72.1867 174.734 72C174.52 71.8133 174.347 71.6 174.214 71.36L169.694 63V78C169.694 78.2933 169.6 78.5333 169.414 78.72C169.227 78.9067 168.987 79 168.694 79H163.894ZM207.42 79.4C204.966 79.4 202.833 79 201.02 78.2C199.206 77.4 197.793 76.2 196.78 74.6C195.766 72.9733 195.206 70.9467 195.1 68.52C195.073 67.3733 195.06 66.2267 195.06 65.08C195.06 63.9333 195.073 62.7733 195.1 61.6C195.206 59.2 195.766 57.1867 196.78 55.56C197.82 53.9067 199.246 52.6667 201.06 51.84C202.873 51.0133 204.993 50.6 207.42 50.6C209.82 50.6 211.926 51.0133 213.74 51.84C215.58 52.6667 217.02 53.9067 218.06 55.56C219.1 57.1867 219.66 59.2 219.74 61.6C219.793 62.7733 219.82 63.9333 219.82 65.08C219.82 66.2267 219.793 67.3733 219.74 68.52C219.633 70.9467 219.073 72.9733 218.06 74.6C217.046 76.2 215.633 77.4 213.82 78.2C212.006 79 209.873 79.4 207.42 79.4ZM207.42 73.64C208.833 73.64 209.98 73.2133 210.86 72.36C211.766 71.5067 212.246 70.1467 212.3 68.28C212.353 67.1067 212.38 66 212.38 64.96C212.38 63.92 212.353 62.84 212.3 61.72C212.246 60.4667 212.006 59.4533 211.58 58.68C211.18 57.88 210.62 57.2933 209.9 56.92C209.18 56.5467 208.353 56.36 207.42 56.36C206.513 56.36 205.7 56.5467 204.98 56.92C204.26 57.2933 203.686 57.88 203.26 58.68C202.833 59.4533 202.593 60.4667 202.54 61.72C202.513 62.84 202.5 63.92 202.5 64.96C202.5 66 202.513 67.1067 202.54 68.28C202.62 70.1467 203.1 71.5067 203.98 72.36C204.86 73.2133 206.006 73.64 207.42 73.64ZM225.456 79C225.163 79 224.923 78.9067 224.736 78.72C224.55 78.5333 224.456 78.2933 224.456 78V52C224.456 51.7067 224.55 51.4667 224.736 51.28C224.923 51.0933 225.163 51 225.456 51H236.336C239.776 51 242.483 51.8 244.456 53.4C246.456 54.9733 247.456 57.2133 247.456 60.12C247.456 62.0133 246.99 63.6133 246.056 64.92C245.15 66.2267 243.95 67.2133 242.456 67.88L247.976 77.72C248.056 77.88 248.096 78.0267 248.096 78.16C248.096 78.3733 248.003 78.5733 247.816 78.76C247.656 78.92 247.456 79 247.216 79H241.936C241.43 79 241.056 78.88 240.816 78.64C240.576 78.3733 240.403 78.1333 240.296 77.92L235.736 69.12H231.616V78C231.616 78.2933 231.523 78.5333 231.336 78.72C231.15 78.9067 230.91 79 230.616 79H225.456ZM231.616 63.48H236.256C237.51 63.48 238.443 63.1733 239.056 62.56C239.696 61.9467 240.016 61.1067 240.016 60.04C240.016 59 239.71 58.16 239.096 57.52C238.51 56.88 237.563 56.56 236.256 56.56H231.616V63.48ZM253.113 79C252.819 79 252.579 78.9067 252.393 78.72C252.206 78.5333 252.113 78.2933 252.113 78V52C252.113 51.7067 252.206 51.4667 252.393 51.28C252.579 51.0933 252.819 51 253.113 51H271.793C272.086 51 272.326 51.0933 272.513 51.28C272.699 51.4667 272.793 51.7067 272.793 52V55.76C272.793 56.0533 272.699 56.2933 272.513 56.48C272.326 56.6667 272.086 56.76 271.793 56.76H259.033V62.16H270.913C271.206 62.16 271.446 62.2667 271.633 62.48C271.819 62.6667 271.912 62.9067 271.912 63.2V66.68C271.912 66.9467 271.819 67.1867 271.633 67.4C271.446 67.5867 271.206 67.68 270.913 67.68H259.033V73.24H272.113C272.406 73.24 272.646 73.3333 272.832 73.52C273.019 73.7067 273.113 73.9467 273.113 74.24V78C273.113 78.2933 273.019 78.5333 272.832 78.72C272.646 78.9067 272.406 79 272.113 79H253.113Z" fill="black"/>
<rect x="26.5" y="26.5" width="296" height="74" rx="31.5" stroke="#444444" stroke-width="3" shape-rendering="crispEdges"/>
</g>
<defs>
<filter id="filter0_d_230_53" x="0" y="0" width="349" height="127" filterUnits="userSpaceOnUse" color-interpolation-filters="sRGB">
<feFlood flood-opacity="0" result="BackgroundImageFix"/>
<feColorMatrix in="SourceAlpha" type="matrix" values="0 0 0 0 0 0 0 0 0 0 0 0 0 0 0 0 0 0 127 0" result="hardAlpha"/>
<feOffset/>
<feGaussianBlur stdDeviation="12.5"/>
<feComposite in2="hardAlpha" operator="out"/>
<feColorMatrix type="matrix" values="0 0 0 0 1 0 0 0 0 0.9125 0 0 0 0 0.9125 0 0 0 0.8 0"/>
<feBlend mode="normal" in2="BackgroundImageFix" result="effect1_dropShadow_230_53"/>
<feBlend mode="normal" in="SourceGraphic" in2="effect1_dropShadow_230_53" result="shape"/>
</filter>
</defs>
</svg>
