<svg width="752" height="397" viewBox="0 0 752 397" fill="none" xmlns="http://www.w3.org/2000/svg">
<g clip-path="url(#clip0_297_28)">
<rect x="-31" width="798" height="407" fill="#1D1E25"/>
<path d="M227.96 176.182H230.602V190.628C230.602 192.119 230.251 193.451 229.548 194.623C228.852 195.788 227.868 196.707 226.597 197.382C225.325 198.05 223.834 198.384 222.122 198.384C220.411 198.384 218.919 198.05 217.648 197.382C216.376 196.707 215.389 195.788 214.686 194.623C213.99 193.451 213.642 192.119 213.642 190.628V176.182H216.284V190.415C216.284 191.48 216.518 192.428 216.987 193.259C217.456 194.083 218.124 194.733 218.99 195.209C219.864 195.678 220.908 195.912 222.122 195.912C223.337 195.912 224.381 195.678 225.254 195.209C226.128 194.733 226.795 194.083 227.257 193.259C227.726 192.428 227.96 191.48 227.96 190.415V176.182ZM238.052 188.156V198H235.537V181.636H237.966V184.193H238.18C238.563 183.362 239.145 182.695 239.927 182.19C240.708 181.679 241.716 181.423 242.952 181.423C244.06 181.423 245.03 181.651 245.861 182.105C246.692 182.553 247.338 183.234 247.8 184.151C248.261 185.06 248.492 186.21 248.492 187.602V198H245.978V187.773C245.978 186.487 245.644 185.486 244.976 184.768C244.309 184.044 243.393 183.682 242.228 183.682C241.425 183.682 240.708 183.856 240.076 184.204C239.451 184.552 238.957 185.06 238.595 185.727C238.233 186.395 238.052 187.205 238.052 188.156ZM259.265 198.341C257.902 198.341 256.698 197.996 255.654 197.308C254.61 196.612 253.793 195.631 253.203 194.367C252.614 193.096 252.319 191.594 252.319 189.861C252.319 188.142 252.614 186.651 253.203 185.386C253.793 184.122 254.613 183.146 255.664 182.457C256.716 181.768 257.93 181.423 259.308 181.423C260.373 181.423 261.215 181.601 261.833 181.956C262.458 182.304 262.934 182.702 263.26 183.149C263.594 183.589 263.853 183.952 264.038 184.236H264.251V176.182H266.765V198H264.336V195.486H264.038C263.853 195.784 263.591 196.161 263.25 196.615C262.909 197.062 262.422 197.464 261.79 197.819C261.158 198.167 260.316 198.341 259.265 198.341ZM259.606 196.082C260.615 196.082 261.467 195.82 262.163 195.294C262.859 194.761 263.388 194.026 263.75 193.089C264.113 192.144 264.294 191.054 264.294 189.818C264.294 188.597 264.116 187.528 263.761 186.612C263.406 185.688 262.88 184.971 262.184 184.46C261.488 183.941 260.629 183.682 259.606 183.682C258.541 183.682 257.653 183.955 256.943 184.502C256.24 185.042 255.711 185.777 255.355 186.707C255.007 187.631 254.833 188.668 254.833 189.818C254.833 190.983 255.011 192.041 255.366 192.993C255.728 193.937 256.261 194.69 256.964 195.251C257.674 195.805 258.555 196.082 259.606 196.082ZM278.58 198.341C277.003 198.341 275.643 197.993 274.5 197.297C273.363 196.594 272.486 195.614 271.868 194.357C271.257 193.092 270.952 191.622 270.952 189.946C270.952 188.27 271.257 186.793 271.868 185.514C272.486 184.229 273.346 183.227 274.446 182.51C275.554 181.786 276.847 181.423 278.324 181.423C279.176 181.423 280.018 181.565 280.849 181.849C281.68 182.134 282.436 182.595 283.118 183.234C283.8 183.866 284.343 184.705 284.748 185.749C285.153 186.793 285.355 188.078 285.355 189.605V190.67H272.742V188.497H282.799C282.799 187.574 282.614 186.75 282.245 186.026C281.882 185.301 281.364 184.729 280.689 184.31C280.022 183.891 279.233 183.682 278.324 183.682C277.323 183.682 276.456 183.93 275.725 184.428C275 184.918 274.443 185.557 274.052 186.345C273.662 187.134 273.466 187.979 273.466 188.881V190.33C273.466 191.565 273.679 192.613 274.105 193.472C274.539 194.325 275.139 194.974 275.906 195.422C276.673 195.862 277.564 196.082 278.58 196.082C279.24 196.082 279.837 195.99 280.37 195.805C280.909 195.614 281.375 195.33 281.765 194.953C282.156 194.57 282.458 194.094 282.671 193.526L285.1 194.207C284.844 195.031 284.414 195.756 283.811 196.381C283.207 196.999 282.461 197.482 281.574 197.83C280.686 198.17 279.688 198.341 278.58 198.341ZM289.18 198V181.636H291.609V184.108H291.779C292.078 183.298 292.618 182.641 293.399 182.137C294.18 181.633 295.061 181.381 296.041 181.381C296.225 181.381 296.456 181.384 296.733 181.391C297.01 181.398 297.22 181.409 297.362 181.423V183.98C297.277 183.959 297.081 183.927 296.776 183.884C296.478 183.835 296.162 183.81 295.828 183.81C295.032 183.81 294.322 183.977 293.697 184.31C293.079 184.637 292.589 185.092 292.227 185.674C291.872 186.249 291.694 186.906 291.694 187.645V198H289.18ZM315.854 198H309.121V176.182H316.152C318.268 176.182 320.079 176.619 321.585 177.492C323.091 178.359 324.245 179.605 325.047 181.232C325.85 182.851 326.251 184.79 326.251 187.048C326.251 189.321 325.846 191.278 325.037 192.918C324.227 194.552 323.048 195.809 321.5 196.69C319.952 197.563 318.069 198 315.854 198ZM311.763 195.656H315.683C317.487 195.656 318.982 195.308 320.168 194.612C321.354 193.916 322.238 192.925 322.821 191.64C323.403 190.354 323.694 188.824 323.694 187.048C323.694 185.287 323.407 183.771 322.831 182.499C322.256 181.221 321.397 180.241 320.253 179.559C319.11 178.87 317.686 178.526 315.981 178.526H311.763V195.656ZM337.203 198.341C335.626 198.341 334.266 197.993 333.123 197.297C331.986 196.594 331.109 195.614 330.491 194.357C329.881 193.092 329.575 191.622 329.575 189.946C329.575 188.27 329.881 186.793 330.491 185.514C331.109 184.229 331.969 183.227 333.069 182.51C334.177 181.786 335.47 181.423 336.947 181.423C337.8 181.423 338.641 181.565 339.472 181.849C340.303 182.134 341.059 182.595 341.741 183.234C342.423 183.866 342.966 184.705 343.371 185.749C343.776 186.793 343.979 188.078 343.979 189.605V190.67H331.365V188.497H341.422C341.422 187.574 341.237 186.75 340.868 186.026C340.506 185.301 339.987 184.729 339.312 184.31C338.645 183.891 337.856 183.682 336.947 183.682C335.946 183.682 335.079 183.93 334.348 184.428C333.623 184.918 333.066 185.557 332.675 186.345C332.285 187.134 332.089 187.979 332.089 188.881V190.33C332.089 191.565 332.302 192.613 332.729 193.472C333.162 194.325 333.762 194.974 334.529 195.422C335.296 195.862 336.187 196.082 337.203 196.082C337.863 196.082 338.46 195.99 338.993 195.805C339.532 195.614 339.998 195.33 340.388 194.953C340.779 194.57 341.081 194.094 341.294 193.526L343.723 194.207C343.467 195.031 343.037 195.756 342.434 196.381C341.83 196.999 341.084 197.482 340.197 197.83C339.309 198.17 338.311 198.341 337.203 198.341ZM360.686 181.636L354.635 198H352.078L346.027 181.636H348.754L353.271 194.676H353.441L357.958 181.636H360.686ZM370.279 198.341C368.702 198.341 367.342 197.993 366.199 197.297C365.062 196.594 364.185 195.614 363.567 194.357C362.957 193.092 362.651 191.622 362.651 189.946C362.651 188.27 362.957 186.793 363.567 185.514C364.185 184.229 365.045 183.227 366.146 182.51C367.254 181.786 368.546 181.423 370.023 181.423C370.876 181.423 371.717 181.565 372.548 181.849C373.379 182.134 374.136 182.595 374.817 183.234C375.499 183.866 376.043 184.705 376.447 185.749C376.852 186.793 377.055 188.078 377.055 189.605V190.67H364.441V188.497H374.498C374.498 187.574 374.313 186.75 373.944 186.026C373.582 185.301 373.063 184.729 372.388 184.31C371.721 183.891 370.933 183.682 370.023 183.682C369.022 183.682 368.156 183.93 367.424 184.428C366.7 184.918 366.142 185.557 365.751 186.345C365.361 187.134 365.165 187.979 365.165 188.881V190.33C365.165 191.565 365.379 192.613 365.805 193.472C366.238 194.325 366.838 194.974 367.605 195.422C368.372 195.862 369.263 196.082 370.279 196.082C370.94 196.082 371.536 195.99 372.069 195.805C372.609 195.614 373.074 195.33 373.464 194.953C373.855 194.57 374.157 194.094 374.37 193.526L376.799 194.207C376.543 195.031 376.114 195.756 375.51 196.381C374.906 196.999 374.161 197.482 373.273 197.83C372.385 198.17 371.387 198.341 370.279 198.341ZM383.393 176.182V198H380.879V176.182H383.393ZM394.646 198.341C393.169 198.341 391.873 197.989 390.758 197.286C389.65 196.583 388.783 195.599 388.158 194.335C387.54 193.071 387.231 191.594 387.231 189.903C387.231 188.199 387.54 186.711 388.158 185.44C388.783 184.168 389.65 183.181 390.758 182.478C391.873 181.775 393.169 181.423 394.646 181.423C396.123 181.423 397.416 181.775 398.524 182.478C399.639 183.181 400.506 184.168 401.123 185.44C401.748 186.711 402.061 188.199 402.061 189.903C402.061 191.594 401.748 193.071 401.123 194.335C400.506 195.599 399.639 196.583 398.524 197.286C397.416 197.989 396.123 198.341 394.646 198.341ZM394.646 196.082C395.768 196.082 396.692 195.795 397.416 195.219C398.14 194.644 398.677 193.888 399.025 192.95C399.373 192.013 399.547 190.997 399.547 189.903C399.547 188.81 399.373 187.79 399.025 186.846C398.677 185.901 398.14 185.138 397.416 184.555C396.692 183.973 395.768 183.682 394.646 183.682C393.524 183.682 392.601 183.973 391.876 184.555C391.152 185.138 390.616 185.901 390.268 186.846C389.92 187.79 389.746 188.81 389.746 189.903C389.746 190.997 389.92 192.013 390.268 192.95C390.616 193.888 391.152 194.644 391.876 195.219C392.601 195.795 393.524 196.082 394.646 196.082ZM405.899 204.136V181.636H408.328V184.236H408.626C408.811 183.952 409.066 183.589 409.393 183.149C409.727 182.702 410.203 182.304 410.821 181.956C411.446 181.601 412.291 181.423 413.356 181.423C414.734 181.423 415.949 181.768 417 182.457C418.051 183.146 418.871 184.122 419.461 185.386C420.05 186.651 420.345 188.142 420.345 189.861C420.345 191.594 420.05 193.096 419.461 194.367C418.871 195.631 418.054 196.612 417.01 197.308C415.966 197.996 414.762 198.341 413.399 198.341C412.348 198.341 411.506 198.167 410.874 197.819C410.242 197.464 409.755 197.062 409.414 196.615C409.074 196.161 408.811 195.784 408.626 195.486H408.413V204.136H405.899ZM408.37 189.818C408.37 191.054 408.551 192.144 408.914 193.089C409.276 194.026 409.805 194.761 410.501 195.294C411.197 195.82 412.049 196.082 413.058 196.082C414.109 196.082 414.986 195.805 415.689 195.251C416.4 194.69 416.932 193.937 417.287 192.993C417.65 192.041 417.831 190.983 417.831 189.818C417.831 188.668 417.653 187.631 417.298 186.707C416.95 185.777 416.421 185.042 415.711 184.502C415.007 183.955 414.123 183.682 413.058 183.682C412.035 183.682 411.176 183.941 410.48 184.46C409.784 184.971 409.258 185.688 408.903 186.612C408.548 187.528 408.37 188.597 408.37 189.818ZM424.18 198V181.636H426.609V184.193H426.822C427.163 183.32 427.713 182.641 428.473 182.158C429.233 181.668 430.146 181.423 431.211 181.423C432.291 181.423 433.189 181.668 433.907 182.158C434.631 182.641 435.196 183.32 435.6 184.193H435.771C436.19 183.348 436.819 182.677 437.657 182.18C438.495 181.675 439.5 181.423 440.672 181.423C442.135 181.423 443.331 181.881 444.262 182.798C445.192 183.707 445.657 185.124 445.657 187.048V198H443.143V187.048C443.143 185.841 442.813 184.978 442.152 184.46C441.492 183.941 440.714 183.682 439.819 183.682C438.669 183.682 437.777 184.03 437.145 184.726C436.513 185.415 436.197 186.288 436.197 187.347V198H433.64V186.793C433.64 185.862 433.338 185.113 432.735 184.545C432.131 183.969 431.353 183.682 430.402 183.682C429.748 183.682 429.137 183.856 428.569 184.204C428.008 184.552 427.554 185.035 427.206 185.653C426.865 186.263 426.694 186.97 426.694 187.773V198H424.18ZM457.115 198.341C455.538 198.341 454.178 197.993 453.035 197.297C451.898 196.594 451.021 195.614 450.403 194.357C449.793 193.092 449.487 191.622 449.487 189.946C449.487 188.27 449.793 186.793 450.403 185.514C451.021 184.229 451.881 183.227 452.982 182.51C454.089 181.786 455.382 181.423 456.859 181.423C457.712 181.423 458.553 181.565 459.384 181.849C460.215 182.134 460.972 182.595 461.653 183.234C462.335 183.866 462.879 184.705 463.283 185.749C463.688 186.793 463.891 188.078 463.891 189.605V190.67H451.277V188.497H461.334C461.334 187.574 461.149 186.75 460.78 186.026C460.418 185.301 459.899 184.729 459.224 184.31C458.557 183.891 457.768 183.682 456.859 183.682C455.858 183.682 454.991 183.93 454.26 184.428C453.536 184.918 452.978 185.557 452.587 186.345C452.197 187.134 452.001 187.979 452.001 188.881V190.33C452.001 191.565 452.214 192.613 452.641 193.472C453.074 194.325 453.674 194.974 454.441 195.422C455.208 195.862 456.099 196.082 457.115 196.082C457.776 196.082 458.372 195.99 458.905 195.805C459.445 195.614 459.91 195.33 460.3 194.953C460.691 194.57 460.993 194.094 461.206 193.526L463.635 194.207C463.379 195.031 462.95 195.756 462.346 196.381C461.742 196.999 460.996 197.482 460.109 197.83C459.221 198.17 458.223 198.341 457.115 198.341ZM470.229 188.156V198H467.715V181.636H470.144V184.193H470.357C470.741 183.362 471.323 182.695 472.104 182.19C472.886 181.679 473.894 181.423 475.13 181.423C476.238 181.423 477.207 181.651 478.038 182.105C478.869 182.553 479.516 183.234 479.977 184.151C480.439 185.06 480.67 186.21 480.67 187.602V198H478.156V187.773C478.156 186.487 477.822 185.486 477.154 184.768C476.487 184.044 475.57 183.682 474.406 183.682C473.603 183.682 472.886 183.856 472.254 184.204C471.629 184.552 471.135 185.06 470.773 185.727C470.411 186.395 470.229 187.205 470.229 188.156ZM492.381 181.636V183.767H483.9V181.636H492.381ZM486.372 177.716H488.886V193.312C488.886 194.023 488.989 194.555 489.195 194.911C489.408 195.259 489.678 195.493 490.005 195.614C490.339 195.727 490.69 195.784 491.059 195.784C491.336 195.784 491.564 195.77 491.741 195.741C491.919 195.706 492.061 195.678 492.167 195.656L492.679 197.915C492.508 197.979 492.27 198.043 491.965 198.107C491.66 198.178 491.273 198.213 490.804 198.213C490.094 198.213 489.398 198.06 488.716 197.755C488.041 197.45 487.48 196.984 487.032 196.359C486.592 195.734 486.372 194.946 486.372 193.994V177.716ZM497.995 198.17C497.469 198.17 497.018 197.982 496.642 197.606C496.265 197.229 496.077 196.778 496.077 196.253C496.077 195.727 496.265 195.276 496.642 194.9C497.018 194.523 497.469 194.335 497.995 194.335C498.52 194.335 498.971 194.523 499.348 194.9C499.724 195.276 499.912 195.727 499.912 196.253C499.912 196.601 499.824 196.92 499.646 197.212C499.476 197.503 499.245 197.737 498.954 197.915C498.67 198.085 498.35 198.17 497.995 198.17ZM506.257 198.17C505.731 198.17 505.28 197.982 504.904 197.606C504.527 197.229 504.339 196.778 504.339 196.253C504.339 195.727 504.527 195.276 504.904 194.9C505.28 194.523 505.731 194.335 506.257 194.335C506.782 194.335 507.233 194.523 507.61 194.9C507.986 195.276 508.174 195.727 508.174 196.253C508.174 196.601 508.085 196.92 507.908 197.212C507.737 197.503 507.507 197.737 507.215 197.915C506.931 198.085 506.612 198.17 506.257 198.17ZM514.518 198.17C513.993 198.17 513.542 197.982 513.165 197.606C512.789 197.229 512.601 196.778 512.601 196.253C512.601 195.727 512.789 195.276 513.165 194.9C513.542 194.523 513.993 194.335 514.518 194.335C515.044 194.335 515.495 194.523 515.871 194.9C516.248 195.276 516.436 195.727 516.436 196.253C516.436 196.601 516.347 196.92 516.17 197.212C515.999 197.503 515.768 197.737 515.477 197.915C515.193 198.085 514.873 198.17 514.518 198.17Z" fill="white"/>
</g>
<defs>
<clipPath id="clip0_297_28">
<rect width="752" height="397" rx="100" fill="white"/>
</clipPath>
</defs>
</svg>
