<svg width="1036" height="428" viewBox="0 0 1036 428" fill="none" xmlns="http://www.w3.org/2000/svg">
<g clip-path="url(#clip0_210_2)">
<path d="M172.567 254.526L98.4335 205.187L94.2468 211.32L168.449 260.815L172.567 254.526Z" fill="white"/>
<path d="M23.4794 371.827L119.863 385.212L120.905 377.886L24.5214 364.501L23.4794 371.827Z" fill="white"/>
<path d="M401.295 229.743L383.7 120.253H376.962L393.059 229.743H401.295Z" fill="white"/>
<path d="M470.068 114.337C410.054 107.007 349.17 116.749 294.564 142.42L297.294 148.091C350.808 122.934 410.475 113.386 469.288 120.569L470.068 114.337Z" fill="white"/>
<path d="M243.773 356.2L133.634 315.19L131.388 321.108L241.447 362.907L243.773 356.2Z" fill="white"/>
<path d="M611.083 331.098L800.984 227.086L797.354 220.616L607.454 324.628L611.083 331.098Z" fill="white"/>
<path d="M469.427 120.623L484.401 10.4801L477.288 9.65265L463.437 119.883L469.427 120.623Z" fill="white"/>
<path d="M116.414 384.731C122.648 336.729 139.507 292.068 166.674 251.799L171.962 255.282C145.339 294.746 128.513 338.428 122.404 385.471L119.035 385.101L116.414 384.731Z" fill="white"/>
<path d="M843.641 330.732C825.718 254.866 786.728 185.447 731.056 130.283L726.555 134.717C781.392 189.054 819.798 257.432 837.452 332.159L843.641 330.732Z" fill="white"/>
<path d="M297.574 148.267L249.226 48.1076L242.468 51.2925L290.817 151.452L297.574 148.267Z" fill="white"/>
<path d="M570.595 30.6067C513.584 10.9544 452.98 3.56948 392.845 8.9468L393.441 15.4601C452.637 10.1668 512.294 17.4364 568.415 36.7816L570.595 30.6067Z" fill="white"/>
<path d="M234.639 493.472C198.482 385.626 257.3 268.215 366.013 231.227C474.726 194.24 592.166 251.682 628.323 359.528C664.48 467.374 605.662 584.785 496.949 621.772C388.236 658.76 270.796 601.318 234.639 493.472ZM622.417 361.537C587.345 256.926 473.428 201.208 367.977 237.086C262.526 272.964 205.472 386.852 240.545 491.463C275.617 596.074 389.534 651.792 494.985 615.914C600.436 580.036 657.49 466.147 622.417 361.537Z" fill="white"/>
<path d="M395.53 438.301C389.028 418.908 399.605 397.796 419.153 391.145C438.702 384.493 459.819 394.823 466.321 414.215C472.823 433.608 462.246 454.72 442.698 461.371C423.149 468.022 402.032 457.693 395.53 438.301ZM465.259 414.576C458.953 395.766 438.468 385.746 419.506 392.198C400.544 398.649 390.285 419.129 396.592 437.939C402.898 456.75 423.383 466.769 442.345 460.318C461.307 453.866 471.566 433.387 465.259 414.576Z" fill="#FFF8F8"/>
</g>
<defs>
<clipPath id="clip0_210_2">
<rect width="1036" height="428" fill="white"/>
</clipPath>
</defs>
</svg>
