<svg width="1440" height="4977" viewBox="0 0 1440 4977" fill="none" xmlns="http://www.w3.org/2000/svg">
<g clip-path="url(#clip0_230_57)">
<rect width="1440" height="4977" fill="#0D0808"/>
<g filter="url(#filter0_f_230_57)">
<path d="M54.1869 3983.8C149.282 3977.55 211.347 3942.45 271.716 3860.78C394.011 3695.33 -320.514 3642.77 -221.004 3824.53C-158.261 3939.14 -67.2795 3991.8 54.1869 3983.8Z" fill="white" fill-opacity="0.18"/>
</g>
<g filter="url(#filter1_f_230_57)">
<path d="M1305.65 786.089C1306.07 785.791 1306.52 785.499 1306.99 785.215C1320.43 777.134 1318.06 778.823 1305.65 786.089C1271.8 809.911 1388.84 879.53 1328.21 880.326C1293.94 880.777 1244.81 862.097 1198.36 843.897C1103.31 890.527 996.484 928.227 1069.88 817.863C1083.21 797.814 1138.55 820.457 1198.36 843.897C1243.82 821.598 1286.58 797.257 1305.65 786.089Z" fill="white" fill-opacity="0.18"/>
</g>
<g filter="url(#filter2_d_230_57)">
<rect x="1145" y="838" width="104" height="28" rx="14" stroke="white" stroke-width="6" shape-rendering="crispEdges"/>
</g>
<g filter="url(#filter3_d_230_57)">
<path d="M1164 851H1230C1230.55 851 1231 851.448 1231 852C1231 852.552 1230.55 853 1230 853H1164C1163.45 853 1163 852.552 1163 852C1163 851.448 1163.45 851 1164 851Z" stroke="white" stroke-width="6" shape-rendering="crispEdges"/>
</g>
<g filter="url(#filter4_d_230_57)">
<rect x="169.934" y="1582" width="218.069" height="28" rx="14" stroke="white" stroke-width="6" shape-rendering="crispEdges"/>
</g>
<g filter="url(#filter5_d_230_57)">
<path d="M207.747 1595H350.484C351.036 1595 351.484 1595.45 351.484 1596C351.484 1596.55 351.036 1597 350.484 1597H207.747C207.195 1597 206.747 1596.55 206.747 1596C206.747 1595.45 207.195 1595 207.747 1595Z" stroke="white" stroke-width="6" shape-rendering="crispEdges"/>
</g>
<g filter="url(#filter6_d_230_57)">
<rect x="90" y="865" width="222" height="33" rx="16.5" stroke="white" stroke-width="6" shape-rendering="crispEdges"/>
</g>
<g filter="url(#filter7_d_230_57)">
<path d="M127.588 880H271.794C272.671 880 273.382 880.711 273.382 881.588C273.382 882.465 272.671 883.176 271.794 883.176H127.588C126.711 883.176 126 882.465 126 881.588C126 880.711 126.711 880 127.588 880Z" stroke="white" stroke-width="6" shape-rendering="crispEdges"/>
</g>
<g filter="url(#filter8_f_230_57)">
<path d="M126.322 909.786C110.003 909.919 117.747 906.555 135.977 901.5C81.4219 887.678 -101.733 860.508 50.379 850.757C87.3937 848.384 114.253 855.531 242.045 858.965C315.402 860.936 186.082 887.606 135.977 901.5C155.03 906.327 158.398 909.526 126.322 909.786Z" fill="#FF0000" fill-opacity="0.6"/>
<path d="M126.322 909.786C110.003 909.919 117.747 906.555 135.977 901.5C81.4219 887.678 -101.733 860.508 50.379 850.757C87.3937 848.384 114.253 855.531 242.045 858.965C315.402 860.936 186.082 887.606 135.977 901.5C155.03 906.327 158.398 909.526 126.322 909.786Z" fill="#FF0000" fill-opacity="0.6"/>
<path d="M126.322 909.786C110.003 909.919 117.747 906.555 135.977 901.5C81.4219 887.678 -101.733 860.508 50.379 850.757C87.3937 848.384 114.253 855.531 242.045 858.965C315.402 860.936 186.082 887.606 135.977 901.5C155.03 906.327 158.398 909.526 126.322 909.786Z" fill="#FF0000" fill-opacity="0.6"/>
<path d="M126.322 909.786C110.003 909.919 117.747 906.555 135.977 901.5C81.4219 887.678 -101.733 860.508 50.379 850.757C87.3937 848.384 114.253 855.531 242.045 858.965C315.402 860.936 186.082 887.606 135.977 901.5C155.03 906.327 158.398 909.526 126.322 909.786Z" fill="#FF0000" fill-opacity="0.6"/>
<path d="M126.322 909.786C110.003 909.919 117.747 906.555 135.977 901.5C81.4219 887.678 -101.733 860.508 50.379 850.757C87.3937 848.384 114.253 855.531 242.045 858.965C315.402 860.936 186.082 887.606 135.977 901.5C155.03 906.327 158.398 909.526 126.322 909.786Z" fill="#FF0000" fill-opacity="0.6"/>
<path d="M126.322 909.786C110.003 909.919 117.747 906.555 135.977 901.5C81.4219 887.678 -101.733 860.508 50.379 850.757C87.3937 848.384 114.253 855.531 242.045 858.965C315.402 860.936 186.082 887.606 135.977 901.5C155.03 906.327 158.398 909.526 126.322 909.786Z" fill="#FF0000" fill-opacity="0.6"/>
<path d="M126.322 909.786C110.003 909.919 117.747 906.555 135.977 901.5C81.4219 887.678 -101.733 860.508 50.379 850.757C87.3937 848.384 114.253 855.531 242.045 858.965C315.402 860.936 186.082 887.606 135.977 901.5C155.03 906.327 158.398 909.526 126.322 909.786Z" fill="#FF0000" fill-opacity="0.6"/>
<path d="M126.322 909.786C110.003 909.919 117.747 906.555 135.977 901.5C81.4219 887.678 -101.733 860.508 50.379 850.757C87.3937 848.384 114.253 855.531 242.045 858.965C315.402 860.936 186.082 887.606 135.977 901.5C155.03 906.327 158.398 909.526 126.322 909.786Z" fill="#FF0000" fill-opacity="0.6"/>
<path d="M126.322 909.786C110.003 909.919 117.747 906.555 135.977 901.5C81.4219 887.678 -101.733 860.508 50.379 850.757C87.3937 848.384 114.253 855.531 242.045 858.965C315.402 860.936 186.082 887.606 135.977 901.5C155.03 906.327 158.398 909.526 126.322 909.786Z" fill="#FF0000" fill-opacity="0.6"/>
</g>
<g filter="url(#filter9_f_230_57)">
<path d="M1103.34 1610.72C1078.59 1611.21 1090.42 1605.74 1118.19 1597.41C1035.84 1576.41 758.88 1536.46 989.743 1518.36C1045.92 1513.96 1086.45 1524.84 1280.1 1528.09C1391.26 1529.95 1194.51 1574.5 1118.19 1597.41C1146.95 1604.74 1151.97 1609.76 1103.34 1610.72Z" fill="#C50000" fill-opacity="0.6"/>
</g>
<g filter="url(#filter10_f_230_57)">
<path d="M977.568 1681.72C952.824 1682.21 964.652 1676.74 992.421 1668.41C910.074 1647.41 633.112 1607.46 863.975 1589.36C920.153 1584.96 960.686 1595.84 1154.33 1599.09C1265.5 1600.95 1068.75 1645.5 992.421 1668.41C1021.18 1675.74 1026.2 1680.76 977.568 1681.72Z" fill="#C50000" fill-opacity="0.6"/>
</g>
<g filter="url(#filter11_f_230_57)">
<path d="M1093.28 2768.44C1155.97 2764.31 1196.88 2741.18 1236.67 2687.34C1317.28 2578.28 846.291 2543.64 911.884 2663.45C953.243 2739 1013.22 2773.71 1093.28 2768.44Z" fill="white" fill-opacity="0.2"/>
</g>
<g filter="url(#filter12_f_230_57)">
<path d="M712.57 240.291C856.443 244.145 1062.19 232.204 1044.49 250.484C1014.41 281.559 434.396 298.171 433.697 230.982C433.632 224.769 528.799 235.368 712.57 240.291Z" fill="white" fill-opacity="0.15"/>
</g>
<g filter="url(#filter13_f_230_57)">
<path d="M1195.32 872.721C1178.99 873.212 1186.8 867.741 1205.13 859.406C1150.78 838.414 968.001 798.456 1120.36 780.363C1157.43 775.96 1184.18 786.838 1311.98 790.086C1385.34 791.95 1255.5 836.497 1205.13 859.406C1224.11 866.737 1227.42 871.755 1195.32 872.721Z" fill="#0047FF" fill-opacity="0.6"/>
</g>
<g filter="url(#filter14_f_230_57)">
<path d="M1112.32 943.721C1095.99 944.212 1103.8 938.741 1122.13 930.406C1067.78 909.414 885.001 869.456 1037.36 851.363C1074.43 846.96 1101.18 857.838 1228.98 861.086C1302.34 862.95 1172.5 907.497 1122.13 930.406C1141.11 937.737 1144.42 942.755 1112.32 943.721Z" fill="#0047FF" fill-opacity="0.6"/>
</g>
<g filter="url(#filter15_f_230_57)">
<path d="M1250.62 1524.09C1251.46 1523.79 1252.34 1523.5 1253.28 1523.22C1279.86 1515.13 1275.16 1516.82 1250.62 1524.09C1183.66 1547.91 1415.18 1617.53 1295.25 1618.33C1227.46 1618.78 1130.26 1600.1 1038.39 1581.9C850.357 1628.53 639.025 1666.23 784.216 1555.86C810.593 1535.81 920.064 1558.46 1038.39 1581.9C1128.31 1559.6 1212.9 1535.26 1250.62 1524.09Z" fill="white" fill-opacity="0.18"/>
</g>
<g filter="url(#filter16_d_230_57)">
<rect x="929.886" y="1576" width="211.604" height="28" rx="14" stroke="white" stroke-width="6" shape-rendering="crispEdges"/>
</g>
<g filter="url(#filter17_d_230_57)">
<path d="M966.495 1589H1104.88C1105.43 1589 1105.88 1589.45 1105.88 1590C1105.88 1590.55 1105.43 1591 1104.88 1591H966.495C965.942 1591 965.495 1590.55 965.495 1590C965.495 1589.45 965.942 1589 966.495 1589Z" stroke="white" stroke-width="6" shape-rendering="crispEdges"/>
</g>
<g filter="url(#filter18_f_230_57)">
<path d="M283.74 1658C259.688 1658.65 271.223 1652.23 298.273 1642.42C218.388 1618.2 -50.5104 1572.49 174.002 1550.64C228.634 1545.32 267.951 1557.88 456.139 1561.04C564.166 1562.86 372.619 1615.45 298.273 1642.42C326.171 1650.88 331.017 1656.72 283.74 1658Z" fill="#0047FF" fill-opacity="0.6"/>
</g>
<g filter="url(#filter19_dd_230_57)">
<path d="M629.719 343.167H618.188V365.948H629.719V343.167ZM633.445 324.183H650.18L650.355 324.148C651.387 324.148 652.266 323.784 652.992 323.058C653.719 322.331 654.082 321.452 654.082 320.421C654.082 319.39 653.719 318.511 652.992 317.784C652.266 317.058 651.387 316.695 650.355 316.695L633.445 316.659V324.183ZM666.457 304.32C670.887 308.773 673.102 314.128 673.102 320.386C673.102 326.409 671.027 331.613 666.879 335.995C662.73 340.355 657.668 342.71 651.691 343.062C651.48 343.132 651.27 343.167 651.059 343.167H633.445V367.812C633.445 368.327 633.258 368.773 632.883 369.148C632.531 369.499 632.098 369.675 631.582 369.675H616.324C615.809 369.675 615.363 369.499 614.988 369.148C614.637 368.773 614.461 368.327 614.461 367.812V341.304C614.461 340.788 614.637 340.355 614.988 340.003C615.363 339.628 615.809 339.441 616.324 339.441H649.898C650.086 339.394 650.25 339.37 650.391 339.37C655.641 339.37 660.117 337.519 663.82 333.816C667.547 330.089 669.41 325.613 669.41 320.386C669.41 315.136 667.547 310.659 663.82 306.956C660.117 303.253 655.641 301.402 650.391 301.402H618.188V324.183H629.719V314.796C629.719 314.281 629.906 313.847 630.281 313.495C630.633 313.12 631.066 312.933 631.582 312.933L650.355 312.968C652.418 312.968 654.176 313.695 655.629 315.148C657.082 316.624 657.809 318.382 657.809 320.421C657.809 322.413 657.117 324.124 655.734 325.554C654.375 326.984 652.711 327.757 650.742 327.874C650.602 327.898 650.473 327.909 650.355 327.909H616.324C615.809 327.909 615.363 327.722 614.988 327.347C614.637 326.995 614.461 326.562 614.461 326.046V299.538C614.461 299.023 614.637 298.577 614.988 298.202C615.363 297.851 615.809 297.675 616.324 297.675H650.391C656.648 297.675 662.004 299.89 666.457 304.32ZM720.422 368.234C720.305 367.741 720.387 367.273 720.668 366.827C720.926 366.382 721.312 366.113 721.828 366.019C729.281 364.284 735.375 360.452 740.109 354.523C744.844 348.593 747.211 341.784 747.211 334.097C747.211 325.073 744.012 317.363 737.613 310.964C731.215 304.566 723.504 301.366 714.48 301.366C705.457 301.366 697.746 304.566 691.348 310.964C684.949 317.363 681.75 325.073 681.75 334.097C681.75 341.363 683.883 347.878 688.148 353.644C692.414 359.386 697.98 363.3 704.848 365.386V352.695C701.379 350.913 698.625 348.347 696.586 344.995C694.547 341.644 693.527 338.011 693.527 334.097C693.527 328.331 695.578 323.409 699.68 319.331C703.758 315.23 708.691 313.179 714.48 313.179C720.246 313.179 725.168 315.23 729.246 319.331C733.348 323.409 735.398 328.331 735.398 334.097C735.398 338.222 734.273 342.019 732.023 345.488C729.773 348.956 726.762 351.534 722.988 353.222C722.52 353.433 722.039 353.445 721.547 353.257C721.078 353.07 720.738 352.741 720.527 352.273C720.316 351.804 720.305 351.335 720.492 350.866C720.68 350.398 721.008 350.058 721.477 349.847C724.57 348.464 727.043 346.343 728.895 343.484C730.746 340.624 731.672 337.495 731.672 334.097C731.672 329.363 729.996 325.308 726.645 321.933C723.27 318.581 719.215 316.906 714.48 316.906C709.723 316.906 705.656 318.581 702.281 321.933C698.93 325.308 697.254 329.363 697.254 334.097C697.254 337.495 698.18 340.624 700.031 343.484C701.883 346.343 704.355 348.464 707.449 349.847C708.199 350.175 708.574 350.738 708.574 351.534V367.812C708.574 368.421 708.34 368.902 707.871 369.253C707.402 369.628 706.875 369.757 706.289 369.64C698.109 367.765 691.371 363.546 686.074 356.984C680.707 350.304 678.023 342.675 678.023 334.097C678.023 324.066 681.586 315.488 688.711 308.363C695.836 301.238 704.426 297.675 714.48 297.675C724.512 297.675 733.09 301.238 740.215 308.363C747.34 315.488 750.902 324.066 750.902 334.097C750.902 342.675 748.219 350.304 742.852 356.984C737.555 363.546 730.816 367.765 722.637 369.64C722.496 369.663 722.355 369.675 722.215 369.675C721.23 369.675 720.633 369.195 720.422 368.234ZM814.641 365.667L797.66 343.519C797.566 343.425 797.496 343.308 797.449 343.167H783L800.086 365.667H814.641ZM765.492 365.948H777.023V343.167H765.492V365.948ZM780.75 324.183H797.484L797.66 324.148C798.691 324.148 799.57 323.784 800.297 323.058C801.023 322.331 801.387 321.452 801.387 320.421C801.387 319.39 801.023 318.511 800.297 317.784C799.57 317.058 798.691 316.695 797.66 316.695L780.75 316.659V324.183ZM819.879 366.406C820.348 367.015 820.406 367.671 820.055 368.374C819.727 369.054 819.176 369.394 818.402 369.394H799.137C798.527 369.394 798.035 369.148 797.66 368.656L780.75 346.366V367.812C780.75 368.327 780.562 368.773 780.188 369.148C779.836 369.499 779.402 369.675 778.887 369.675H763.629C763.113 369.675 762.668 369.499 762.293 369.148C761.941 368.773 761.766 368.327 761.766 367.812V341.304C761.766 340.788 761.941 340.355 762.293 340.003C762.668 339.628 763.113 339.441 763.629 339.441H797.203C797.391 339.394 797.555 339.37 797.695 339.37C802.945 339.37 807.422 337.519 811.125 333.816C814.852 330.089 816.715 325.613 816.715 320.386C816.715 315.136 814.852 310.659 811.125 306.956C807.422 303.253 802.945 301.402 797.695 301.402C797.719 301.402 797.719 301.402 797.695 301.402C797.672 301.402 797.66 301.402 797.66 301.402H765.492V324.183H777.023V314.796C777.023 314.281 777.211 313.847 777.586 313.495C777.938 313.12 778.371 312.933 778.887 312.933L797.66 312.968C799.723 312.968 801.48 313.695 802.934 315.148C804.387 316.624 805.113 318.382 805.113 320.421C805.113 322.413 804.422 324.124 803.039 325.554C801.68 326.984 800.016 327.757 798.047 327.874C797.906 327.898 797.777 327.909 797.66 327.909H763.629C763.113 327.909 762.668 327.722 762.293 327.347C761.941 326.995 761.766 326.562 761.766 326.046V299.538C761.766 299.023 761.941 298.577 762.293 298.202C762.668 297.851 763.113 297.675 763.629 297.675H797.66C797.66 297.675 797.672 297.675 797.695 297.675C797.719 297.675 797.719 297.675 797.695 297.675C803.953 297.675 809.309 299.89 813.762 304.32C818.191 308.773 820.406 314.128 820.406 320.386C820.406 325.917 818.625 330.792 815.062 335.011C811.523 339.206 807.082 341.784 801.738 342.745L819.879 366.406ZM903.023 301.402H878.449V313.003H903.023V301.402ZM834.82 313.003H859.395V301.402H834.82V313.003ZM904.887 297.675C905.402 297.675 905.836 297.851 906.188 298.202C906.562 298.577 906.75 299.023 906.75 299.538V314.866C906.75 315.359 906.562 315.792 906.188 316.167C905.836 316.519 905.402 316.695 904.887 316.695H878.449V367.812C878.449 368.327 878.262 368.773 877.887 369.148C877.535 369.499 877.102 369.675 876.586 369.675H861.258C860.742 369.675 860.309 369.499 859.957 369.148C859.582 368.773 859.395 368.327 859.395 367.812V316.695H832.957C832.441 316.695 831.996 316.519 831.621 316.167C831.27 315.792 831.094 315.359 831.094 314.866V299.538C831.094 299.023 831.27 298.577 831.621 298.202C831.996 297.851 832.441 297.675 832.957 297.675H861.258C861.773 297.675 862.207 297.851 862.559 298.202C862.934 298.577 863.121 299.023 863.121 299.538V365.948H874.723V299.538C874.723 299.023 874.91 298.577 875.285 298.202C875.637 297.851 876.07 297.675 876.586 297.675H904.887ZM973.02 301.402H921.797V324.183H933.328V314.796C933.328 314.281 933.516 313.847 933.891 313.495C934.242 313.12 934.676 312.933 935.191 312.933H973.02V301.402ZM933.328 343.167H921.797V365.948H933.328V343.167ZM974.848 297.675C975.363 297.675 975.809 297.851 976.184 298.202C976.535 298.577 976.711 299.023 976.711 299.538V314.796C976.711 315.312 976.535 315.757 976.184 316.132C975.809 316.484 975.363 316.659 974.848 316.659H937.055V324.183H959.73C960.246 324.183 960.691 324.359 961.066 324.71C961.418 325.085 961.594 325.531 961.594 326.046V341.304C961.594 341.82 961.418 342.265 961.066 342.64C960.691 342.991 960.246 343.167 959.73 343.167H937.055V367.812C937.055 368.327 936.867 368.773 936.492 369.148C936.141 369.499 935.707 369.675 935.191 369.675H919.934C919.418 369.675 918.973 369.499 918.598 369.148C918.246 368.773 918.07 368.327 918.07 367.812V341.304C918.07 340.788 918.246 340.355 918.598 340.003C918.973 339.628 919.418 339.441 919.934 339.441H957.867V327.909H919.934C919.418 327.909 918.973 327.722 918.598 327.347C918.246 326.995 918.07 326.562 918.07 326.046V299.538C918.07 299.023 918.246 298.577 918.598 298.202C918.973 297.851 919.418 297.675 919.934 297.675H974.848ZM1024.03 368.234C1023.91 367.741 1024 367.273 1024.28 366.827C1024.54 366.382 1024.92 366.113 1025.44 366.019C1032.89 364.284 1038.98 360.452 1043.72 354.523C1048.45 348.593 1050.82 341.784 1050.82 334.097C1050.82 325.073 1047.62 317.363 1041.22 310.964C1034.82 304.566 1027.11 301.366 1018.09 301.366C1009.07 301.366 1001.36 304.566 994.957 310.964C988.559 317.363 985.359 325.073 985.359 334.097C985.359 341.363 987.492 347.878 991.758 353.644C996.023 359.386 1001.59 363.3 1008.46 365.386V352.695C1004.99 350.913 1002.23 348.347 1000.2 344.995C998.156 341.644 997.137 338.011 997.137 334.097C997.137 328.331 999.188 323.409 1003.29 319.331C1007.37 315.23 1012.3 313.179 1018.09 313.179C1023.86 313.179 1028.78 315.23 1032.86 319.331C1036.96 323.409 1039.01 328.331 1039.01 334.097C1039.01 338.222 1037.88 342.019 1035.63 345.488C1033.38 348.956 1030.37 351.534 1026.6 353.222C1026.13 353.433 1025.65 353.445 1025.16 353.257C1024.69 353.07 1024.35 352.741 1024.14 352.273C1023.93 351.804 1023.91 351.335 1024.1 350.866C1024.29 350.398 1024.62 350.058 1025.09 349.847C1028.18 348.464 1030.65 346.343 1032.5 343.484C1034.36 340.624 1035.28 337.495 1035.28 334.097C1035.28 329.363 1033.61 325.308 1030.25 321.933C1026.88 318.581 1022.82 316.906 1018.09 316.906C1013.33 316.906 1009.27 318.581 1005.89 321.933C1002.54 325.308 1000.86 329.363 1000.86 334.097C1000.86 337.495 1001.79 340.624 1003.64 343.484C1005.49 346.343 1007.96 348.464 1011.06 349.847C1011.81 350.175 1012.18 350.738 1012.18 351.534V367.812C1012.18 368.421 1011.95 368.902 1011.48 369.253C1011.01 369.628 1010.48 369.757 1009.9 369.64C1001.72 367.765 994.98 363.546 989.684 356.984C984.316 350.304 981.633 342.675 981.633 334.097C981.633 324.066 985.195 315.488 992.32 308.363C999.445 301.238 1008.04 297.675 1018.09 297.675C1028.12 297.675 1036.7 301.238 1043.82 308.363C1050.95 315.488 1054.51 324.066 1054.51 334.097C1054.51 342.675 1051.83 350.304 1046.46 356.984C1041.16 363.546 1034.43 367.765 1026.25 369.64C1026.11 369.663 1025.96 369.675 1025.82 369.675C1024.84 369.675 1024.24 369.195 1024.03 368.234ZM1118.04 354.347H1084.39V365.948H1118.04V354.347ZM1119.87 350.656C1120.38 350.656 1120.83 350.831 1121.2 351.183C1121.55 351.558 1121.73 351.991 1121.73 352.484V367.812C1121.73 368.327 1121.55 368.773 1121.2 369.148C1120.83 369.499 1120.38 369.675 1119.87 369.675H1082.57C1082.05 369.675 1081.61 369.499 1081.23 369.148C1080.88 368.773 1080.7 368.327 1080.7 367.812V301.402H1069.1V367.812C1069.1 368.327 1068.91 368.773 1068.54 369.148C1068.19 369.499 1067.75 369.675 1067.24 369.675C1066.72 369.675 1066.28 369.499 1065.9 369.148C1065.55 368.773 1065.38 368.327 1065.38 367.812V299.538C1065.38 299.023 1065.55 298.577 1065.9 298.202C1066.28 297.851 1066.72 297.675 1067.24 297.675H1082.57C1083.06 297.675 1083.49 297.851 1083.87 298.202C1084.22 298.577 1084.39 299.023 1084.39 299.538V350.656H1119.87ZM1134.32 369.675C1133.8 369.675 1133.36 369.499 1132.98 369.148C1132.63 368.773 1132.45 368.327 1132.45 367.812V299.538C1132.45 299.023 1132.63 298.577 1132.98 298.202C1133.36 297.851 1133.8 297.675 1134.32 297.675C1134.83 297.675 1135.27 297.851 1135.62 298.202C1135.99 298.577 1136.18 299.023 1136.18 299.538V365.948H1147.78V299.538C1147.78 299.023 1147.96 298.577 1148.31 298.202C1148.68 297.851 1149.13 297.675 1149.64 297.675C1150.14 297.675 1150.57 297.851 1150.95 298.202C1151.3 298.577 1151.47 299.023 1151.47 299.538V367.812C1151.47 368.327 1151.3 368.773 1150.95 369.148C1150.57 369.499 1150.14 369.675 1149.64 369.675H1134.32ZM1204.31 368.234C1204.2 367.741 1204.28 367.273 1204.56 366.827C1204.82 366.382 1205.2 366.113 1205.72 366.019C1213.17 364.284 1219.27 360.452 1224 354.523C1228.73 348.593 1231.1 341.784 1231.1 334.097C1231.1 325.073 1227.9 317.363 1221.5 310.964C1215.11 304.566 1207.39 301.366 1198.37 301.366C1189.35 301.366 1181.64 304.566 1175.24 310.964C1168.84 317.363 1165.64 325.073 1165.64 334.097C1165.64 341.363 1167.77 347.878 1172.04 353.644C1176.3 359.386 1181.87 363.3 1188.74 365.386V352.695C1185.27 350.913 1182.52 348.347 1180.48 344.995C1178.44 341.644 1177.42 338.011 1177.42 334.097C1177.42 328.331 1179.47 323.409 1183.57 319.331C1187.65 315.23 1192.58 313.179 1198.37 313.179C1204.14 313.179 1209.06 315.23 1213.14 319.331C1217.24 323.409 1219.29 328.331 1219.29 334.097C1219.29 338.222 1218.16 342.019 1215.91 345.488C1213.66 348.956 1210.65 351.534 1206.88 353.222C1206.41 353.433 1205.93 353.445 1205.44 353.257C1204.97 353.07 1204.63 352.741 1204.42 352.273C1204.21 351.804 1204.2 351.335 1204.38 350.866C1204.57 350.398 1204.9 350.058 1205.37 349.847C1208.46 348.464 1210.93 346.343 1212.79 343.484C1214.64 340.624 1215.56 337.495 1215.56 334.097C1215.56 329.363 1213.89 325.308 1210.54 321.933C1207.16 318.581 1203.11 316.906 1198.37 316.906C1193.61 316.906 1189.55 318.581 1186.17 321.933C1182.82 325.308 1181.14 329.363 1181.14 334.097C1181.14 337.495 1182.07 340.624 1183.92 343.484C1185.77 346.343 1188.25 348.464 1191.34 349.847C1192.09 350.175 1192.46 350.738 1192.46 351.534V367.812C1192.46 368.421 1192.23 368.902 1191.76 369.253C1191.29 369.628 1190.77 369.757 1190.18 369.64C1182 367.765 1175.26 363.546 1169.96 356.984C1164.6 350.304 1161.91 342.675 1161.91 334.097C1161.91 324.066 1165.48 315.488 1172.6 308.363C1179.73 301.238 1188.32 297.675 1198.37 297.675C1208.4 297.675 1216.98 301.238 1224.11 308.363C1231.23 315.488 1234.79 324.066 1234.79 334.097C1234.79 342.675 1232.11 350.304 1226.74 356.984C1221.45 363.546 1214.71 367.765 1206.53 369.64C1206.39 369.663 1206.25 369.675 1206.11 369.675C1205.12 369.675 1204.52 369.195 1204.31 368.234Z" fill="white"/>
</g>
<g filter="url(#filter20_d_230_57)">
<path d="M336.859 252.573H317.746V261.597H336.859V252.573ZM283.812 261.597H302.926V252.573H283.812V261.597ZM338.309 249.675C338.71 249.675 339.047 249.812 339.32 250.085C339.612 250.377 339.758 250.723 339.758 251.124V263.046C339.758 263.429 339.612 263.766 339.32 264.058C339.047 264.331 338.71 264.468 338.309 264.468H317.746V304.226C317.746 304.627 317.6 304.973 317.309 305.265C317.035 305.538 316.698 305.675 316.297 305.675H304.375C303.974 305.675 303.637 305.538 303.363 305.265C303.072 304.973 302.926 304.627 302.926 304.226V264.468H282.363C281.962 264.468 281.616 264.331 281.324 264.058C281.051 263.766 280.914 263.429 280.914 263.046V251.124C280.914 250.723 281.051 250.377 281.324 250.085C281.616 249.812 281.962 249.675 282.363 249.675H304.375C304.776 249.675 305.113 249.812 305.387 250.085C305.678 250.377 305.824 250.723 305.824 251.124V302.777H314.848V251.124C314.848 250.723 314.993 250.377 315.285 250.085C315.559 249.812 315.896 249.675 316.297 249.675H338.309ZM360.43 270.292V262.991C360.43 262.59 360.576 262.253 360.867 261.98C361.141 261.688 361.478 261.542 361.879 261.542H391.301V252.573H351.461V270.292H360.43ZM361.879 293.808C361.478 293.808 361.141 293.662 360.867 293.37C360.576 293.097 360.43 292.76 360.43 292.359V285.058H351.461V302.777H391.301V293.808H361.879ZM363.328 264.441V270.292H380.965C381.366 270.292 381.712 270.429 382.004 270.702C382.277 270.994 382.414 271.34 382.414 271.741V283.609C382.414 284.01 382.277 284.356 382.004 284.648C381.712 284.921 381.366 285.058 380.965 285.058H363.328V290.909H392.723C393.124 290.909 393.47 291.046 393.762 291.32C394.035 291.611 394.172 291.958 394.172 292.359V304.226C394.172 304.627 394.035 304.973 393.762 305.265C393.47 305.538 393.124 305.675 392.723 305.675H350.012C349.611 305.675 349.264 305.538 348.973 305.265C348.699 304.973 348.562 304.627 348.562 304.226V283.609C348.562 283.208 348.699 282.87 348.973 282.597C349.264 282.305 349.611 282.159 350.012 282.159H379.516V273.191H350.012C349.611 273.191 349.264 273.045 348.973 272.753C348.699 272.48 348.562 272.142 348.562 271.741V251.124C348.562 250.723 348.699 250.377 348.973 250.085C349.264 249.812 349.611 249.675 350.012 249.675H392.723C393.124 249.675 393.47 249.812 393.762 250.085C394.035 250.377 394.172 250.723 394.172 251.124V262.991C394.172 263.392 394.035 263.739 393.762 264.031C393.47 264.304 393.124 264.441 392.723 264.441H363.328ZM426 305.675C418.289 305.675 411.69 302.941 406.203 297.472C400.734 291.985 398 285.386 398 277.675C398 269.964 400.734 263.365 406.203 257.878C411.69 252.409 418.289 249.675 426 249.675H441.203C441.604 249.675 441.951 249.812 442.242 250.085C442.516 250.377 442.652 250.723 442.652 251.124C442.652 251.525 442.516 251.863 442.242 252.136C441.951 252.428 441.604 252.573 441.203 252.573H426C419.073 252.573 413.158 255.025 408.254 259.929C403.35 264.833 400.898 270.748 400.898 277.675C400.898 284.602 403.35 290.517 408.254 295.421C413.158 300.325 419.073 302.777 426 302.777H439.781V292.687H424.824C420.686 292.687 417.15 291.219 414.215 288.284C411.28 285.35 409.812 281.813 409.812 277.675C409.812 273.537 411.28 270.001 414.215 267.066C417.15 264.131 420.686 262.663 424.824 262.663H441.203C441.604 262.663 441.951 262.809 442.242 263.101C442.516 263.374 442.652 263.712 442.652 264.113C442.652 264.514 442.516 264.86 442.242 265.152C441.951 265.425 441.604 265.562 441.203 265.562H424.824C421.488 265.562 418.635 266.747 416.266 269.116C413.896 271.486 412.711 274.339 412.711 277.675C412.711 281.011 413.896 283.864 416.266 286.234C418.635 288.603 421.488 289.788 424.824 289.788H441.203C441.604 289.788 441.951 289.925 442.242 290.198C442.516 290.49 442.652 290.837 442.652 291.238V304.226C442.652 304.627 442.516 304.973 442.242 305.265C441.951 305.538 441.604 305.675 441.203 305.675H426ZM462.969 285.085H453.945V302.777H462.969V285.085ZM462.969 252.573H453.945V270.265H462.969V252.573ZM499.637 249.675C500.038 249.675 500.375 249.812 500.648 250.085C500.94 250.377 501.086 250.723 501.086 251.124V304.226C501.086 304.627 500.94 304.973 500.648 305.265C500.375 305.538 500.038 305.675 499.637 305.675H487.715C487.314 305.675 486.977 305.538 486.703 305.265C486.411 304.973 486.266 304.627 486.266 304.226V285.085H465.867V304.226C465.867 304.627 465.721 304.973 465.43 305.265C465.156 305.538 464.819 305.675 464.418 305.675H452.496C452.095 305.675 451.749 305.538 451.457 305.265C451.184 304.973 451.047 304.627 451.047 304.226V283.636C451.047 283.235 451.184 282.898 451.457 282.624C451.749 282.333 452.095 282.187 452.496 282.187H487.715C488.116 282.187 488.453 282.333 488.727 282.624C489.018 282.898 489.164 283.235 489.164 283.636V302.777H498.188V252.573H489.164V271.714C489.164 272.115 489.018 272.452 488.727 272.726C488.453 273.017 488.116 273.163 487.715 273.163H452.496C452.095 273.163 451.749 273.017 451.457 272.726C451.184 272.452 451.047 272.115 451.047 271.714V251.124C451.047 250.723 451.184 250.377 451.457 250.085C451.749 249.812 452.095 249.675 452.496 249.675H464.418C464.819 249.675 465.156 249.812 465.43 250.085C465.721 250.377 465.867 250.723 465.867 251.124V270.265H486.266V251.124C486.266 250.723 486.411 250.377 486.703 250.085C486.977 249.812 487.314 249.675 487.715 249.675H499.637ZM336.859 380.573H317.746V389.597H336.859V380.573ZM283.812 389.597H302.926V380.573H283.812V389.597ZM338.309 377.675C338.71 377.675 339.047 377.812 339.32 378.085C339.612 378.377 339.758 378.723 339.758 379.124V391.046C339.758 391.429 339.612 391.766 339.32 392.058C339.047 392.331 338.71 392.468 338.309 392.468H317.746V432.226C317.746 432.627 317.6 432.973 317.309 433.265C317.035 433.538 316.698 433.675 316.297 433.675H304.375C303.974 433.675 303.637 433.538 303.363 433.265C303.072 432.973 302.926 432.627 302.926 432.226V392.468H282.363C281.962 392.468 281.616 392.331 281.324 392.058C281.051 391.766 280.914 391.429 280.914 391.046V379.124C280.914 378.723 281.051 378.377 281.324 378.085C281.616 377.812 281.962 377.675 282.363 377.675H304.375C304.776 377.675 305.113 377.812 305.387 378.085C305.678 378.377 305.824 378.723 305.824 379.124V430.777H314.848V379.124C314.848 378.723 314.993 378.377 315.285 378.085C315.559 377.812 315.896 377.675 316.297 377.675H338.309ZM389.688 430.558L376.48 413.331C376.408 413.258 376.353 413.167 376.316 413.058H365.078L378.367 430.558H389.688ZM351.461 430.777H360.43V413.058H351.461V430.777ZM363.328 398.292H376.344L376.48 398.265C377.283 398.265 377.966 397.982 378.531 397.417C379.096 396.852 379.379 396.169 379.379 395.366C379.379 394.564 379.096 393.881 378.531 393.316C377.966 392.751 377.283 392.468 376.48 392.468L363.328 392.441V398.292ZM393.762 431.132C394.126 431.606 394.172 432.116 393.898 432.663C393.643 433.192 393.215 433.456 392.613 433.456H377.629C377.155 433.456 376.772 433.265 376.48 432.882L363.328 415.546V432.226C363.328 432.627 363.182 432.973 362.891 433.265C362.617 433.538 362.28 433.675 361.879 433.675H350.012C349.611 433.675 349.264 433.538 348.973 433.265C348.699 432.973 348.562 432.627 348.562 432.226V411.609C348.562 411.208 348.699 410.87 348.973 410.597C349.264 410.305 349.611 410.159 350.012 410.159H376.125C376.271 410.123 376.398 410.105 376.508 410.105C380.591 410.105 384.073 408.665 386.953 405.784C389.852 402.886 391.301 399.404 391.301 395.339C391.301 391.256 389.852 387.774 386.953 384.894C384.073 382.014 380.591 380.573 376.508 380.573C376.526 380.573 376.526 380.573 376.508 380.573C376.49 380.573 376.48 380.573 376.48 380.573H351.461V398.292H360.43V390.991C360.43 390.59 360.576 390.253 360.867 389.98C361.141 389.688 361.478 389.542 361.879 389.542L376.48 389.57C378.085 389.57 379.452 390.135 380.582 391.265C381.712 392.413 382.277 393.781 382.277 395.366C382.277 396.916 381.74 398.247 380.664 399.359C379.607 400.471 378.312 401.072 376.781 401.163C376.672 401.182 376.572 401.191 376.48 401.191H350.012C349.611 401.191 349.264 401.045 348.973 400.753C348.699 400.48 348.562 400.142 348.562 399.741V379.124C348.562 378.723 348.699 378.377 348.973 378.085C349.264 377.812 349.611 377.675 350.012 377.675H376.48C376.48 377.675 376.49 377.675 376.508 377.675C376.526 377.675 376.526 377.675 376.508 377.675C381.375 377.675 385.54 379.398 389.004 382.843C392.449 386.307 394.172 390.472 394.172 395.339C394.172 399.641 392.786 403.433 390.016 406.714C387.263 409.977 383.809 411.982 379.652 412.73L393.762 431.132ZM414.352 398.292V390.991C414.352 390.59 414.497 390.253 414.789 389.98C415.062 389.688 415.4 389.542 415.801 389.542H445.223V380.573H405.383V398.292H414.352ZM415.801 421.808C415.4 421.808 415.062 421.662 414.789 421.37C414.497 421.097 414.352 420.76 414.352 420.359V413.058H405.383V430.777H445.223V421.808H415.801ZM417.25 392.441V398.292H434.887C435.288 398.292 435.634 398.429 435.926 398.702C436.199 398.994 436.336 399.34 436.336 399.741V411.609C436.336 412.01 436.199 412.356 435.926 412.648C435.634 412.921 435.288 413.058 434.887 413.058H417.25V418.909H446.645C447.046 418.909 447.392 419.046 447.684 419.32C447.957 419.611 448.094 419.958 448.094 420.359V432.226C448.094 432.627 447.957 432.973 447.684 433.265C447.392 433.538 447.046 433.675 446.645 433.675H403.934C403.533 433.675 403.186 433.538 402.895 433.265C402.621 432.973 402.484 432.627 402.484 432.226V411.609C402.484 411.208 402.621 410.87 402.895 410.597C403.186 410.305 403.533 410.159 403.934 410.159H433.438V401.191H403.934C403.533 401.191 403.186 401.045 402.895 400.753C402.621 400.48 402.484 400.142 402.484 399.741V379.124C402.484 378.723 402.621 378.377 402.895 378.085C403.186 377.812 403.533 377.675 403.934 377.675H446.645C447.046 377.675 447.392 377.812 447.684 378.085C447.957 378.377 448.094 378.723 448.094 379.124V390.991C448.094 391.392 447.957 391.739 447.684 392.031C447.392 392.304 447.046 392.441 446.645 392.441H417.25ZM468.219 398.292V390.991C468.219 390.59 468.365 390.253 468.656 389.98C468.93 389.688 469.267 389.542 469.668 389.542H499.09V380.573H459.25V398.292H468.219ZM469.668 421.808C469.267 421.808 468.93 421.662 468.656 421.37C468.365 421.097 468.219 420.76 468.219 420.359V413.058H459.25V430.777H499.09V421.808H469.668ZM471.117 392.441V398.292H488.754C489.155 398.292 489.501 398.429 489.793 398.702C490.066 398.994 490.203 399.34 490.203 399.741V411.609C490.203 412.01 490.066 412.356 489.793 412.648C489.501 412.921 489.155 413.058 488.754 413.058H471.117V418.909H500.512C500.913 418.909 501.259 419.046 501.551 419.32C501.824 419.611 501.961 419.958 501.961 420.359V432.226C501.961 432.627 501.824 432.973 501.551 433.265C501.259 433.538 500.913 433.675 500.512 433.675H457.801C457.4 433.675 457.053 433.538 456.762 433.265C456.488 432.973 456.352 432.627 456.352 432.226V411.609C456.352 411.208 456.488 410.87 456.762 410.597C457.053 410.305 457.4 410.159 457.801 410.159H487.305V401.191H457.801C457.4 401.191 457.053 401.045 456.762 400.753C456.488 400.48 456.352 400.142 456.352 399.741V379.124C456.352 378.723 456.488 378.377 456.762 378.085C457.053 377.812 457.4 377.675 457.801 377.675H500.512C500.913 377.675 501.259 377.812 501.551 378.085C501.824 378.377 501.961 378.723 501.961 379.124V390.991C501.961 391.392 501.824 391.739 501.551 392.031C501.259 392.304 500.913 392.441 500.512 392.441H471.117Z" fill="white"/>
</g>
<rect x="-43" y="4237" width="1483" height="740" fill="#131313"/>
<path d="M609.424 4359.31C607.984 4359.31 606.68 4359.14 605.512 4358.81C604.36 4358.47 603.36 4357.97 602.512 4357.3C601.68 4356.62 601.04 4355.79 600.592 4354.8C600.144 4353.81 599.92 4352.66 599.92 4351.37C599.92 4350.06 600.152 4348.9 600.616 4347.89C601.096 4346.86 601.768 4346 602.632 4345.3C603.512 4344.59 604.552 4344.06 605.752 4343.71C606.968 4343.34 608.312 4343.16 609.784 4343.16C611.528 4343.16 613.032 4343.41 614.296 4343.9C615.56 4344.38 616.552 4345.06 617.272 4345.94C618.008 4346.82 618.424 4347.87 618.52 4349.09H615.448C615.24 4348.45 614.896 4347.9 614.416 4347.43C613.952 4346.95 613.336 4346.58 612.568 4346.33C611.8 4346.06 610.872 4345.92 609.784 4345.92C608.392 4345.92 607.2 4346.14 606.208 4346.59C605.232 4347.04 604.488 4347.67 603.976 4348.49C603.464 4349.3 603.208 4350.26 603.208 4351.37C603.208 4352.44 603.432 4353.37 603.88 4354.15C604.328 4354.92 605.016 4355.51 605.944 4355.93C606.888 4356.34 608.088 4356.55 609.544 4356.55C610.664 4356.55 611.648 4356.41 612.496 4356.12C613.36 4355.82 614.08 4355.42 614.656 4354.92C615.232 4354.41 615.64 4353.84 615.88 4353.22L617.128 4352.76C616.92 4354.82 616.136 4356.43 614.776 4357.58C613.432 4358.74 611.648 4359.31 609.424 4359.31ZM616.312 4359C616.312 4358.5 616.344 4357.94 616.408 4357.3C616.472 4356.64 616.552 4355.98 616.648 4355.33C616.744 4354.66 616.832 4354.04 616.912 4353.48H609.808V4351.44H619.072V4359H616.312ZM632.898 4355.04H635.922C635.794 4355.86 635.45 4356.58 634.89 4357.22C634.346 4357.86 633.602 4358.37 632.658 4358.74C631.714 4359.1 630.562 4359.29 629.202 4359.29C627.682 4359.29 626.338 4359.05 625.17 4358.57C624.002 4358.07 623.09 4357.36 622.434 4356.43C621.778 4355.5 621.45 4354.38 621.45 4353.07C621.45 4351.76 621.77 4350.64 622.41 4349.71C623.05 4348.77 623.938 4348.05 625.074 4347.55C626.226 4347.06 627.57 4346.81 629.106 4346.81C630.674 4346.81 631.978 4347.06 633.018 4347.55C634.058 4348.05 634.826 4348.8 635.322 4349.81C635.834 4350.8 636.05 4352.07 635.97 4353.62H624.594C624.674 4354.23 624.898 4354.78 625.266 4355.28C625.65 4355.78 626.162 4356.17 626.802 4356.46C627.458 4356.74 628.234 4356.89 629.13 4356.89C630.122 4356.89 630.946 4356.72 631.602 4356.38C632.274 4356.03 632.706 4355.58 632.898 4355.04ZM628.962 4349.18C627.81 4349.18 626.874 4349.44 626.154 4349.95C625.434 4350.45 624.97 4351.06 624.762 4351.8H632.874C632.794 4351 632.41 4350.37 631.722 4349.9C631.05 4349.42 630.13 4349.18 628.962 4349.18ZM637.288 4347.07H646.552V4349.5H637.288V4347.07ZM640.36 4343.81H643.48V4359H640.36V4343.81ZM655.187 4343.47H658.379V4359H655.187V4343.47ZM662.104 4347.07H665.224V4359H662.104V4347.07ZM670.768 4346.81C671.504 4346.81 672.184 4346.9 672.808 4347.1C673.432 4347.29 673.976 4347.58 674.44 4347.98C674.904 4348.38 675.264 4348.9 675.52 4349.52C675.776 4350.13 675.904 4350.86 675.904 4351.7V4359H672.784V4352.26C672.784 4351.25 672.536 4350.51 672.04 4350.05C671.56 4349.57 670.768 4349.33 669.664 4349.33C668.832 4349.33 668.08 4349.49 667.408 4349.81C666.736 4350.13 666.192 4350.54 665.776 4351.03C665.36 4351.51 665.12 4352.02 665.056 4352.54L665.032 4351.32C665.112 4350.76 665.296 4350.22 665.584 4349.69C665.872 4349.16 666.256 4348.68 666.736 4348.25C667.232 4347.8 667.816 4347.45 668.488 4347.19C669.16 4346.94 669.92 4346.81 670.768 4346.81ZM682.613 4343.47H698.981V4346.14H682.613V4343.47ZM689.213 4345.8H692.405V4359H689.213V4345.8ZM705.98 4359.29C704.476 4359.29 703.148 4359.05 701.996 4358.57C700.86 4358.09 699.972 4357.39 699.332 4356.48C698.692 4355.55 698.372 4354.42 698.372 4353.07C698.372 4351.73 698.692 4350.59 699.332 4349.66C699.972 4348.72 700.86 4348.01 701.996 4347.53C703.148 4347.05 704.476 4346.81 705.98 4346.81C707.484 4346.81 708.796 4347.05 709.916 4347.53C711.052 4348.01 711.94 4348.72 712.58 4349.66C713.22 4350.59 713.54 4351.73 713.54 4353.07C713.54 4354.42 713.22 4355.55 712.58 4356.48C711.94 4357.39 711.052 4358.09 709.916 4358.57C708.796 4359.05 707.484 4359.29 705.98 4359.29ZM705.98 4356.89C706.812 4356.89 707.556 4356.74 708.212 4356.46C708.884 4356.15 709.412 4355.72 709.796 4355.16C710.18 4354.58 710.372 4353.89 710.372 4353.07C710.372 4352.26 710.18 4351.56 709.796 4350.98C709.412 4350.39 708.892 4349.94 708.236 4349.64C707.58 4349.34 706.828 4349.18 705.98 4349.18C705.148 4349.18 704.396 4349.34 703.724 4349.64C703.052 4349.94 702.516 4350.38 702.116 4350.96C701.732 4351.54 701.54 4352.24 701.54 4353.07C701.54 4353.89 701.732 4354.58 702.116 4355.16C702.5 4355.72 703.028 4356.15 703.7 4356.46C704.372 4356.74 705.132 4356.89 705.98 4356.89ZM729.646 4359H726.526V4347.07H729.646V4359ZM726.694 4353.26L726.718 4354.08C726.686 4354.3 726.606 4354.63 726.478 4355.06C726.35 4355.48 726.15 4355.93 725.878 4356.41C725.622 4356.89 725.286 4357.35 724.87 4357.8C724.454 4358.23 723.942 4358.59 723.334 4358.88C722.726 4359.15 722.006 4359.29 721.174 4359.29C720.518 4359.29 719.87 4359.21 719.23 4359.05C718.606 4358.89 718.038 4358.62 717.526 4358.26C717.014 4357.87 716.606 4357.36 716.302 4356.72C715.998 4356.08 715.846 4355.27 715.846 4354.3V4347.07H718.966V4353.77C718.966 4354.54 719.086 4355.14 719.326 4355.59C719.582 4356.02 719.95 4356.33 720.43 4356.5C720.91 4356.68 721.478 4356.77 722.134 4356.77C722.998 4356.77 723.742 4356.58 724.366 4356.22C724.99 4355.83 725.494 4355.37 725.878 4354.82C726.278 4354.28 726.55 4353.76 726.694 4353.26ZM746.647 4354.3C746.567 4355.34 746.231 4356.23 745.639 4356.98C745.063 4357.74 744.263 4358.31 743.239 4358.71C742.215 4359.1 740.999 4359.29 739.591 4359.29C738.119 4359.29 736.799 4359.06 735.631 4358.59C734.479 4358.11 733.567 4357.42 732.895 4356.5C732.239 4355.58 731.911 4354.43 731.911 4353.07C731.911 4351.71 732.239 4350.57 732.895 4349.64C733.567 4348.71 734.479 4348.01 735.631 4347.53C736.799 4347.05 738.119 4346.81 739.591 4346.81C740.999 4346.81 742.207 4347.01 743.215 4347.41C744.223 4347.79 745.015 4348.35 745.591 4349.09C746.183 4349.82 746.527 4350.71 746.623 4351.75H743.767C743.495 4350.95 742.991 4350.33 742.255 4349.88C741.519 4349.43 740.631 4349.21 739.591 4349.21C738.759 4349.21 737.999 4349.35 737.311 4349.64C736.639 4349.93 736.095 4350.36 735.679 4350.94C735.279 4351.5 735.079 4352.21 735.079 4353.07C735.079 4353.92 735.279 4354.63 735.679 4355.21C736.079 4355.77 736.623 4356.19 737.311 4356.48C737.999 4356.75 738.759 4356.89 739.591 4356.89C740.711 4356.89 741.623 4356.66 742.327 4356.22C743.047 4355.77 743.535 4355.13 743.791 4354.3H746.647ZM759.836 4359V4352.45C759.836 4351.79 759.724 4351.25 759.5 4350.82C759.276 4350.38 758.916 4350.06 758.42 4349.83C757.94 4349.61 757.292 4349.5 756.476 4349.5C755.692 4349.5 754.98 4349.65 754.34 4349.95C753.7 4350.24 753.18 4350.62 752.78 4351.1C752.38 4351.57 752.156 4352.06 752.108 4352.59L752.084 4351.27C752.164 4350.74 752.348 4350.22 752.636 4349.69C752.924 4349.16 753.308 4348.68 753.788 4348.25C754.268 4347.82 754.844 4347.47 755.516 4347.22C756.204 4346.94 756.972 4346.81 757.82 4346.81C758.556 4346.81 759.236 4346.9 759.86 4347.1C760.484 4347.27 761.028 4347.55 761.492 4347.94C761.956 4348.32 762.316 4348.8 762.572 4349.38C762.828 4349.94 762.956 4350.6 762.956 4351.37V4359H759.836ZM749.156 4359V4342.27H752.276V4359H749.156Z" fill="white"/>
<path d="M105.022 4448V4406.59H133.118C136.318 4406.59 139.091 4407.04 141.438 4407.94C143.827 4408.79 145.683 4410.15 147.006 4412.03C148.328 4413.87 148.99 4416.23 148.99 4419.14C148.99 4421.1 148.648 4422.76 147.966 4424.13C147.283 4425.49 146.323 4426.6 145.086 4427.46C143.891 4428.31 142.504 4428.97 140.926 4429.44C139.347 4429.87 137.662 4430.14 135.87 4430.27L134.974 4429.76C137.96 4429.8 140.414 4430.06 142.334 4430.53C144.254 4430.95 145.683 4431.77 146.622 4432.96C147.603 4434.11 148.094 4435.84 148.094 4438.14V4448H139.582V4438.72C139.582 4437.14 139.304 4435.93 138.75 4435.07C138.195 4434.18 137.192 4433.56 135.742 4433.22C134.334 4432.87 132.286 4432.7 129.598 4432.7H113.534V4448H105.022ZM113.534 4426.05H133.118C135.507 4426.05 137.32 4425.47 138.558 4424.32C139.838 4423.17 140.478 4421.61 140.478 4419.65C140.478 4417.77 139.838 4416.34 138.558 4415.36C137.32 4414.38 135.507 4413.89 133.118 4413.89H113.534V4426.05ZM175.561 4448.77C171.55 4448.77 168.009 4448.13 164.937 4446.85C161.907 4445.57 159.539 4443.71 157.833 4441.28C156.126 4438.81 155.273 4435.78 155.273 4432.19C155.273 4428.61 156.126 4425.58 157.833 4423.1C159.539 4420.59 161.907 4418.69 164.937 4417.41C168.009 4416.13 171.55 4415.49 175.561 4415.49C179.571 4415.49 183.07 4416.13 186.057 4417.41C189.086 4418.69 191.454 4420.59 193.161 4423.1C194.867 4425.58 195.721 4428.61 195.721 4432.19C195.721 4435.78 194.867 4438.81 193.161 4441.28C191.454 4443.71 189.086 4445.57 186.057 4446.85C183.07 4448.13 179.571 4448.77 175.561 4448.77ZM175.561 4442.37C177.779 4442.37 179.763 4441.98 181.513 4441.22C183.305 4440.41 184.713 4439.25 185.737 4437.76C186.761 4436.22 187.273 4434.37 187.273 4432.19C187.273 4430.02 186.761 4428.16 185.737 4426.62C184.713 4425.05 183.326 4423.85 181.577 4423.04C179.827 4422.23 177.822 4421.82 175.561 4421.82C173.342 4421.82 171.337 4422.23 169.545 4423.04C167.753 4423.85 166.323 4425.02 165.257 4426.56C164.233 4428.1 163.721 4429.97 163.721 4432.19C163.721 4434.37 164.233 4436.22 165.257 4437.76C166.281 4439.25 167.689 4440.41 169.481 4441.22C171.273 4441.98 173.299 4442.37 175.561 4442.37ZM226.383 4448.7C223.567 4448.7 221.157 4448.21 219.151 4447.23C217.146 4446.21 215.525 4444.89 214.287 4443.26C213.05 4441.6 212.133 4439.81 211.535 4437.89C210.938 4435.93 210.639 4434.01 210.639 4432.13C210.639 4429.78 210.917 4427.61 211.471 4425.6C212.069 4423.59 212.986 4421.85 214.223 4420.35C215.461 4418.82 217.082 4417.62 219.087 4416.77C221.093 4415.91 223.525 4415.49 226.383 4415.49C229.669 4415.49 232.57 4416.19 235.087 4417.6C237.647 4418.97 239.653 4420.89 241.103 4423.36C242.597 4425.83 243.343 4428.76 243.343 4432.13C243.343 4435.41 242.597 4438.31 241.103 4440.83C239.61 4443.31 237.583 4445.25 235.023 4446.66C232.463 4448.02 229.583 4448.7 226.383 4448.7ZM223.695 4442.3C225.957 4442.3 227.919 4441.88 229.583 4441.02C231.247 4440.17 232.527 4439 233.423 4437.5C234.362 4435.97 234.831 4434.18 234.831 4432.13C234.831 4429.06 233.85 4426.58 231.887 4424.7C229.967 4422.83 227.237 4421.89 223.695 4421.89C221.221 4421.89 219.066 4422.29 217.231 4423.1C215.397 4423.91 213.967 4425.09 212.943 4426.62C211.962 4428.12 211.471 4429.95 211.471 4432.13C211.471 4434.13 211.962 4435.9 212.943 4437.44C213.925 4438.98 215.333 4440.17 217.167 4441.02C219.002 4441.88 221.178 4442.3 223.695 4442.3ZM211.471 4403.39V4439.81C211.471 4441.17 211.407 4442.65 211.279 4444.22C211.151 4445.76 211.023 4447.02 210.895 4448H203.151V4403.39H211.471ZM259.032 4402.24V4409.54H249.368V4402.24H259.032ZM250.008 4416.19H258.328V4448H250.008V4416.19ZM267.261 4403.39H275.581V4448H267.261V4403.39ZM284.636 4403.39H292.956V4448H284.636V4403.39ZM316.859 4448.7C313.702 4448.7 310.822 4448.02 308.219 4446.66C305.659 4445.25 303.611 4443.31 302.075 4440.83C300.582 4438.31 299.835 4435.41 299.835 4432.13C299.835 4428.76 300.603 4425.83 302.139 4423.36C303.675 4420.89 305.745 4418.97 308.347 4417.6C310.993 4416.19 313.979 4415.49 317.307 4415.49C320.977 4415.49 323.921 4416.23 326.139 4417.73C328.401 4419.18 330.043 4421.16 331.067 4423.68C332.091 4426.2 332.603 4429.01 332.603 4432.13C332.603 4434.01 332.305 4435.93 331.707 4437.89C331.11 4439.81 330.193 4441.6 328.955 4443.26C327.718 4444.89 326.097 4446.21 324.091 4447.23C322.086 4448.21 319.675 4448.7 316.859 4448.7ZM319.547 4442.3C322.065 4442.3 324.241 4441.88 326.075 4441.02C327.91 4440.17 329.318 4438.98 330.299 4437.44C331.281 4435.9 331.771 4434.13 331.771 4432.13C331.771 4429.95 331.259 4428.12 330.235 4426.62C329.254 4425.09 327.846 4423.94 326.011 4423.17C324.219 4422.36 322.065 4421.95 319.547 4421.95C316.006 4421.95 313.254 4422.89 311.291 4424.77C309.329 4426.6 308.347 4429.06 308.347 4432.13C308.347 4434.18 308.817 4435.97 309.755 4437.5C310.694 4439 311.995 4440.17 313.659 4441.02C315.366 4441.88 317.329 4442.3 319.547 4442.3ZM331.771 4416.19H340.091V4448H332.347C332.347 4448 332.283 4447.59 332.155 4446.78C332.07 4445.93 331.985 4444.86 331.899 4443.58C331.814 4442.3 331.771 4441.05 331.771 4439.81V4416.19ZM347.621 4416.19H355.941V4448H347.621V4416.19ZM368.165 4423.04C365.776 4423.04 363.707 4423.51 361.957 4424.45C360.208 4425.34 358.8 4426.45 357.733 4427.78C356.667 4429.1 355.92 4430.38 355.493 4431.62L355.429 4428.1C355.472 4427.58 355.643 4426.84 355.941 4425.86C356.24 4424.83 356.688 4423.74 357.285 4422.59C357.883 4421.4 358.672 4420.27 359.653 4419.2C360.635 4418.09 361.829 4417.19 363.237 4416.51C364.645 4415.83 366.288 4415.49 368.165 4415.49V4423.04ZM388.797 4448.7C385.597 4448.7 382.695 4448.02 380.093 4446.66C377.533 4445.25 375.506 4443.31 374.013 4440.83C372.519 4438.31 371.773 4435.41 371.773 4432.13C371.773 4428.76 372.498 4425.83 373.949 4423.36C375.442 4420.89 377.469 4418.97 380.029 4417.6C382.589 4416.19 385.511 4415.49 388.797 4415.49C391.655 4415.49 394.087 4415.91 396.093 4416.77C398.098 4417.62 399.719 4418.82 400.957 4420.35C402.194 4421.85 403.09 4423.59 403.645 4425.6C404.242 4427.61 404.541 4429.78 404.541 4432.13C404.541 4434.01 404.242 4435.93 403.645 4437.89C403.047 4439.81 402.13 4441.6 400.893 4443.26C399.655 4444.89 398.034 4446.21 396.029 4447.23C394.023 4448.21 391.613 4448.7 388.797 4448.7ZM391.485 4442.3C394.002 4442.3 396.178 4441.88 398.013 4441.02C399.847 4440.17 401.255 4438.98 402.237 4437.44C403.218 4435.9 403.709 4434.13 403.709 4432.13C403.709 4429.95 403.197 4428.12 402.173 4426.62C401.191 4425.09 399.783 4423.91 397.949 4423.1C396.157 4422.29 394.002 4421.89 391.485 4421.89C387.943 4421.89 385.191 4422.83 383.229 4424.7C381.266 4426.58 380.285 4429.06 380.285 4432.13C380.285 4434.18 380.754 4435.97 381.693 4437.5C382.631 4439 383.933 4440.17 385.597 4441.02C387.303 4441.88 389.266 4442.3 391.485 4442.3ZM403.709 4403.39H412.029V4448H404.285C404.157 4447.02 404.029 4445.76 403.901 4444.22C403.773 4442.65 403.709 4441.17 403.709 4439.81V4403.39ZM430.66 4440.7V4448H420.996V4440.7H430.66ZM438.371 4416.19H446.691V4448H438.371V4416.19ZM461.475 4415.49C463.438 4415.49 465.251 4415.74 466.915 4416.26C468.579 4416.77 470.03 4417.56 471.267 4418.62C472.505 4419.69 473.465 4421.06 474.147 4422.72C474.83 4424.34 475.171 4426.28 475.171 4428.54V4448H466.851V4430.02C466.851 4427.33 466.19 4425.37 464.867 4424.13C463.587 4422.85 461.475 4422.21 458.531 4422.21C456.313 4422.21 454.307 4422.63 452.515 4423.49C450.723 4424.34 449.273 4425.43 448.163 4426.75C447.054 4428.03 446.414 4429.38 446.243 4430.78L446.179 4427.52C446.393 4426.03 446.883 4424.58 447.651 4423.17C448.419 4421.76 449.443 4420.48 450.723 4419.33C452.046 4418.13 453.603 4417.19 455.395 4416.51C457.187 4415.83 459.214 4415.49 461.475 4415.49ZM489.187 4415.49C491.15 4415.49 492.963 4415.74 494.627 4416.26C496.291 4416.77 497.742 4417.56 498.979 4418.62C500.217 4419.69 501.177 4421.06 501.859 4422.72C502.585 4424.34 502.947 4426.28 502.947 4428.54V4448H494.627V4430.02C494.627 4427.33 493.966 4425.37 492.643 4424.13C491.321 4422.85 489.187 4422.21 486.243 4422.21C484.025 4422.21 482.019 4422.63 480.227 4423.49C478.435 4424.34 476.985 4425.43 475.875 4426.75C474.766 4428.03 474.147 4429.38 474.019 4430.78L473.891 4427.33C474.105 4425.92 474.617 4424.51 475.427 4423.1C476.238 4421.7 477.305 4420.42 478.627 4419.26C479.95 4418.11 481.486 4417.19 483.235 4416.51C485.027 4415.83 487.011 4415.49 489.187 4415.49ZM525.984 4448.7C522.827 4448.7 519.947 4448.02 517.344 4446.66C514.784 4445.25 512.736 4443.31 511.2 4440.83C509.707 4438.31 508.96 4435.41 508.96 4432.13C508.96 4428.76 509.728 4425.83 511.264 4423.36C512.8 4420.89 514.87 4418.97 517.472 4417.6C520.118 4416.19 523.104 4415.49 526.432 4415.49C530.102 4415.49 533.046 4416.23 535.264 4417.73C537.526 4419.18 539.168 4421.16 540.192 4423.68C541.216 4426.2 541.728 4429.01 541.728 4432.13C541.728 4434.01 541.43 4435.93 540.832 4437.89C540.235 4439.81 539.318 4441.6 538.08 4443.26C536.843 4444.89 535.222 4446.21 533.216 4447.23C531.211 4448.21 528.8 4448.7 525.984 4448.7ZM528.672 4442.3C531.19 4442.3 533.366 4441.88 535.2 4441.02C537.035 4440.17 538.443 4438.98 539.424 4437.44C540.406 4435.9 540.896 4434.13 540.896 4432.13C540.896 4429.95 540.384 4428.12 539.36 4426.62C538.379 4425.09 536.971 4423.94 535.136 4423.17C533.344 4422.36 531.19 4421.95 528.672 4421.95C525.131 4421.95 522.379 4422.89 520.416 4424.77C518.454 4426.6 517.472 4429.06 517.472 4432.13C517.472 4434.18 517.942 4435.97 518.88 4437.5C519.819 4439 521.12 4440.17 522.784 4441.02C524.491 4441.88 526.454 4442.3 528.672 4442.3ZM540.896 4416.19H549.216V4448H541.472C541.472 4448 541.408 4447.59 541.28 4446.78C541.195 4445.93 541.11 4444.86 541.024 4443.58C540.939 4442.3 540.896 4441.05 540.896 4439.81V4416.19ZM554.506 4416.19H579.21V4422.66H554.506V4416.19ZM562.698 4407.49H571.018V4448H562.698V4407.49ZM582.256 4416.19H606.96V4422.66H582.256V4416.19ZM590.448 4407.49H598.768V4448H590.448V4407.49ZM641.302 4448V4430.53C641.302 4428.78 641.004 4427.33 640.406 4426.18C639.809 4425.02 638.849 4424.15 637.526 4423.55C636.246 4422.95 634.518 4422.66 632.342 4422.66C630.252 4422.66 628.353 4423.06 626.646 4423.87C624.94 4424.64 623.553 4425.66 622.486 4426.94C621.42 4428.18 620.822 4429.5 620.694 4430.91L620.63 4427.39C620.844 4425.98 621.334 4424.58 622.102 4423.17C622.87 4421.76 623.894 4420.48 625.174 4419.33C626.454 4418.18 627.99 4417.26 629.782 4416.58C631.617 4415.85 633.665 4415.49 635.926 4415.49C637.889 4415.49 639.702 4415.74 641.366 4416.26C643.03 4416.73 644.481 4417.47 645.718 4418.5C646.956 4419.52 647.916 4420.8 648.598 4422.34C649.281 4423.83 649.622 4425.6 649.622 4427.65V4448H641.302ZM612.822 4448V4403.39H621.142V4448H612.822ZM686.176 4437.44H694.24C693.898 4439.62 692.981 4441.56 691.488 4443.26C690.037 4444.97 688.053 4446.31 685.536 4447.3C683.018 4448.28 679.946 4448.77 676.32 4448.77C672.266 4448.77 668.682 4448.13 665.568 4446.85C662.453 4445.53 660.021 4443.63 658.272 4441.15C656.522 4438.68 655.648 4435.69 655.648 4432.19C655.648 4428.69 656.501 4425.71 658.208 4423.23C659.914 4420.71 662.282 4418.79 665.312 4417.47C668.384 4416.15 671.968 4415.49 676.064 4415.49C680.245 4415.49 683.722 4416.15 686.496 4417.47C689.269 4418.79 691.317 4420.8 692.64 4423.49C694.005 4426.13 694.581 4429.53 694.368 4433.66H664.032C664.245 4435.29 664.842 4436.76 665.824 4438.08C666.848 4439.4 668.213 4440.45 669.92 4441.22C671.669 4441.98 673.738 4442.37 676.128 4442.37C678.773 4442.37 680.97 4441.92 682.72 4441.02C684.512 4440.09 685.664 4438.89 686.176 4437.44ZM675.68 4421.82C672.608 4421.82 670.112 4422.51 668.192 4423.87C666.272 4425.19 665.034 4426.84 664.48 4428.8H686.112C685.898 4426.67 684.874 4424.98 683.04 4423.74C681.248 4422.46 678.794 4421.82 675.68 4421.82ZM740.781 4442.24L738.157 4442.18L748.525 4416.19H757.677L743.661 4448H735.853L725.613 4422.34H728.429L717.869 4448H710.061L696.429 4416.19H705.581L715.565 4442.24H712.941L722.285 4416.19H731.821L740.781 4442.24ZM782.911 4438.34L772.543 4443.2L772.223 4441.6H796.095V4448H761.983V4441.6C765.823 4439.85 769.279 4438.36 772.351 4437.12C775.423 4435.88 778.025 4434.77 780.159 4433.79C782.292 4432.77 783.913 4431.74 785.023 4430.72C786.175 4429.65 786.751 4428.48 786.751 4427.2C786.751 4426.18 786.452 4425.3 785.855 4424.58C785.257 4423.81 784.319 4423.21 783.039 4422.78C781.759 4422.36 780.095 4422.14 778.047 4422.14C775.359 4422.14 773.183 4422.68 771.519 4423.74C769.897 4424.77 769.044 4426.18 768.959 4427.97H760.895C760.767 4425.49 761.364 4423.32 762.687 4421.44C764.052 4419.56 766.036 4418.09 768.639 4417.02C771.241 4415.96 774.313 4415.42 777.855 4415.42C780.457 4415.42 782.825 4415.68 784.959 4416.19C787.092 4416.66 788.927 4417.37 790.463 4418.3C792.041 4419.24 793.236 4420.37 794.047 4421.7C794.9 4423.02 795.327 4424.51 795.327 4426.18C795.327 4427.46 795.092 4428.63 794.623 4429.7C794.153 4430.72 793.407 4431.7 792.383 4432.64C791.401 4433.58 790.121 4434.52 788.543 4435.46C786.964 4436.35 785.087 4437.31 782.911 4438.34ZM822.848 4438.34L812.48 4443.2L812.16 4441.6H836.032V4448H801.92V4441.6C805.76 4439.85 809.216 4438.36 812.288 4437.12C815.36 4435.88 817.963 4434.77 820.096 4433.79C822.23 4432.77 823.851 4431.74 824.96 4430.72C826.112 4429.65 826.688 4428.48 826.688 4427.2C826.688 4426.18 826.39 4425.3 825.792 4424.58C825.195 4423.81 824.256 4423.21 822.976 4422.78C821.696 4422.36 820.032 4422.14 817.984 4422.14C815.296 4422.14 813.12 4422.68 811.456 4423.74C809.835 4424.77 808.982 4426.18 808.896 4427.97H800.832C800.704 4425.49 801.302 4423.32 802.624 4421.44C803.99 4419.56 805.974 4418.09 808.576 4417.02C811.179 4415.96 814.251 4415.42 817.792 4415.42C820.395 4415.42 822.763 4415.68 824.896 4416.19C827.03 4416.66 828.864 4417.37 830.4 4418.3C831.979 4419.24 833.174 4420.37 833.984 4421.7C834.838 4423.02 835.264 4424.51 835.264 4426.18C835.264 4427.46 835.03 4428.63 834.56 4429.7C834.091 4430.72 833.344 4431.7 832.32 4432.64C831.339 4433.58 830.059 4434.52 828.48 4435.46C826.902 4436.35 825.024 4437.31 822.848 4438.34ZM872.834 4451.52C866.434 4451.52 860.908 4450.56 856.258 4448.64C851.65 4446.72 848.108 4443.97 845.634 4440.38C843.159 4436.76 841.922 4432.43 841.922 4427.39C841.922 4422.31 843.159 4418.05 845.634 4414.59C848.151 4411.14 851.756 4408.53 856.45 4406.78C861.143 4404.99 866.754 4404.1 873.282 4404.1C879.852 4404.1 885.42 4404.99 889.986 4406.78C894.594 4408.53 898.092 4411.11 900.482 4414.53C902.914 4417.9 904.13 4422.04 904.13 4426.94C904.13 4429.42 903.724 4431.55 902.914 4433.34C902.103 4435.09 900.887 4436.46 899.266 4437.44C897.687 4438.38 895.703 4438.85 893.314 4438.85C891.394 4438.85 889.751 4438.59 888.386 4438.08C887.02 4437.57 885.911 4436.89 885.058 4436.03C884.204 4435.18 883.564 4434.24 883.138 4433.22C882.754 4432.19 882.562 4431.17 882.562 4430.14V4416.32H890.882V4427.46C890.882 4428.61 890.967 4429.63 891.138 4430.53C891.351 4431.38 891.735 4432.06 892.29 4432.58C892.844 4433.09 893.634 4433.34 894.658 4433.34C895.682 4433.34 896.45 4433.09 896.962 4432.58C897.516 4432.06 897.879 4431.34 898.05 4430.4C898.263 4429.46 898.37 4428.39 898.37 4427.2C898.37 4424.13 897.794 4421.48 896.642 4419.26C895.532 4417 893.89 4415.15 891.714 4413.7C889.58 4412.2 886.956 4411.09 883.842 4410.37C880.77 4409.64 877.292 4409.28 873.41 4409.28C869.484 4409.28 865.943 4409.64 862.786 4410.37C859.628 4411.09 856.919 4412.2 854.658 4413.7C852.396 4415.19 850.668 4417.07 849.474 4419.33C848.279 4421.59 847.682 4424.28 847.682 4427.39C847.682 4431.4 848.684 4434.84 850.69 4437.7C852.695 4440.51 855.575 4442.67 859.33 4444.16C863.084 4445.61 867.586 4446.34 872.834 4446.34C874.967 4446.34 876.951 4446.23 878.786 4446.02C880.663 4445.8 882.37 4445.5 883.906 4445.12C885.442 4444.74 886.743 4444.29 887.81 4443.78L890.114 4448.45C888.834 4449.05 887.298 4449.58 885.506 4450.05C883.756 4450.52 881.794 4450.88 879.618 4451.14C877.484 4451.39 875.223 4451.52 872.834 4451.52ZM868.674 4440.9C865.73 4440.9 863.127 4440.34 860.866 4439.23C858.647 4438.08 856.919 4436.52 855.682 4434.56C854.444 4432.6 853.826 4430.36 853.826 4427.84C853.826 4425.19 854.444 4422.87 855.682 4420.86C856.919 4418.82 858.69 4417.22 860.994 4416.06C863.298 4414.87 866.007 4414.27 869.122 4414.27C872.322 4414.27 874.967 4414.91 877.058 4416.19C879.191 4417.43 880.77 4419.09 881.794 4421.18C882.86 4423.23 883.394 4425.45 883.394 4427.84C883.394 4429.08 883.074 4430.44 882.434 4431.94C881.836 4433.43 880.919 4434.86 879.682 4436.22C878.487 4437.59 876.951 4438.72 875.074 4439.62C873.239 4440.47 871.106 4440.9 868.674 4440.9ZM871.362 4434.56C872.898 4434.56 874.348 4434.39 875.714 4434.05C877.079 4433.66 878.274 4433.17 879.298 4432.58C880.322 4431.98 881.111 4431.27 881.666 4430.46C882.263 4429.65 882.562 4428.8 882.562 4427.9C882.562 4426.75 882.263 4425.75 881.666 4424.9C881.068 4424 880.258 4423.25 879.234 4422.66C878.21 4422.02 877.015 4421.55 875.65 4421.25C874.327 4420.91 872.898 4420.74 871.362 4420.74C868.162 4420.74 865.858 4421.38 864.45 4422.66C863.042 4423.94 862.338 4425.69 862.338 4427.9C862.338 4429.87 863.084 4431.47 864.578 4432.7C866.114 4433.94 868.375 4434.56 871.362 4434.56ZM926.993 4443.14C923.537 4443.14 920.487 4442.62 917.841 4441.6C915.239 4440.53 913.212 4438.98 911.761 4436.93C910.311 4434.88 909.585 4432.41 909.585 4429.5C909.585 4426.65 910.289 4424.17 911.697 4422.08C913.105 4419.99 915.111 4418.37 917.713 4417.22C920.359 4416.06 923.452 4415.49 926.993 4415.49C927.975 4415.49 928.913 4415.55 929.809 4415.68C930.748 4415.81 931.665 4415.98 932.561 4416.19L948.625 4416.26V4422.53C946.449 4422.57 944.231 4422.31 941.969 4421.76C939.751 4421.16 937.788 4420.52 936.081 4419.84L935.889 4419.39C937.34 4420.07 938.705 4420.93 939.985 4421.95C941.265 4422.93 942.289 4424.09 943.057 4425.41C943.868 4426.69 944.273 4428.18 944.273 4429.89C944.273 4432.66 943.569 4435.05 942.161 4437.06C940.753 4439.02 938.748 4440.53 936.145 4441.6C933.585 4442.62 930.535 4443.14 926.993 4443.14ZM937.681 4461.12V4459.58C937.681 4457.62 937.041 4456.26 935.761 4455.49C934.524 4454.72 932.817 4454.34 930.641 4454.34H920.721C918.801 4454.34 917.18 4454.19 915.857 4453.89C914.577 4453.59 913.553 4453.16 912.785 4452.61C912.017 4452.05 911.463 4451.39 911.121 4450.62C910.78 4449.9 910.609 4449.11 910.609 4448.26C910.609 4446.55 911.164 4445.27 912.273 4444.42C913.383 4443.52 914.876 4442.92 916.753 4442.62C918.631 4442.33 920.7 4442.26 922.961 4442.43L926.993 4443.14C924.305 4443.22 922.3 4443.46 920.977 4443.84C919.697 4444.18 919.057 4444.89 919.057 4445.95C919.057 4446.59 919.313 4447.1 919.825 4447.49C920.337 4447.83 921.063 4448 922.001 4448H932.433C935.292 4448 937.724 4448.3 939.729 4448.9C941.777 4449.54 943.335 4450.58 944.401 4452.03C945.468 4453.53 946.001 4455.55 946.001 4458.11V4461.12H937.681ZM926.993 4437.12C928.828 4437.12 930.428 4436.82 931.793 4436.22C933.201 4435.63 934.289 4434.77 935.057 4433.66C935.825 4432.51 936.209 4431.15 936.209 4429.57C936.209 4427.95 935.825 4426.56 935.057 4425.41C934.289 4424.26 933.223 4423.38 931.857 4422.78C930.492 4422.14 928.871 4421.82 926.993 4421.82C925.159 4421.82 923.537 4422.14 922.129 4422.78C920.721 4423.38 919.633 4424.26 918.865 4425.41C918.097 4426.56 917.713 4427.95 917.713 4429.57C917.713 4431.15 918.097 4432.51 918.865 4433.66C919.633 4434.77 920.7 4435.63 922.065 4436.22C923.473 4436.82 925.116 4437.12 926.993 4437.12ZM954.059 4416.19H962.379V4448H954.059V4416.19ZM977.163 4415.49C979.125 4415.49 980.939 4415.74 982.603 4416.26C984.267 4416.77 985.717 4417.56 986.955 4418.62C988.192 4419.69 989.152 4421.06 989.835 4422.72C990.517 4424.34 990.859 4426.28 990.859 4428.54V4448H982.539V4430.02C982.539 4427.33 981.877 4425.37 980.555 4424.13C979.275 4422.85 977.163 4422.21 974.219 4422.21C972 4422.21 969.995 4422.63 968.203 4423.49C966.411 4424.34 964.96 4425.43 963.851 4426.75C962.741 4428.03 962.101 4429.38 961.931 4430.78L961.867 4427.52C962.08 4426.03 962.571 4424.58 963.339 4423.17C964.107 4421.76 965.131 4420.48 966.411 4419.33C967.733 4418.13 969.291 4417.19 971.083 4416.51C972.875 4415.83 974.901 4415.49 977.163 4415.49ZM1004.87 4415.49C1006.84 4415.49 1008.65 4415.74 1010.31 4416.26C1011.98 4416.77 1013.43 4417.56 1014.67 4418.62C1015.9 4419.69 1016.86 4421.06 1017.55 4422.72C1018.27 4424.34 1018.63 4426.28 1018.63 4428.54V4448H1010.31V4430.02C1010.31 4427.33 1009.65 4425.37 1008.33 4424.13C1007.01 4422.85 1004.87 4422.21 1001.93 4422.21C999.712 4422.21 997.707 4422.63 995.915 4423.49C994.123 4424.34 992.672 4425.43 991.563 4426.75C990.453 4428.03 989.835 4429.38 989.707 4430.78L989.579 4427.33C989.792 4425.92 990.304 4424.51 991.115 4423.1C991.925 4421.7 992.992 4420.42 994.315 4419.26C995.637 4418.11 997.173 4417.19 998.923 4416.51C1000.71 4415.83 1002.7 4415.49 1004.87 4415.49ZM1041.67 4448.7C1038.51 4448.7 1035.63 4448.02 1033.03 4446.66C1030.47 4445.25 1028.42 4443.31 1026.89 4440.83C1025.39 4438.31 1024.65 4435.41 1024.65 4432.13C1024.65 4428.76 1025.42 4425.83 1026.95 4423.36C1028.49 4420.89 1030.56 4418.97 1033.16 4417.6C1035.81 4416.19 1038.79 4415.49 1042.12 4415.49C1045.79 4415.49 1048.73 4416.23 1050.95 4417.73C1053.21 4419.18 1054.86 4421.16 1055.88 4423.68C1056.9 4426.2 1057.42 4429.01 1057.42 4432.13C1057.42 4434.01 1057.12 4435.93 1056.52 4437.89C1055.92 4439.81 1055.01 4441.6 1053.77 4443.26C1052.53 4444.89 1050.91 4446.21 1048.9 4447.23C1046.9 4448.21 1044.49 4448.7 1041.67 4448.7ZM1044.36 4442.3C1046.88 4442.3 1049.05 4441.88 1050.89 4441.02C1052.72 4440.17 1054.13 4438.98 1055.11 4437.44C1056.09 4435.9 1056.58 4434.13 1056.58 4432.13C1056.58 4429.95 1056.07 4428.12 1055.05 4426.62C1054.07 4425.09 1052.66 4423.94 1050.82 4423.17C1049.03 4422.36 1046.88 4421.95 1044.36 4421.95C1040.82 4421.95 1038.07 4422.89 1036.1 4424.77C1034.14 4426.6 1033.16 4429.06 1033.16 4432.13C1033.16 4434.18 1033.63 4435.97 1034.57 4437.5C1035.51 4439 1036.81 4440.17 1038.47 4441.02C1040.18 4441.88 1042.14 4442.3 1044.36 4442.3ZM1056.58 4416.19H1064.9V4448H1057.16C1057.16 4448 1057.1 4447.59 1056.97 4446.78C1056.88 4445.93 1056.8 4444.86 1056.71 4443.58C1056.63 4442.3 1056.58 4441.05 1056.58 4439.81V4416.19ZM1081.97 4402.24V4409.54H1072.31V4402.24H1081.97ZM1072.95 4416.19H1081.27V4448H1072.95V4416.19ZM1090.2 4403.39H1098.52V4448H1090.2V4403.39ZM1116.6 4440.7V4448H1106.93V4440.7H1116.6ZM1161.44 4435.46C1161.23 4438.23 1160.33 4440.62 1158.76 4442.62C1157.22 4444.63 1155.09 4446.17 1152.36 4447.23C1149.63 4448.26 1146.38 4448.77 1142.63 4448.77C1138.7 4448.77 1135.18 4448.15 1132.07 4446.91C1129 4445.63 1126.56 4443.78 1124.77 4441.34C1123.02 4438.87 1122.15 4435.82 1122.15 4432.19C1122.15 4428.57 1123.02 4425.51 1124.77 4423.04C1126.56 4420.57 1129 4418.69 1132.07 4417.41C1135.18 4416.13 1138.7 4415.49 1142.63 4415.49C1146.38 4415.49 1149.6 4416.02 1152.29 4417.09C1154.98 4418.11 1157.09 4419.61 1158.63 4421.57C1160.21 4423.53 1161.12 4425.9 1161.38 4428.67H1153.76C1153.04 4426.54 1151.69 4424.87 1149.73 4423.68C1147.77 4422.49 1145.4 4421.89 1142.63 4421.89C1140.41 4421.89 1138.38 4422.27 1136.55 4423.04C1134.76 4423.81 1133.31 4424.96 1132.2 4426.5C1131.13 4427.99 1130.6 4429.89 1130.6 4432.19C1130.6 4434.45 1131.13 4436.35 1132.2 4437.89C1133.26 4439.38 1134.71 4440.51 1136.55 4441.28C1138.38 4442.01 1140.41 4442.37 1142.63 4442.37C1145.61 4442.37 1148.05 4441.77 1149.92 4440.58C1151.84 4439.38 1153.15 4437.67 1153.83 4435.46H1161.44ZM1186.31 4448.77C1182.3 4448.77 1178.76 4448.13 1175.69 4446.85C1172.66 4445.57 1170.29 4443.71 1168.58 4441.28C1166.88 4438.81 1166.02 4435.78 1166.02 4432.19C1166.02 4428.61 1166.88 4425.58 1168.58 4423.1C1170.29 4420.59 1172.66 4418.69 1175.69 4417.41C1178.76 4416.13 1182.3 4415.49 1186.31 4415.49C1190.32 4415.49 1193.82 4416.13 1196.81 4417.41C1199.84 4418.69 1202.2 4420.59 1203.91 4423.1C1205.62 4425.58 1206.47 4428.61 1206.47 4432.19C1206.47 4435.78 1205.62 4438.81 1203.91 4441.28C1202.2 4443.71 1199.84 4445.57 1196.81 4446.85C1193.82 4448.13 1190.32 4448.77 1186.31 4448.77ZM1186.31 4442.37C1188.53 4442.37 1190.51 4441.98 1192.26 4441.22C1194.05 4440.41 1195.46 4439.25 1196.49 4437.76C1197.51 4436.22 1198.02 4434.37 1198.02 4432.19C1198.02 4430.02 1197.51 4428.16 1196.49 4426.62C1195.46 4425.05 1194.08 4423.85 1192.33 4423.04C1190.58 4422.23 1188.57 4421.82 1186.31 4421.82C1184.09 4421.82 1182.09 4422.23 1180.29 4423.04C1178.5 4423.85 1177.07 4425.02 1176.01 4426.56C1174.98 4428.1 1174.47 4429.97 1174.47 4432.19C1174.47 4434.37 1174.98 4436.22 1176.01 4437.76C1177.03 4439.25 1178.44 4440.41 1180.23 4441.22C1182.02 4441.98 1184.05 4442.37 1186.31 4442.37ZM1212.62 4416.19H1220.94V4448H1212.62V4416.19ZM1235.73 4415.49C1237.69 4415.49 1239.5 4415.74 1241.17 4416.26C1242.83 4416.77 1244.28 4417.56 1245.52 4418.62C1246.75 4419.69 1247.71 4421.06 1248.4 4422.72C1249.08 4424.34 1249.42 4426.28 1249.42 4428.54V4448H1241.1V4430.02C1241.1 4427.33 1240.44 4425.37 1239.12 4424.13C1237.84 4422.85 1235.73 4422.21 1232.78 4422.21C1230.56 4422.21 1228.56 4422.63 1226.77 4423.49C1224.97 4424.34 1223.52 4425.43 1222.41 4426.75C1221.3 4428.03 1220.66 4429.38 1220.49 4430.78L1220.43 4427.52C1220.64 4426.03 1221.13 4424.58 1221.9 4423.17C1222.67 4421.76 1223.69 4420.48 1224.97 4419.33C1226.3 4418.13 1227.85 4417.19 1229.65 4416.51C1231.44 4415.83 1233.46 4415.49 1235.73 4415.49ZM1263.44 4415.49C1265.4 4415.49 1267.21 4415.74 1268.88 4416.26C1270.54 4416.77 1271.99 4417.56 1273.23 4418.62C1274.47 4419.69 1275.43 4421.06 1276.11 4422.72C1276.83 4424.34 1277.2 4426.28 1277.2 4428.54V4448H1268.88V4430.02C1268.88 4427.33 1268.22 4425.37 1266.89 4424.13C1265.57 4422.85 1263.44 4422.21 1260.49 4422.21C1258.27 4422.21 1256.27 4422.63 1254.48 4423.49C1252.69 4424.34 1251.23 4425.43 1250.13 4426.75C1249.02 4428.03 1248.4 4429.38 1248.27 4430.78L1248.14 4427.33C1248.35 4425.92 1248.87 4424.51 1249.68 4423.1C1250.49 4421.7 1251.55 4420.42 1252.88 4419.26C1254.2 4418.11 1255.74 4417.19 1257.49 4416.51C1259.28 4415.83 1261.26 4415.49 1263.44 4415.49Z" fill="white"/>
<path d="M100.094 4459.97H152.958V4464.77H100.094V4459.97Z" fill="white"/>
<a href="mailto:info@growl.com">
<rect fill="black" fill-opacity="0" x="25.0938" y="0.0999985" width="52.864" height="76.8"/>
</a>
<path fill-rule="evenodd" clip-rule="evenodd" d="M906.157 4647H791.224C789.839 4647 788.51 4647.51 787.53 4648.43C786.55 4649.34 786 4650.58 786 4651.88V4759.12C786 4760.42 786.55 4761.66 787.53 4762.57C788.51 4763.49 789.839 4764 791.224 4764H852.609V4720.12H836.936V4701.84H852.609V4687.22C852.609 4672.11 862.864 4664.67 877.309 4664.67C884.226 4664.67 890.176 4665.15 891.905 4665.36V4681.16L881.89 4681.16C874.033 4681.16 872.2 4684.65 872.2 4689.76V4701.84H891.79L887.872 4720.12H872.2L872.513 4764H906.157C907.542 4764 908.871 4763.49 909.851 4762.57C910.831 4761.66 911.381 4760.42 911.381 4759.12V4651.88C911.381 4650.58 910.831 4649.34 909.851 4648.43C908.871 4647.51 907.542 4647 906.157 4647" fill="#C4C4C4"/>
<path d="M1078.76 4647H963.405C960.631 4647 958.389 4649.09 958.389 4651.68V4759.32C958.389 4761.91 960.631 4764 963.405 4764H1078.76C1081.53 4764 1083.77 4761.91 1083.77 4759.32V4651.68C1083.77 4649.09 1081.53 4647 1078.76 4647ZM1054.82 4689.37C1054.87 4690.06 1054.87 4690.77 1054.87 4691.47C1054.87 4712.94 1037.35 4737.67 1005.33 4737.67C995.455 4737.67 986.302 4735 978.591 4730.39C980.002 4730.54 981.35 4730.6 982.792 4730.6C990.941 4730.6 998.433 4728.02 1004.4 4723.66C996.756 4723.52 990.33 4718.84 988.136 4712.4C990.816 4712.77 993.23 4712.77 995.988 4712.11C992.05 4711.36 988.51 4709.37 985.97 4706.46C983.43 4703.56 982.047 4699.92 982.055 4696.17V4695.96C984.359 4697.18 987.07 4697.92 989.907 4698.03C987.522 4696.54 985.567 4694.53 984.213 4692.18C982.86 4689.82 982.151 4687.19 982.149 4684.51C982.149 4681.49 982.995 4678.72 984.516 4676.32C988.887 4681.34 994.341 4685.45 1000.52 4688.38C1006.71 4691.3 1013.48 4692.98 1020.41 4693.3C1017.95 4682.26 1026.78 4673.32 1037.41 4673.32C1042.43 4673.32 1046.94 4675.28 1050.12 4678.44C1054.06 4677.76 1057.82 4676.38 1061.17 4674.54C1059.87 4678.3 1057.14 4681.47 1053.52 4683.47C1057.03 4683.12 1060.42 4682.22 1063.55 4680.94C1061.19 4684.19 1058.22 4687.07 1054.82 4689.37V4689.37Z" fill="#C4C4C4"/>
<path d="M1193.49 4691.57C1190.54 4691.57 1187.65 4692.39 1185.2 4693.92C1182.74 4695.45 1180.83 4697.63 1179.7 4700.17C1178.57 4702.72 1178.28 4705.52 1178.85 4708.22C1179.43 4710.92 1180.85 4713.4 1182.94 4715.35C1185.03 4717.3 1187.69 4718.63 1190.58 4719.16C1193.48 4719.7 1196.48 4719.42 1199.21 4718.37C1201.94 4717.31 1204.27 4715.53 1205.91 4713.24C1207.55 4710.95 1208.42 4708.25 1208.42 4705.5C1208.42 4701.81 1206.84 4698.26 1204.04 4695.65C1201.24 4693.04 1197.45 4691.57 1193.49 4691.57V4691.57ZM1228.39 4680.86C1227.63 4679.06 1226.48 4677.43 1225.02 4676.07C1223.56 4674.7 1221.81 4673.63 1219.88 4672.92C1214 4670.76 1200.01 4671.24 1193.49 4671.24C1186.97 4671.24 1172.99 4670.74 1167.09 4672.92C1165.17 4673.63 1163.42 4674.7 1161.96 4676.07C1160.49 4677.43 1159.34 4679.06 1158.58 4680.86C1156.27 4686.35 1156.78 4699.42 1156.78 4705.5C1156.78 4711.58 1156.27 4724.63 1158.59 4730.14C1159.35 4731.93 1160.5 4733.56 1161.97 4734.93C1163.43 4736.3 1165.18 4737.37 1167.11 4738.08C1172.98 4740.24 1186.98 4739.76 1193.5 4739.76C1200.02 4739.76 1214 4740.26 1219.89 4738.08C1221.82 4737.37 1223.57 4736.3 1225.03 4734.93C1226.49 4733.56 1227.64 4731.93 1228.4 4730.14C1230.74 4724.65 1230.2 4711.58 1230.2 4705.5C1230.2 4699.42 1230.74 4686.37 1228.4 4680.86L1228.39 4680.86ZM1193.49 4726.92C1188.95 4726.92 1184.51 4725.66 1180.74 4723.31C1176.96 4720.95 1174.02 4717.61 1172.29 4713.7C1170.55 4709.78 1170.09 4705.48 1170.98 4701.32C1171.87 4697.17 1174.05 4693.35 1177.26 4690.36C1180.47 4687.36 1184.56 4685.32 1189.01 4684.5C1193.46 4683.67 1198.08 4684.09 1202.27 4685.71C1206.46 4687.34 1210.05 4690.08 1212.57 4693.6C1215.09 4697.12 1216.44 4701.26 1216.44 4705.5C1216.44 4708.31 1215.85 4711.1 1214.7 4713.7C1213.55 4716.3 1211.86 4718.66 1209.72 4720.65C1207.59 4722.64 1205.06 4724.22 1202.28 4725.29C1199.49 4726.37 1196.5 4726.92 1193.49 4726.92V4726.92ZM1217.38 4688.19C1216.32 4688.19 1215.29 4687.89 1214.41 4687.34C1213.53 4686.79 1212.84 4686.01 1212.43 4685.1C1212.03 4684.19 1211.92 4683.18 1212.13 4682.21C1212.33 4681.24 1212.84 4680.35 1213.59 4679.65C1214.34 4678.95 1215.3 4678.48 1216.33 4678.28C1217.37 4678.09 1218.45 4678.19 1219.43 4678.57C1220.41 4678.95 1221.25 4679.59 1221.83 4680.41C1222.42 4681.23 1222.74 4682.2 1222.74 4683.19C1222.74 4683.84 1222.6 4684.49 1222.34 4685.1C1222.07 4685.71 1221.68 4686.26 1221.18 4686.73C1220.68 4687.19 1220.09 4687.56 1219.44 4687.81C1218.8 4688.07 1218.1 4688.2 1217.4 4688.2L1217.38 4688.19ZM1242.75 4647H1144.23C1140.67 4647 1137.25 4648.32 1134.73 4650.67C1132.21 4653.02 1130.8 4656.21 1130.8 4659.54V4751.46C1130.8 4754.79 1132.21 4757.98 1134.73 4760.33C1137.25 4762.68 1140.67 4764 1144.23 4764H1242.75C1246.31 4764 1249.73 4762.68 1252.24 4760.33C1254.76 4757.98 1256.18 4754.79 1256.18 4751.46V4659.54C1256.18 4656.21 1254.76 4653.02 1252.24 4650.67C1249.73 4648.32 1246.31 4647 1242.75 4647V4647ZM1237.95 4722.74C1237.59 4729.43 1235.96 4735.36 1230.72 4740.23C1225.48 4745.11 1219.13 4746.67 1211.97 4746.99C1204.58 4747.37 1182.42 4747.37 1175.03 4746.99C1167.85 4746.65 1161.52 4745.12 1156.27 4740.23C1151.03 4735.35 1149.38 4729.42 1149.04 4722.74C1148.62 4715.84 1148.62 4695.16 1149.04 4688.26C1149.4 4681.57 1151.02 4675.64 1156.27 4670.77C1161.53 4665.89 1167.88 4664.35 1175.03 4664.03C1182.42 4663.64 1204.58 4663.64 1211.97 4664.03C1219.14 4664.37 1225.49 4665.9 1230.72 4670.78C1235.94 4675.67 1237.61 4681.6 1237.95 4688.29C1238.37 4695.17 1238.37 4715.83 1237.95 4722.74Z" fill="#C4C4C4"/>
<line x1="101" y1="4828.5" x2="1246.84" y2="4828.5" stroke="#949494"/>
<g filter="url(#filter21_f_230_57)">
<path d="M168.693 4680.83C179.617 4679.48 126.109 4785.28 133.203 4770.09C147.575 4739.32 97.5783 4772.48 123.609 4644.38C128.304 4621.27 154.738 4682.55 168.693 4680.83Z" fill="#FF0000"/>
</g>
<g filter="url(#filter22_f_230_57)">
<path d="M299.221 4663.24C312.223 4661.99 249.169 4764.88 257.522 4750.1C274.443 4720.17 215.112 4752.21 245.301 4627.39C250.746 4604.89 282.614 4664.83 299.221 4663.24Z" fill="#9671FF"/>
</g>
<g filter="url(#filter23_d_230_57)">
<path d="M240.281 4712.38V4721.76C240.281 4722.28 240.094 4722.71 239.719 4723.06C239.367 4723.44 238.934 4723.63 238.418 4723.63H200.59V4735.16H251.812V4712.38H240.281ZM238.418 4682.14C238.934 4682.14 239.367 4682.33 239.719 4682.7C240.094 4683.06 240.281 4683.49 240.281 4684.01V4693.39H251.812V4670.61H200.59V4682.14H238.418ZM236.555 4719.9V4712.38H213.879C213.363 4712.38 212.918 4712.2 212.543 4711.85C212.191 4711.47 212.016 4711.03 212.016 4710.51V4695.26C212.016 4694.74 212.191 4694.29 212.543 4693.92C212.918 4693.57 213.363 4693.39 213.879 4693.39H236.555V4685.87H198.762C198.246 4685.87 197.801 4685.69 197.426 4685.34C197.074 4684.97 196.898 4684.52 196.898 4684.01V4668.75C196.898 4668.23 197.074 4667.79 197.426 4667.41C197.801 4667.06 198.246 4666.88 198.762 4666.88H253.676C254.191 4666.88 254.637 4667.06 255.012 4667.41C255.363 4667.79 255.539 4668.23 255.539 4668.75V4695.26C255.539 4695.77 255.363 4696.2 255.012 4696.56C254.637 4696.93 254.191 4697.12 253.676 4697.12H215.742V4708.65H253.676C254.191 4708.65 254.637 4708.84 255.012 4709.21C255.363 4709.56 255.539 4710 255.539 4710.51V4737.02C255.539 4737.54 255.363 4737.98 255.012 4738.36C254.637 4738.71 254.191 4738.88 253.676 4738.88H198.762C198.246 4738.88 197.801 4738.71 197.426 4738.36C197.074 4737.98 196.898 4737.54 196.898 4737.02V4721.76C196.898 4721.25 197.074 4720.8 197.426 4720.43C197.801 4720.08 198.246 4719.9 198.762 4719.9H236.555Z" fill="white"/>
</g>
<g filter="url(#filter24_d_230_57)">
<path d="M185.719 4693.39V4684.01C185.719 4683.49 185.906 4683.06 186.281 4682.7C186.633 4682.33 187.066 4682.14 187.582 4682.14H225.41V4670.61H174.188V4693.39H185.719ZM187.582 4723.63C187.066 4723.63 186.633 4723.44 186.281 4723.06C185.906 4722.71 185.719 4722.28 185.719 4721.76V4712.38H174.188V4735.16H225.41V4723.63H187.582ZM189.445 4685.87V4693.39H212.121C212.637 4693.39 213.082 4693.57 213.457 4693.92C213.809 4694.29 213.984 4694.74 213.984 4695.26V4710.51C213.984 4711.03 213.809 4711.47 213.457 4711.85C213.082 4712.2 212.637 4712.38 212.121 4712.38H189.445V4719.9H227.238C227.754 4719.9 228.199 4720.08 228.574 4720.43C228.926 4720.8 229.102 4721.25 229.102 4721.76V4737.02C229.102 4737.54 228.926 4737.98 228.574 4738.36C228.199 4738.71 227.754 4738.88 227.238 4738.88H172.324C171.809 4738.88 171.363 4738.71 170.988 4738.36C170.637 4737.98 170.461 4737.54 170.461 4737.02V4710.51C170.461 4710 170.637 4709.56 170.988 4709.21C171.363 4708.84 171.809 4708.65 172.324 4708.65H210.258V4697.12H172.324C171.809 4697.12 171.363 4696.93 170.988 4696.56C170.637 4696.2 170.461 4695.77 170.461 4695.26V4668.75C170.461 4668.23 170.637 4667.79 170.988 4667.41C171.363 4667.06 171.809 4666.88 172.324 4666.88H227.238C227.754 4666.88 228.199 4667.06 228.574 4667.41C228.926 4667.79 229.102 4668.23 229.102 4668.75V4684.01C229.102 4684.52 228.926 4684.97 228.574 4685.34C228.199 4685.69 227.754 4685.87 227.238 4685.87H189.445Z" fill="white"/>
</g>
</g>
<defs>
<filter id="filter0_f_230_57" x="-430.545" y="3510.35" width="916.391" height="674.24" filterUnits="userSpaceOnUse" color-interpolation-filters="sRGB">
<feFlood flood-opacity="0" result="BackgroundImageFix"/>
<feBlend mode="normal" in="SourceGraphic" in2="BackgroundImageFix" result="shape"/>
<feGaussianBlur stdDeviation="100" result="effect1_foregroundBlur_230_57"/>
</filter>
<filter id="filter1_f_230_57" x="845.5" y="579.857" width="700.445" height="509.976" filterUnits="userSpaceOnUse" color-interpolation-filters="sRGB">
<feFlood flood-opacity="0" result="BackgroundImageFix"/>
<feBlend mode="normal" in="SourceGraphic" in2="BackgroundImageFix" result="shape"/>
<feGaussianBlur stdDeviation="100" result="effect1_foregroundBlur_230_57"/>
</filter>
<filter id="filter2_d_230_57" x="1117" y="810" width="160" height="84" filterUnits="userSpaceOnUse" color-interpolation-filters="sRGB">
<feFlood flood-opacity="0" result="BackgroundImageFix"/>
<feColorMatrix in="SourceAlpha" type="matrix" values="0 0 0 0 0 0 0 0 0 0 0 0 0 0 0 0 0 0 127 0" result="hardAlpha"/>
<feOffset/>
<feGaussianBlur stdDeviation="12.5"/>
<feComposite in2="hardAlpha" operator="out"/>
<feColorMatrix type="matrix" values="0 0 0 0 0.27451 0 0 0 0 0.870588 0 0 0 0 1 0 0 0 1 0"/>
<feBlend mode="normal" in2="BackgroundImageFix" result="effect1_dropShadow_230_57"/>
<feBlend mode="normal" in="SourceGraphic" in2="effect1_dropShadow_230_57" result="shape"/>
</filter>
<filter id="filter3_d_230_57" x="1135" y="823" width="124" height="58" filterUnits="userSpaceOnUse" color-interpolation-filters="sRGB">
<feFlood flood-opacity="0" result="BackgroundImageFix"/>
<feColorMatrix in="SourceAlpha" type="matrix" values="0 0 0 0 0 0 0 0 0 0 0 0 0 0 0 0 0 0 127 0" result="hardAlpha"/>
<feOffset/>
<feGaussianBlur stdDeviation="12.5"/>
<feComposite in2="hardAlpha" operator="out"/>
<feColorMatrix type="matrix" values="0 0 0 0 0.27451 0 0 0 0 0.870588 0 0 0 0 1 0 0 0 1 0"/>
<feBlend mode="normal" in2="BackgroundImageFix" result="effect1_dropShadow_230_57"/>
<feBlend mode="normal" in="SourceGraphic" in2="effect1_dropShadow_230_57" result="shape"/>
</filter>
<filter id="filter4_d_230_57" x="141.934" y="1554" width="274.069" height="84" filterUnits="userSpaceOnUse" color-interpolation-filters="sRGB">
<feFlood flood-opacity="0" result="BackgroundImageFix"/>
<feColorMatrix in="SourceAlpha" type="matrix" values="0 0 0 0 0 0 0 0 0 0 0 0 0 0 0 0 0 0 127 0" result="hardAlpha"/>
<feOffset/>
<feGaussianBlur stdDeviation="12.5"/>
<feComposite in2="hardAlpha" operator="out"/>
<feColorMatrix type="matrix" values="0 0 0 0 0.27451 0 0 0 0 0.870588 0 0 0 0 1 0 0 0 1 0"/>
<feBlend mode="normal" in2="BackgroundImageFix" result="effect1_dropShadow_230_57"/>
<feBlend mode="normal" in="SourceGraphic" in2="effect1_dropShadow_230_57" result="shape"/>
</filter>
<filter id="filter5_d_230_57" x="178.747" y="1567" width="200.737" height="58" filterUnits="userSpaceOnUse" color-interpolation-filters="sRGB">
<feFlood flood-opacity="0" result="BackgroundImageFix"/>
<feColorMatrix in="SourceAlpha" type="matrix" values="0 0 0 0 0 0 0 0 0 0 0 0 0 0 0 0 0 0 127 0" result="hardAlpha"/>
<feOffset/>
<feGaussianBlur stdDeviation="12.5"/>
<feComposite in2="hardAlpha" operator="out"/>
<feColorMatrix type="matrix" values="0 0 0 0 0.27451 0 0 0 0 0.870588 0 0 0 0 1 0 0 0 1 0"/>
<feBlend mode="normal" in2="BackgroundImageFix" result="effect1_dropShadow_230_57"/>
<feBlend mode="normal" in="SourceGraphic" in2="effect1_dropShadow_230_57" result="shape"/>
</filter>
<filter id="filter6_d_230_57" x="62" y="837" width="278" height="89" filterUnits="userSpaceOnUse" color-interpolation-filters="sRGB">
<feFlood flood-opacity="0" result="BackgroundImageFix"/>
<feColorMatrix in="SourceAlpha" type="matrix" values="0 0 0 0 0 0 0 0 0 0 0 0 0 0 0 0 0 0 127 0" result="hardAlpha"/>
<feOffset/>
<feGaussianBlur stdDeviation="12.5"/>
<feComposite in2="hardAlpha" operator="out"/>
<feColorMatrix type="matrix" values="0 0 0 0 1 0 0 0 0 0 0 0 0 0 0 0 0 0 1 0"/>
<feBlend mode="normal" in2="BackgroundImageFix" result="effect1_dropShadow_230_57"/>
<feBlend mode="normal" in="SourceGraphic" in2="effect1_dropShadow_230_57" result="shape"/>
</filter>
<filter id="filter7_d_230_57" x="98" y="852" width="203.382" height="59.1765" filterUnits="userSpaceOnUse" color-interpolation-filters="sRGB">
<feFlood flood-opacity="0" result="BackgroundImageFix"/>
<feColorMatrix in="SourceAlpha" type="matrix" values="0 0 0 0 0 0 0 0 0 0 0 0 0 0 0 0 0 0 127 0" result="hardAlpha"/>
<feOffset/>
<feGaussianBlur stdDeviation="12.5"/>
<feComposite in2="hardAlpha" operator="out"/>
<feColorMatrix type="matrix" values="0 0 0 0 1 0 0 0 0 0 0 0 0 0 0 0 0 0 1 0"/>
<feBlend mode="normal" in2="BackgroundImageFix" result="effect1_dropShadow_230_57"/>
<feBlend mode="normal" in="SourceGraphic" in2="effect1_dropShadow_230_57" result="shape"/>
</filter>
<filter id="filter8_f_230_57" x="-208.725" y="650.283" width="672.784" height="459.507" filterUnits="userSpaceOnUse" color-interpolation-filters="sRGB">
<feFlood flood-opacity="0" result="BackgroundImageFix"/>
<feBlend mode="normal" in="SourceGraphic" in2="BackgroundImageFix" result="shape"/>
<feGaussianBlur stdDeviation="100" result="effect1_foregroundBlur_230_57"/>
</filter>
<filter id="filter9_f_230_57" x="699.833" y="1317.33" width="813.534" height="493.422" filterUnits="userSpaceOnUse" color-interpolation-filters="sRGB">
<feFlood flood-opacity="0" result="BackgroundImageFix"/>
<feBlend mode="normal" in="SourceGraphic" in2="BackgroundImageFix" result="shape"/>
<feGaussianBlur stdDeviation="100" result="effect1_foregroundBlur_230_57"/>
</filter>
<filter id="filter10_f_230_57" x="574.065" y="1388.33" width="813.534" height="493.422" filterUnits="userSpaceOnUse" color-interpolation-filters="sRGB">
<feFlood flood-opacity="0" result="BackgroundImageFix"/>
<feBlend mode="normal" in="SourceGraphic" in2="BackgroundImageFix" result="shape"/>
<feGaussianBlur stdDeviation="100" result="effect1_foregroundBlur_230_57"/>
</filter>
<filter id="filter11_f_230_57" x="705.596" y="2388.19" width="740.389" height="580.771" filterUnits="userSpaceOnUse" color-interpolation-filters="sRGB">
<feFlood flood-opacity="0" result="BackgroundImageFix"/>
<feBlend mode="normal" in="SourceGraphic" in2="BackgroundImageFix" result="shape"/>
<feGaussianBlur stdDeviation="100" result="effect1_foregroundBlur_230_57"/>
</filter>
<filter id="filter12_f_230_57" x="233.697" y="29.0825" width="1011.86" height="448.507" filterUnits="userSpaceOnUse" color-interpolation-filters="sRGB">
<feFlood flood-opacity="0" result="BackgroundImageFix"/>
<feBlend mode="normal" in="SourceGraphic" in2="BackgroundImageFix" result="shape"/>
<feGaussianBlur stdDeviation="100" result="effect1_foregroundBlur_230_57"/>
</filter>
<filter id="filter13_f_230_57" x="861.023" y="579.329" width="672.91" height="493.422" filterUnits="userSpaceOnUse" color-interpolation-filters="sRGB">
<feFlood flood-opacity="0" result="BackgroundImageFix"/>
<feBlend mode="normal" in="SourceGraphic" in2="BackgroundImageFix" result="shape"/>
<feGaussianBlur stdDeviation="100" result="effect1_foregroundBlur_230_57"/>
</filter>
<filter id="filter14_f_230_57" x="778.023" y="650.329" width="672.91" height="493.422" filterUnits="userSpaceOnUse" color-interpolation-filters="sRGB">
<feFlood flood-opacity="0" result="BackgroundImageFix"/>
<feBlend mode="normal" in="SourceGraphic" in2="BackgroundImageFix" result="shape"/>
<feGaussianBlur stdDeviation="100" result="effect1_foregroundBlur_230_57"/>
</filter>
<filter id="filter15_f_230_57" x="535.989" y="1317.86" width="994.345" height="509.976" filterUnits="userSpaceOnUse" color-interpolation-filters="sRGB">
<feFlood flood-opacity="0" result="BackgroundImageFix"/>
<feBlend mode="normal" in="SourceGraphic" in2="BackgroundImageFix" result="shape"/>
<feGaussianBlur stdDeviation="100" result="effect1_foregroundBlur_230_57"/>
</filter>
<filter id="filter16_d_230_57" x="901.886" y="1548" width="267.604" height="84" filterUnits="userSpaceOnUse" color-interpolation-filters="sRGB">
<feFlood flood-opacity="0" result="BackgroundImageFix"/>
<feColorMatrix in="SourceAlpha" type="matrix" values="0 0 0 0 0 0 0 0 0 0 0 0 0 0 0 0 0 0 127 0" result="hardAlpha"/>
<feOffset/>
<feGaussianBlur stdDeviation="12.5"/>
<feComposite in2="hardAlpha" operator="out"/>
<feColorMatrix type="matrix" values="0 0 0 0 0.9625 0 0 0 0 0 0 0 0 0 0 0 0 0 1 0"/>
<feBlend mode="normal" in2="BackgroundImageFix" result="effect1_dropShadow_230_57"/>
<feBlend mode="normal" in="SourceGraphic" in2="effect1_dropShadow_230_57" result="shape"/>
</filter>
<filter id="filter17_d_230_57" x="937.495" y="1561" width="196.388" height="58" filterUnits="userSpaceOnUse" color-interpolation-filters="sRGB">
<feFlood flood-opacity="0" result="BackgroundImageFix"/>
<feColorMatrix in="SourceAlpha" type="matrix" values="0 0 0 0 0 0 0 0 0 0 0 0 0 0 0 0 0 0 127 0" result="hardAlpha"/>
<feOffset/>
<feGaussianBlur stdDeviation="12.5"/>
<feComposite in2="hardAlpha" operator="out"/>
<feColorMatrix type="matrix" values="0 0 0 0 1 0 0 0 0 0.0916667 0 0 0 0 0.0916667 0 0 0 1 0"/>
<feBlend mode="normal" in2="BackgroundImageFix" result="effect1_dropShadow_230_57"/>
<feBlend mode="normal" in="SourceGraphic" in2="effect1_dropShadow_230_57" result="shape"/>
</filter>
<filter id="filter18_f_230_57" x="-113.526" y="1349.34" width="801.95" height="508.707" filterUnits="userSpaceOnUse" color-interpolation-filters="sRGB">
<feFlood flood-opacity="0" result="BackgroundImageFix"/>
<feBlend mode="normal" in="SourceGraphic" in2="BackgroundImageFix" result="shape"/>
<feGaussianBlur stdDeviation="100" result="effect1_foregroundBlur_230_57"/>
</filter>
<filter id="filter19_dd_230_57" x="564.461" y="247.675" width="720.332" height="172.141" filterUnits="userSpaceOnUse" color-interpolation-filters="sRGB">
<feFlood flood-opacity="0" result="BackgroundImageFix"/>
<feColorMatrix in="SourceAlpha" type="matrix" values="0 0 0 0 0 0 0 0 0 0 0 0 0 0 0 0 0 0 127 0" result="hardAlpha"/>
<feOffset/>
<feGaussianBlur stdDeviation="25"/>
<feComposite in2="hardAlpha" operator="out"/>
<feColorMatrix type="matrix" values="0 0 0 0 0.275 0 0 0 0 0.8695 0 0 0 0 1 0 0 0 1 0"/>
<feBlend mode="normal" in2="BackgroundImageFix" result="effect1_dropShadow_230_57"/>
<feColorMatrix in="SourceAlpha" type="matrix" values="0 0 0 0 0 0 0 0 0 0 0 0 0 0 0 0 0 0 127 0" result="hardAlpha"/>
<feOffset/>
<feGaussianBlur stdDeviation="25"/>
<feComposite in2="hardAlpha" operator="out"/>
<feColorMatrix type="matrix" values="0 0 0 0 0.275 0 0 0 0 0.8695 0 0 0 0 1 0 0 0 1 0"/>
<feBlend mode="normal" in2="effect1_dropShadow_230_57" result="effect2_dropShadow_230_57"/>
<feBlend mode="normal" in="SourceGraphic" in2="effect2_dropShadow_230_57" result="shape"/>
</filter>
<filter id="filter20_d_230_57" x="255.914" y="224.675" width="271.047" height="234" filterUnits="userSpaceOnUse" color-interpolation-filters="sRGB">
<feFlood flood-opacity="0" result="BackgroundImageFix"/>
<feColorMatrix in="SourceAlpha" type="matrix" values="0 0 0 0 0 0 0 0 0 0 0 0 0 0 0 0 0 0 127 0" result="hardAlpha"/>
<feOffset/>
<feGaussianBlur stdDeviation="12.5"/>
<feComposite in2="hardAlpha" operator="out"/>
<feColorMatrix type="matrix" values="0 0 0 0 1 0 0 0 0 1 0 0 0 0 1 0 0 0 0.6 0"/>
<feBlend mode="normal" in2="BackgroundImageFix" result="effect1_dropShadow_230_57"/>
<feBlend mode="normal" in="SourceGraphic" in2="effect1_dropShadow_230_57" result="shape"/>
</filter>
<filter id="filter21_f_230_57" x="-84.0334" y="4439.16" width="454.203" height="532.421" filterUnits="userSpaceOnUse" color-interpolation-filters="sRGB">
<feFlood flood-opacity="0" result="BackgroundImageFix"/>
<feBlend mode="normal" in="SourceGraphic" in2="BackgroundImageFix" result="shape"/>
<feGaussianBlur stdDeviation="100" result="effect1_foregroundBlur_230_57"/>
</filter>
<filter id="filter22_f_230_57" x="36.5898" y="4422.33" width="464.404" height="529.223" filterUnits="userSpaceOnUse" color-interpolation-filters="sRGB">
<feFlood flood-opacity="0" result="BackgroundImageFix"/>
<feBlend mode="normal" in="SourceGraphic" in2="BackgroundImageFix" result="shape"/>
<feGaussianBlur stdDeviation="100" result="effect1_foregroundBlur_230_57"/>
</filter>
<filter id="filter23_d_230_57" x="171.898" y="4641.88" width="108.641" height="122" filterUnits="userSpaceOnUse" color-interpolation-filters="sRGB">
<feFlood flood-opacity="0" result="BackgroundImageFix"/>
<feColorMatrix in="SourceAlpha" type="matrix" values="0 0 0 0 0 0 0 0 0 0 0 0 0 0 0 0 0 0 127 0" result="hardAlpha"/>
<feOffset/>
<feGaussianBlur stdDeviation="12.5"/>
<feComposite in2="hardAlpha" operator="out"/>
<feColorMatrix type="matrix" values="0 0 0 0 0.00416667 0 0 0 0 0.82075 0 0 0 0 1 0 0 0 0.8 0"/>
<feBlend mode="normal" in2="BackgroundImageFix" result="effect1_dropShadow_230_57"/>
<feBlend mode="normal" in="SourceGraphic" in2="effect1_dropShadow_230_57" result="shape"/>
</filter>
<filter id="filter24_d_230_57" x="145.461" y="4641.88" width="108.641" height="122" filterUnits="userSpaceOnUse" color-interpolation-filters="sRGB">
<feFlood flood-opacity="0" result="BackgroundImageFix"/>
<feColorMatrix in="SourceAlpha" type="matrix" values="0 0 0 0 0 0 0 0 0 0 0 0 0 0 0 0 0 0 127 0" result="hardAlpha"/>
<feOffset/>
<feGaussianBlur stdDeviation="12.5"/>
<feComposite in2="hardAlpha" operator="out"/>
<feColorMatrix type="matrix" values="0 0 0 0 1 0 0 0 0 0 0 0 0 0 0 0 0 0 0.8 0"/>
<feBlend mode="normal" in2="BackgroundImageFix" result="effect1_dropShadow_230_57"/>
<feBlend mode="normal" in="SourceGraphic" in2="effect1_dropShadow_230_57" result="shape"/>
</filter>
<clipPath id="clip0_230_57">
<rect width="1440" height="4977" fill="white"/>
</clipPath>
</defs>
</svg>
